ISO-10303-21;
HEADER;
FILE_DESCRIPTION(('FreeCAD Model'),'2;1');
FILE_NAME('Open CASCADE Shape Model','2026-10-02T23:59:06',('FreeCAD'),(
    'FreeCAD'),'Open CASCADE STEP processor 7.8','FreeCAD','Unknown');
FILE_SCHEMA(('AUTOMOTIVE_DESIGN { 1 0 10303 214 1 1 1 1 }'));
ENDSEC;
DATA;
#1 = APPLICATION_PROTOCOL_DEFINITION('international standard',
  'automotive_design',2000,#2);
#2 = APPLICATION_CONTEXT(
  'core data for automotive mechanical design processes');
#3 = SHAPE_DEFINITION_REPRESENTATION(#4,#10);
#4 = PRODUCT_DEFINITION_SHAPE('','',#5);
#5 = PRODUCT_DEFINITION('design','',#6,#9);
#6 = PRODUCT_DEFINITION_FORMATION('','',#7);
#7 = PRODUCT('Open CASCADE STEP translator 7.8 3',
  'Open CASCADE STEP translator 7.8 3','',(#8));
#8 = PRODUCT_CONTEXT('',#2,'mechanical');
#9 = PRODUCT_DEFINITION_CONTEXT('part definition',#2,'design');
#10 = ADVANCED_BREP_SHAPE_REPRESENTATION('',(#11,#15),#1743);
#11 = AXIS2_PLACEMENT_3D('',#12,#13,#14);
#12 = CARTESIAN_POINT('',(0.,0.,0.));
#13 = DIRECTION('',(0.,0.,1.));
#14 = DIRECTION('',(1.,0.,-0.));
#15 = MANIFOLD_SOLID_BREP('',#16);
#16 = CLOSED_SHELL('',(#17,#57,#90,#121,#152,#185,#210,#235,#334,#463,
    #480,#539,#556,#655,#672,#689,#722,#753,#777,#801,#818,#849,#873,
    #897,#914,#931,#948,#973,#990,#1022,#1046,#1070,#1095,#1120,#1144,
    #1168,#1186,#1203,#1220,#1245,#1262,#1279,#1310,#1334,#1358,#1375,
    #1406,#1430,#1454,#1471,#1483,#1495,#1507,#1539,#1563,#1587,#1612,
    #1637,#1661,#1685,#1703,#1715,#1727));
#17 = ADVANCED_FACE('',(#18),#52,.F.);
#18 = FACE_BOUND('',#19,.F.);
#19 = EDGE_LOOP('',(#20,#30,#38,#46));
#20 = ORIENTED_EDGE('',*,*,#21,.F.);
#21 = EDGE_CURVE('',#22,#24,#26,.T.);
#22 = VERTEX_POINT('',#23);
#23 = CARTESIAN_POINT('',(88.06,14.5,0.35));
#24 = VERTEX_POINT('',#25);
#25 = CARTESIAN_POINT('',(88.06,14.5,13.15));
#26 = LINE('',#27,#28);
#27 = CARTESIAN_POINT('',(88.06,14.5,0.));
#28 = VECTOR('',#29,1.);
#29 = DIRECTION('',(0.,0.,1.));
#30 = ORIENTED_EDGE('',*,*,#31,.T.);
#31 = EDGE_CURVE('',#22,#32,#34,.T.);
#32 = VERTEX_POINT('',#33);
#33 = CARTESIAN_POINT('',(88.06,35.8,0.35));
#34 = LINE('',#35,#36);
#35 = CARTESIAN_POINT('',(88.06,14.5,0.35));
#36 = VECTOR('',#37,1.);
#37 = DIRECTION('',(0.,1.,0.));
#38 = ORIENTED_EDGE('',*,*,#39,.T.);
#39 = EDGE_CURVE('',#32,#40,#42,.T.);
#40 = VERTEX_POINT('',#41);
#41 = CARTESIAN_POINT('',(88.06,35.8,13.15));
#42 = LINE('',#43,#44);
#43 = CARTESIAN_POINT('',(88.06,35.8,0.));
#44 = VECTOR('',#45,1.);
#45 = DIRECTION('',(0.,0.,1.));
#46 = ORIENTED_EDGE('',*,*,#47,.F.);
#47 = EDGE_CURVE('',#24,#40,#48,.T.);
#48 = LINE('',#49,#50);
#49 = CARTESIAN_POINT('',(88.06,14.5,13.15));
#50 = VECTOR('',#51,1.);
#51 = DIRECTION('',(0.,1.,0.));
#52 = PLANE('',#53);
#53 = AXIS2_PLACEMENT_3D('',#54,#55,#56);
#54 = CARTESIAN_POINT('',(88.06,5.56,0.));
#55 = DIRECTION('',(1.,0.,0.));
#56 = DIRECTION('',(0.,0.,1.));
#57 = ADVANCED_FACE('',(#58),#85,.T.);
#58 = FACE_BOUND('',#59,.T.);
#59 = EDGE_LOOP('',(#60,#61,#70,#78));
#60 = ORIENTED_EDGE('',*,*,#21,.F.);
#61 = ORIENTED_EDGE('',*,*,#62,.F.);
#62 = EDGE_CURVE('',#63,#22,#65,.T.);
#63 = VERTEX_POINT('',#64);
#64 = CARTESIAN_POINT('',(97.,5.56,0.35));
#65 = CIRCLE('',#66,8.94);
#66 = AXIS2_PLACEMENT_3D('',#67,#68,#69);
#67 = CARTESIAN_POINT('',(97.,14.5,0.35));
#68 = DIRECTION('',(-0.,0.,-1.));
#69 = DIRECTION('',(-1.986976330425E-16,-1.,0.));
#70 = ORIENTED_EDGE('',*,*,#71,.T.);
#71 = EDGE_CURVE('',#63,#72,#74,.T.);
#72 = VERTEX_POINT('',#73);
#73 = CARTESIAN_POINT('',(97.,5.56,13.15));
#74 = LINE('',#75,#76);
#75 = CARTESIAN_POINT('',(97.,5.56,0.));
#76 = VECTOR('',#77,1.);
#77 = DIRECTION('',(0.,0.,1.));
#78 = ORIENTED_EDGE('',*,*,#79,.T.);
#79 = EDGE_CURVE('',#72,#24,#80,.T.);
#80 = CIRCLE('',#81,8.94);
#81 = AXIS2_PLACEMENT_3D('',#82,#83,#84);
#82 = CARTESIAN_POINT('',(97.,14.5,13.15));
#83 = DIRECTION('',(-0.,0.,-1.));
#84 = DIRECTION('',(-1.986976330425E-16,-1.,0.));
#85 = CYLINDRICAL_SURFACE('',#86,8.94);
#86 = AXIS2_PLACEMENT_3D('',#87,#88,#89);
#87 = CARTESIAN_POINT('',(97.,14.5,0.));
#88 = DIRECTION('',(0.,0.,1.));
#89 = DIRECTION('',(-1.,0.,0.));
#90 = ADVANCED_FACE('',(#91),#116,.F.);
#91 = FACE_BOUND('',#92,.F.);
#92 = EDGE_LOOP('',(#93,#101,#102,#110));
#93 = ORIENTED_EDGE('',*,*,#94,.F.);
#94 = EDGE_CURVE('',#24,#95,#97,.T.);
#95 = VERTEX_POINT('',#96);
#96 = CARTESIAN_POINT('',(88.21,14.5,13.3));
#97 = LINE('',#98,#99);
#98 = CARTESIAN_POINT('',(88.135,14.5,13.225));
#99 = VECTOR('',#100,1.);
#100 = DIRECTION('',(0.707106781187,0.,0.707106781187));
#101 = ORIENTED_EDGE('',*,*,#47,.T.);
#102 = ORIENTED_EDGE('',*,*,#103,.T.);
#103 = EDGE_CURVE('',#40,#104,#106,.T.);
#104 = VERTEX_POINT('',#105);
#105 = CARTESIAN_POINT('',(88.21,35.8,13.3));
#106 = LINE('',#107,#108);
#107 = CARTESIAN_POINT('',(88.135,35.8,13.225));
#108 = VECTOR('',#109,1.);
#109 = DIRECTION('',(0.707106781187,0.,0.707106781187));
#110 = ORIENTED_EDGE('',*,*,#111,.F.);
#111 = EDGE_CURVE('',#95,#104,#112,.T.);
#112 = LINE('',#113,#114);
#113 = CARTESIAN_POINT('',(88.21,14.5,13.3));
#114 = VECTOR('',#115,1.);
#115 = DIRECTION('',(0.,1.,0.));
#116 = PLANE('',#117);
#117 = AXIS2_PLACEMENT_3D('',#118,#119,#120);
#118 = CARTESIAN_POINT('',(88.135,14.5,13.225));
#119 = DIRECTION('',(0.707106781187,0.,-0.707106781187));
#120 = DIRECTION('',(0.,1.,0.));
#121 = ADVANCED_FACE('',(#122),#147,.T.);
#122 = FACE_BOUND('',#123,.T.);
#123 = EDGE_LOOP('',(#124,#132,#133,#141));
#124 = ORIENTED_EDGE('',*,*,#125,.F.);
#125 = EDGE_CURVE('',#22,#126,#128,.T.);
#126 = VERTEX_POINT('',#127);
#127 = CARTESIAN_POINT('',(88.41,14.5,0.));
#128 = LINE('',#129,#130);
#129 = CARTESIAN_POINT('',(88.235,14.5,0.175));
#130 = VECTOR('',#131,1.);
#131 = DIRECTION('',(0.707106781187,0.,-0.707106781187));
#132 = ORIENTED_EDGE('',*,*,#31,.T.);
#133 = ORIENTED_EDGE('',*,*,#134,.T.);
#134 = EDGE_CURVE('',#32,#135,#137,.T.);
#135 = VERTEX_POINT('',#136);
#136 = CARTESIAN_POINT('',(88.41,35.8,0.));
#137 = LINE('',#138,#139);
#138 = CARTESIAN_POINT('',(88.235,35.8,0.175));
#139 = VECTOR('',#140,1.);
#140 = DIRECTION('',(0.707106781187,0.,-0.707106781187));
#141 = ORIENTED_EDGE('',*,*,#142,.F.);
#142 = EDGE_CURVE('',#126,#135,#143,.T.);
#143 = LINE('',#144,#145);
#144 = CARTESIAN_POINT('',(88.41,14.5,0.));
#145 = VECTOR('',#146,1.);
#146 = DIRECTION('',(0.,1.,0.));
#147 = PLANE('',#148);
#148 = AXIS2_PLACEMENT_3D('',#149,#150,#151);
#149 = CARTESIAN_POINT('',(88.235,14.5,0.175));
#150 = DIRECTION('',(-0.707106781187,0.,-0.707106781187));
#151 = DIRECTION('',(0.,1.,0.));
#152 = ADVANCED_FACE('',(#153),#180,.T.);
#153 = FACE_BOUND('',#154,.F.);
#154 = EDGE_LOOP('',(#155,#156,#165,#173));
#155 = ORIENTED_EDGE('',*,*,#39,.F.);
#156 = ORIENTED_EDGE('',*,*,#157,.T.);
#157 = EDGE_CURVE('',#32,#158,#160,.T.);
#158 = VERTEX_POINT('',#159);
#159 = CARTESIAN_POINT('',(97.,44.74,0.35));
#160 = CIRCLE('',#161,8.94);
#161 = AXIS2_PLACEMENT_3D('',#162,#163,#164);
#162 = CARTESIAN_POINT('',(97.,35.8,0.35));
#163 = DIRECTION('',(0.,0.,-1.));
#164 = DIRECTION('',(-1.,0.,0.));
#165 = ORIENTED_EDGE('',*,*,#166,.T.);
#166 = EDGE_CURVE('',#158,#167,#169,.T.);
#167 = VERTEX_POINT('',#168);
#168 = CARTESIAN_POINT('',(97.,44.74,13.15));
#169 = LINE('',#170,#171);
#170 = CARTESIAN_POINT('',(97.,44.74,0.));
#171 = VECTOR('',#172,1.);
#172 = DIRECTION('',(0.,0.,1.));
#173 = ORIENTED_EDGE('',*,*,#174,.F.);
#174 = EDGE_CURVE('',#40,#167,#175,.T.);
#175 = CIRCLE('',#176,8.94);
#176 = AXIS2_PLACEMENT_3D('',#177,#178,#179);
#177 = CARTESIAN_POINT('',(97.,35.8,13.15));
#178 = DIRECTION('',(0.,0.,-1.));
#179 = DIRECTION('',(-1.,0.,0.));
#180 = CYLINDRICAL_SURFACE('',#181,8.94);
#181 = AXIS2_PLACEMENT_3D('',#182,#183,#184);
#182 = CARTESIAN_POINT('',(97.,35.8,0.));
#183 = DIRECTION('',(0.,0.,1.));
#184 = DIRECTION('',(-1.,0.,0.));
#185 = ADVANCED_FACE('',(#186),#205,.T.);
#186 = FACE_BOUND('',#187,.F.);
#187 = EDGE_LOOP('',(#188,#196,#197,#198));
#188 = ORIENTED_EDGE('',*,*,#189,.F.);
#189 = EDGE_CURVE('',#72,#190,#192,.T.);
#190 = VERTEX_POINT('',#191);
#191 = CARTESIAN_POINT('',(97.,5.71,13.3));
#192 = LINE('',#193,#194);
#193 = CARTESIAN_POINT('',(97.,5.635,13.225));
#194 = VECTOR('',#195,1.);
#195 = DIRECTION('',(0.,0.707106781187,0.707106781187));
#196 = ORIENTED_EDGE('',*,*,#79,.T.);
#197 = ORIENTED_EDGE('',*,*,#94,.T.);
#198 = ORIENTED_EDGE('',*,*,#199,.F.);
#199 = EDGE_CURVE('',#190,#95,#200,.T.);
#200 = CIRCLE('',#201,8.79);
#201 = AXIS2_PLACEMENT_3D('',#202,#203,#204);
#202 = CARTESIAN_POINT('',(97.,14.5,13.3));
#203 = DIRECTION('',(-0.,0.,-1.));
#204 = DIRECTION('',(-1.986976330425E-16,-1.,0.));
#205 = CONICAL_SURFACE('',#206,8.94,0.785398163397);
#206 = AXIS2_PLACEMENT_3D('',#207,#208,#209);
#207 = CARTESIAN_POINT('',(97.,14.5,13.15));
#208 = DIRECTION('',(-0.,-0.,-1.));
#209 = DIRECTION('',(-1.986976330425E-16,-1.,0.));
#210 = ADVANCED_FACE('',(#211),#230,.T.);
#211 = FACE_BOUND('',#212,.T.);
#212 = EDGE_LOOP('',(#213,#221,#222,#223));
#213 = ORIENTED_EDGE('',*,*,#214,.F.);
#214 = EDGE_CURVE('',#63,#215,#217,.T.);
#215 = VERTEX_POINT('',#216);
#216 = CARTESIAN_POINT('',(97.,5.91,0.));
#217 = LINE('',#218,#219);
#218 = CARTESIAN_POINT('',(97.,5.735,0.175));
#219 = VECTOR('',#220,1.);
#220 = DIRECTION('',(0.,0.707106781187,-0.707106781187));
#221 = ORIENTED_EDGE('',*,*,#62,.T.);
#222 = ORIENTED_EDGE('',*,*,#125,.T.);
#223 = ORIENTED_EDGE('',*,*,#224,.F.);
#224 = EDGE_CURVE('',#215,#126,#225,.T.);
#225 = CIRCLE('',#226,8.59);
#226 = AXIS2_PLACEMENT_3D('',#227,#228,#229);
#227 = CARTESIAN_POINT('',(97.,14.5,0.));
#228 = DIRECTION('',(-0.,0.,-1.));
#229 = DIRECTION('',(-1.986976330425E-16,-1.,0.));
#230 = CONICAL_SURFACE('',#231,8.94,0.785398163397);
#231 = AXIS2_PLACEMENT_3D('',#232,#233,#234);
#232 = CARTESIAN_POINT('',(97.,14.5,0.35));
#233 = DIRECTION('',(0.,0.,1.));
#234 = DIRECTION('',(-1.986976330425E-16,-1.,0.));
#235 = ADVANCED_FACE('',(#236,#261,#295),#329,.F.);
#236 = FACE_BOUND('',#237,.F.);
#237 = EDGE_LOOP('',(#238,#239,#247,#255));
#238 = ORIENTED_EDGE('',*,*,#71,.T.);
#239 = ORIENTED_EDGE('',*,*,#240,.F.);
#240 = EDGE_CURVE('',#241,#72,#243,.T.);
#241 = VERTEX_POINT('',#242);
#242 = CARTESIAN_POINT('',(155.2,5.56,13.15));
#243 = LINE('',#244,#245);
#244 = CARTESIAN_POINT('',(155.2,5.56,13.15));
#245 = VECTOR('',#246,1.);
#246 = DIRECTION('',(-1.,0.,0.));
#247 = ORIENTED_EDGE('',*,*,#248,.F.);
#248 = EDGE_CURVE('',#249,#241,#251,.T.);
#249 = VERTEX_POINT('',#250);
#250 = CARTESIAN_POINT('',(155.2,5.56,0.35));
#251 = LINE('',#252,#253);
#252 = CARTESIAN_POINT('',(155.2,5.56,0.));
#253 = VECTOR('',#254,1.);
#254 = DIRECTION('',(0.,0.,1.));
#255 = ORIENTED_EDGE('',*,*,#256,.T.);
#256 = EDGE_CURVE('',#249,#63,#257,.T.);
#257 = LINE('',#258,#259);
#258 = CARTESIAN_POINT('',(155.2,5.56,0.35));
#259 = VECTOR('',#260,1.);
#260 = DIRECTION('',(-1.,0.,0.));
#261 = FACE_BOUND('',#262,.F.);
#262 = EDGE_LOOP('',(#263,#273,#281,#289));
#263 = ORIENTED_EDGE('',*,*,#264,.F.);
#264 = EDGE_CURVE('',#265,#267,#269,.T.);
#265 = VERTEX_POINT('',#266);
#266 = CARTESIAN_POINT('',(105.,5.56,6.2));
#267 = VERTEX_POINT('',#268);
#268 = CARTESIAN_POINT('',(105.,5.56,10.8));
#269 = LINE('',#270,#271);
#270 = CARTESIAN_POINT('',(105.,5.56,4.25));
#271 = VECTOR('',#272,1.);
#272 = DIRECTION('',(0.,0.,1.));
#273 = ORIENTED_EDGE('',*,*,#274,.T.);
#274 = EDGE_CURVE('',#265,#275,#277,.T.);
#275 = VERTEX_POINT('',#276);
#276 = CARTESIAN_POINT('',(109.,5.56,6.2));
#277 = LINE('',#278,#279);
#278 = CARTESIAN_POINT('',(105.,5.56,6.2));
#279 = VECTOR('',#280,1.);
#280 = DIRECTION('',(1.,0.,0.));
#281 = ORIENTED_EDGE('',*,*,#282,.T.);
#282 = EDGE_CURVE('',#275,#283,#285,.T.);
#283 = VERTEX_POINT('',#284);
#284 = CARTESIAN_POINT('',(109.,5.56,10.8));
#285 = LINE('',#286,#287);
#286 = CARTESIAN_POINT('',(109.,5.56,4.25));
#287 = VECTOR('',#288,1.);
#288 = DIRECTION('',(0.,0.,1.));
#289 = ORIENTED_EDGE('',*,*,#290,.F.);
#290 = EDGE_CURVE('',#267,#283,#291,.T.);
#291 = LINE('',#292,#293);
#292 = CARTESIAN_POINT('',(105.,5.56,10.8));
#293 = VECTOR('',#294,1.);
#294 = DIRECTION('',(1.,0.,0.));
#295 = FACE_BOUND('',#296,.F.);
#296 = EDGE_LOOP('',(#297,#307,#315,#323));
#297 = ORIENTED_EDGE('',*,*,#298,.F.);
#298 = EDGE_CURVE('',#299,#301,#303,.T.);
#299 = VERTEX_POINT('',#300);
#300 = CARTESIAN_POINT('',(143.2,5.56,6.2));
#301 = VERTEX_POINT('',#302);
#302 = CARTESIAN_POINT('',(143.2,5.56,10.8));
#303 = LINE('',#304,#305);
#304 = CARTESIAN_POINT('',(143.2,5.56,4.25));
#305 = VECTOR('',#306,1.);
#306 = DIRECTION('',(0.,0.,1.));
#307 = ORIENTED_EDGE('',*,*,#308,.T.);
#308 = EDGE_CURVE('',#299,#309,#311,.T.);
#309 = VERTEX_POINT('',#310);
#310 = CARTESIAN_POINT('',(147.2,5.56,6.2));
#311 = LINE('',#312,#313);
#312 = CARTESIAN_POINT('',(143.2,5.56,6.2));
#313 = VECTOR('',#314,1.);
#314 = DIRECTION('',(1.,0.,0.));
#315 = ORIENTED_EDGE('',*,*,#316,.T.);
#316 = EDGE_CURVE('',#309,#317,#319,.T.);
#317 = VERTEX_POINT('',#318);
#318 = CARTESIAN_POINT('',(147.2,5.56,10.8));
#319 = LINE('',#320,#321);
#320 = CARTESIAN_POINT('',(147.2,5.56,4.25));
#321 = VECTOR('',#322,1.);
#322 = DIRECTION('',(0.,0.,1.));
#323 = ORIENTED_EDGE('',*,*,#324,.F.);
#324 = EDGE_CURVE('',#301,#317,#325,.T.);
#325 = LINE('',#326,#327);
#326 = CARTESIAN_POINT('',(143.2,5.56,10.8));
#327 = VECTOR('',#328,1.);
#328 = DIRECTION('',(1.,0.,0.));
#329 = PLANE('',#330);
#330 = AXIS2_PLACEMENT_3D('',#331,#332,#333);
#331 = CARTESIAN_POINT('',(88.06,5.56,0.));
#332 = DIRECTION('',(0.,1.,0.));
#333 = DIRECTION('',(0.,0.,1.));
#334 = ADVANCED_FACE('',(#335,#388),#458,.T.);
#335 = FACE_BOUND('',#336,.T.);
#336 = EDGE_LOOP('',(#337,#338,#339,#347,#356,#364,#373,#381));
#337 = ORIENTED_EDGE('',*,*,#111,.F.);
#338 = ORIENTED_EDGE('',*,*,#199,.F.);
#339 = ORIENTED_EDGE('',*,*,#340,.F.);
#340 = EDGE_CURVE('',#341,#190,#343,.T.);
#341 = VERTEX_POINT('',#342);
#342 = CARTESIAN_POINT('',(155.2,5.71,13.3));
#343 = LINE('',#344,#345);
#344 = CARTESIAN_POINT('',(155.2,5.71,13.3));
#345 = VECTOR('',#346,1.);
#346 = DIRECTION('',(-1.,0.,0.));
#347 = ORIENTED_EDGE('',*,*,#348,.F.);
#348 = EDGE_CURVE('',#349,#341,#351,.T.);
#349 = VERTEX_POINT('',#350);
#350 = CARTESIAN_POINT('',(163.99,14.5,13.3));
#351 = CIRCLE('',#352,8.79);
#352 = AXIS2_PLACEMENT_3D('',#353,#354,#355);
#353 = CARTESIAN_POINT('',(155.2,14.5,13.3));
#354 = DIRECTION('',(0.,0.,-1.));
#355 = DIRECTION('',(1.,1.986976330425E-16,0.));
#356 = ORIENTED_EDGE('',*,*,#357,.F.);
#357 = EDGE_CURVE('',#358,#349,#360,.T.);
#358 = VERTEX_POINT('',#359);
#359 = CARTESIAN_POINT('',(163.99,35.8,13.3));
#360 = LINE('',#361,#362);
#361 = CARTESIAN_POINT('',(163.99,35.8,13.3));
#362 = VECTOR('',#363,1.);
#363 = DIRECTION('',(0.,-1.,0.));
#364 = ORIENTED_EDGE('',*,*,#365,.F.);
#365 = EDGE_CURVE('',#366,#358,#368,.T.);
#366 = VERTEX_POINT('',#367);
#367 = CARTESIAN_POINT('',(155.2,44.59,13.3));
#368 = CIRCLE('',#369,8.79);
#369 = AXIS2_PLACEMENT_3D('',#370,#371,#372);
#370 = CARTESIAN_POINT('',(155.2,35.8,13.3));
#371 = DIRECTION('',(0.,0.,-1.));
#372 = DIRECTION('',(0.,1.,0.));
#373 = ORIENTED_EDGE('',*,*,#374,.F.);
#374 = EDGE_CURVE('',#375,#366,#377,.T.);
#375 = VERTEX_POINT('',#376);
#376 = CARTESIAN_POINT('',(97.,44.59,13.3));
#377 = LINE('',#378,#379);
#378 = CARTESIAN_POINT('',(97.,44.59,13.3));
#379 = VECTOR('',#380,1.);
#380 = DIRECTION('',(1.,0.,0.));
#381 = ORIENTED_EDGE('',*,*,#382,.F.);
#382 = EDGE_CURVE('',#104,#375,#383,.T.);
#383 = CIRCLE('',#384,8.79);
#384 = AXIS2_PLACEMENT_3D('',#385,#386,#387);
#385 = CARTESIAN_POINT('',(97.,35.8,13.3));
#386 = DIRECTION('',(0.,0.,-1.));
#387 = DIRECTION('',(-1.,0.,0.));
#388 = FACE_BOUND('',#389,.T.);
#389 = EDGE_LOOP('',(#390,#401,#409,#418,#426,#435,#443,#452));
#390 = ORIENTED_EDGE('',*,*,#391,.F.);
#391 = EDGE_CURVE('',#392,#394,#396,.T.);
#392 = VERTEX_POINT('',#393);
#393 = CARTESIAN_POINT('',(89.,14.5,13.3));
#394 = VERTEX_POINT('',#395);
#395 = CARTESIAN_POINT('',(97.,6.5,13.3));
#396 = CIRCLE('',#397,8.);
#397 = AXIS2_PLACEMENT_3D('',#398,#399,#400);
#398 = CARTESIAN_POINT('',(97.,14.5,13.3));
#399 = DIRECTION('',(0.,0.,1.));
#400 = DIRECTION('',(-1.,0.,0.));
#401 = ORIENTED_EDGE('',*,*,#402,.F.);
#402 = EDGE_CURVE('',#403,#392,#405,.T.);
#403 = VERTEX_POINT('',#404);
#404 = CARTESIAN_POINT('',(89.,35.8,13.3));
#405 = LINE('',#406,#407);
#406 = CARTESIAN_POINT('',(89.,35.8,13.3));
#407 = VECTOR('',#408,1.);
#408 = DIRECTION('',(0.,-1.,0.));
#409 = ORIENTED_EDGE('',*,*,#410,.F.);
#410 = EDGE_CURVE('',#411,#403,#413,.T.);
#411 = VERTEX_POINT('',#412);
#412 = CARTESIAN_POINT('',(97.,43.8,13.3));
#413 = CIRCLE('',#414,8.);
#414 = AXIS2_PLACEMENT_3D('',#415,#416,#417);
#415 = CARTESIAN_POINT('',(97.,35.8,13.3));
#416 = DIRECTION('',(0.,-0.,1.));
#417 = DIRECTION('',(2.26287495465E-16,1.,0.));
#418 = ORIENTED_EDGE('',*,*,#419,.F.);
#419 = EDGE_CURVE('',#420,#411,#422,.T.);
#420 = VERTEX_POINT('',#421);
#421 = CARTESIAN_POINT('',(155.2,43.8,13.3));
#422 = LINE('',#423,#424);
#423 = CARTESIAN_POINT('',(155.2,43.8,13.3));
#424 = VECTOR('',#425,1.);
#425 = DIRECTION('',(-1.,0.,0.));
#426 = ORIENTED_EDGE('',*,*,#427,.F.);
#427 = EDGE_CURVE('',#428,#420,#430,.T.);
#428 = VERTEX_POINT('',#429);
#429 = CARTESIAN_POINT('',(163.2,35.8,13.3));
#430 = CIRCLE('',#431,8.);
#431 = AXIS2_PLACEMENT_3D('',#432,#433,#434);
#432 = CARTESIAN_POINT('',(155.2,35.8,13.3));
#433 = DIRECTION('',(0.,0.,1.));
#434 = DIRECTION('',(1.,0.,0.));
#435 = ORIENTED_EDGE('',*,*,#436,.F.);
#436 = EDGE_CURVE('',#437,#428,#439,.T.);
#437 = VERTEX_POINT('',#438);
#438 = CARTESIAN_POINT('',(163.2,14.5,13.3));
#439 = LINE('',#440,#441);
#440 = CARTESIAN_POINT('',(163.2,14.5,13.3));
#441 = VECTOR('',#442,1.);
#442 = DIRECTION('',(0.,1.,0.));
#443 = ORIENTED_EDGE('',*,*,#444,.F.);
#444 = EDGE_CURVE('',#445,#437,#447,.T.);
#445 = VERTEX_POINT('',#446);
#446 = CARTESIAN_POINT('',(155.2,6.5,13.3));
#447 = CIRCLE('',#448,8.);
#448 = AXIS2_PLACEMENT_3D('',#449,#450,#451);
#449 = CARTESIAN_POINT('',(155.2,14.5,13.3));
#450 = DIRECTION('',(-0.,0.,1.));
#451 = DIRECTION('',(0.,-1.,0.));
#452 = ORIENTED_EDGE('',*,*,#453,.F.);
#453 = EDGE_CURVE('',#394,#445,#454,.T.);
#454 = LINE('',#455,#456);
#455 = CARTESIAN_POINT('',(97.,6.5,13.3));
#456 = VECTOR('',#457,1.);
#457 = DIRECTION('',(1.,0.,0.));
#458 = PLANE('',#459);
#459 = AXIS2_PLACEMENT_3D('',#460,#461,#462);
#460 = CARTESIAN_POINT('',(88.06,5.56,13.3));
#461 = DIRECTION('',(0.,0.,1.));
#462 = DIRECTION('',(1.,0.,0.));
#463 = ADVANCED_FACE('',(#464),#475,.T.);
#464 = FACE_BOUND('',#465,.F.);
#465 = EDGE_LOOP('',(#466,#467,#468,#474));
#466 = ORIENTED_EDGE('',*,*,#103,.F.);
#467 = ORIENTED_EDGE('',*,*,#174,.T.);
#468 = ORIENTED_EDGE('',*,*,#469,.T.);
#469 = EDGE_CURVE('',#167,#375,#470,.T.);
#470 = LINE('',#471,#472);
#471 = CARTESIAN_POINT('',(97.,44.74,13.15));
#472 = VECTOR('',#473,1.);
#473 = DIRECTION('',(4.329780281177E-17,-0.707106781187,0.707106781187)
  );
#474 = ORIENTED_EDGE('',*,*,#382,.F.);
#475 = CONICAL_SURFACE('',#476,8.94,0.785398163397);
#476 = AXIS2_PLACEMENT_3D('',#477,#478,#479);
#477 = CARTESIAN_POINT('',(97.,35.8,13.15));
#478 = DIRECTION('',(-0.,-0.,-1.));
#479 = DIRECTION('',(-1.,0.,0.));
#480 = ADVANCED_FACE('',(#481),#534,.F.);
#481 = FACE_BOUND('',#482,.F.);
#482 = EDGE_LOOP('',(#483,#484,#485,#493,#502,#510,#519,#527));
#483 = ORIENTED_EDGE('',*,*,#142,.F.);
#484 = ORIENTED_EDGE('',*,*,#224,.F.);
#485 = ORIENTED_EDGE('',*,*,#486,.F.);
#486 = EDGE_CURVE('',#487,#215,#489,.T.);
#487 = VERTEX_POINT('',#488);
#488 = CARTESIAN_POINT('',(155.2,5.91,0.));
#489 = LINE('',#490,#491);
#490 = CARTESIAN_POINT('',(155.2,5.91,0.));
#491 = VECTOR('',#492,1.);
#492 = DIRECTION('',(-1.,0.,0.));
#493 = ORIENTED_EDGE('',*,*,#494,.F.);
#494 = EDGE_CURVE('',#495,#487,#497,.T.);
#495 = VERTEX_POINT('',#496);
#496 = CARTESIAN_POINT('',(163.79,14.5,0.));
#497 = CIRCLE('',#498,8.59);
#498 = AXIS2_PLACEMENT_3D('',#499,#500,#501);
#499 = CARTESIAN_POINT('',(155.2,14.5,0.));
#500 = DIRECTION('',(0.,0.,-1.));
#501 = DIRECTION('',(1.,1.986976330425E-16,0.));
#502 = ORIENTED_EDGE('',*,*,#503,.F.);
#503 = EDGE_CURVE('',#504,#495,#506,.T.);
#504 = VERTEX_POINT('',#505);
#505 = CARTESIAN_POINT('',(163.79,35.8,0.));
#506 = LINE('',#507,#508);
#507 = CARTESIAN_POINT('',(163.79,35.8,0.));
#508 = VECTOR('',#509,1.);
#509 = DIRECTION('',(0.,-1.,0.));
#510 = ORIENTED_EDGE('',*,*,#511,.F.);
#511 = EDGE_CURVE('',#512,#504,#514,.T.);
#512 = VERTEX_POINT('',#513);
#513 = CARTESIAN_POINT('',(155.2,44.39,0.));
#514 = CIRCLE('',#515,8.59);
#515 = AXIS2_PLACEMENT_3D('',#516,#517,#518);
#516 = CARTESIAN_POINT('',(155.2,35.8,0.));
#517 = DIRECTION('',(0.,0.,-1.));
#518 = DIRECTION('',(0.,1.,0.));
#519 = ORIENTED_EDGE('',*,*,#520,.F.);
#520 = EDGE_CURVE('',#521,#512,#523,.T.);
#521 = VERTEX_POINT('',#522);
#522 = CARTESIAN_POINT('',(97.,44.39,0.));
#523 = LINE('',#524,#525);
#524 = CARTESIAN_POINT('',(97.,44.39,0.));
#525 = VECTOR('',#526,1.);
#526 = DIRECTION('',(1.,0.,0.));
#527 = ORIENTED_EDGE('',*,*,#528,.F.);
#528 = EDGE_CURVE('',#135,#521,#529,.T.);
#529 = CIRCLE('',#530,8.59);
#530 = AXIS2_PLACEMENT_3D('',#531,#532,#533);
#531 = CARTESIAN_POINT('',(97.,35.8,0.));
#532 = DIRECTION('',(0.,0.,-1.));
#533 = DIRECTION('',(-1.,0.,0.));
#534 = PLANE('',#535);
#535 = AXIS2_PLACEMENT_3D('',#536,#537,#538);
#536 = CARTESIAN_POINT('',(88.06,5.56,0.));
#537 = DIRECTION('',(0.,0.,1.));
#538 = DIRECTION('',(1.,0.,0.));
#539 = ADVANCED_FACE('',(#540),#551,.T.);
#540 = FACE_BOUND('',#541,.T.);
#541 = EDGE_LOOP('',(#542,#543,#544,#550));
#542 = ORIENTED_EDGE('',*,*,#134,.F.);
#543 = ORIENTED_EDGE('',*,*,#157,.T.);
#544 = ORIENTED_EDGE('',*,*,#545,.T.);
#545 = EDGE_CURVE('',#158,#521,#546,.T.);
#546 = LINE('',#547,#548);
#547 = CARTESIAN_POINT('',(97.,44.74,0.35));
#548 = VECTOR('',#549,1.);
#549 = DIRECTION('',(4.329780281177E-17,-0.707106781187,-0.707106781187)
  );
#550 = ORIENTED_EDGE('',*,*,#528,.F.);
#551 = CONICAL_SURFACE('',#552,8.94,0.785398163397);
#552 = AXIS2_PLACEMENT_3D('',#553,#554,#555);
#553 = CARTESIAN_POINT('',(97.,35.8,0.35));
#554 = DIRECTION('',(0.,0.,1.));
#555 = DIRECTION('',(-1.,0.,0.));
#556 = ADVANCED_FACE('',(#557,#582,#616),#650,.T.);
#557 = FACE_BOUND('',#558,.T.);
#558 = EDGE_LOOP('',(#559,#560,#568,#576));
#559 = ORIENTED_EDGE('',*,*,#166,.T.);
#560 = ORIENTED_EDGE('',*,*,#561,.T.);
#561 = EDGE_CURVE('',#167,#562,#564,.T.);
#562 = VERTEX_POINT('',#563);
#563 = CARTESIAN_POINT('',(155.2,44.74,13.15));
#564 = LINE('',#565,#566);
#565 = CARTESIAN_POINT('',(97.,44.74,13.15));
#566 = VECTOR('',#567,1.);
#567 = DIRECTION('',(1.,0.,0.));
#568 = ORIENTED_EDGE('',*,*,#569,.F.);
#569 = EDGE_CURVE('',#570,#562,#572,.T.);
#570 = VERTEX_POINT('',#571);
#571 = CARTESIAN_POINT('',(155.2,44.74,0.35));
#572 = LINE('',#573,#574);
#573 = CARTESIAN_POINT('',(155.2,44.74,0.));
#574 = VECTOR('',#575,1.);
#575 = DIRECTION('',(0.,0.,1.));
#576 = ORIENTED_EDGE('',*,*,#577,.F.);
#577 = EDGE_CURVE('',#158,#570,#578,.T.);
#578 = LINE('',#579,#580);
#579 = CARTESIAN_POINT('',(97.,44.74,0.35));
#580 = VECTOR('',#581,1.);
#581 = DIRECTION('',(1.,0.,0.));
#582 = FACE_BOUND('',#583,.T.);
#583 = EDGE_LOOP('',(#584,#594,#602,#610));
#584 = ORIENTED_EDGE('',*,*,#585,.T.);
#585 = EDGE_CURVE('',#586,#588,#590,.T.);
#586 = VERTEX_POINT('',#587);
#587 = CARTESIAN_POINT('',(105.,44.74,10.8));
#588 = VERTEX_POINT('',#589);
#589 = CARTESIAN_POINT('',(105.,44.74,6.2));
#590 = LINE('',#591,#592);
#591 = CARTESIAN_POINT('',(105.,44.74,4.25));
#592 = VECTOR('',#593,1.);
#593 = DIRECTION('',(0.,0.,-1.));
#594 = ORIENTED_EDGE('',*,*,#595,.T.);
#595 = EDGE_CURVE('',#588,#596,#598,.T.);
#596 = VERTEX_POINT('',#597);
#597 = CARTESIAN_POINT('',(109.,44.74,6.2));
#598 = LINE('',#599,#600);
#599 = CARTESIAN_POINT('',(105.,44.74,6.2));
#600 = VECTOR('',#601,1.);
#601 = DIRECTION('',(1.,0.,0.));
#602 = ORIENTED_EDGE('',*,*,#603,.F.);
#603 = EDGE_CURVE('',#604,#596,#606,.T.);
#604 = VERTEX_POINT('',#605);
#605 = CARTESIAN_POINT('',(109.,44.74,10.8));
#606 = LINE('',#607,#608);
#607 = CARTESIAN_POINT('',(109.,44.74,4.25));
#608 = VECTOR('',#609,1.);
#609 = DIRECTION('',(0.,0.,-1.));
#610 = ORIENTED_EDGE('',*,*,#611,.F.);
#611 = EDGE_CURVE('',#586,#604,#612,.T.);
#612 = LINE('',#613,#614);
#613 = CARTESIAN_POINT('',(105.,44.74,10.8));
#614 = VECTOR('',#615,1.);
#615 = DIRECTION('',(1.,0.,0.));
#616 = FACE_BOUND('',#617,.T.);
#617 = EDGE_LOOP('',(#618,#628,#636,#644));
#618 = ORIENTED_EDGE('',*,*,#619,.T.);
#619 = EDGE_CURVE('',#620,#622,#624,.T.);
#620 = VERTEX_POINT('',#621);
#621 = CARTESIAN_POINT('',(143.2,44.74,10.8));
#622 = VERTEX_POINT('',#623);
#623 = CARTESIAN_POINT('',(143.2,44.74,6.2));
#624 = LINE('',#625,#626);
#625 = CARTESIAN_POINT('',(143.2,44.74,4.25));
#626 = VECTOR('',#627,1.);
#627 = DIRECTION('',(0.,0.,-1.));
#628 = ORIENTED_EDGE('',*,*,#629,.T.);
#629 = EDGE_CURVE('',#622,#630,#632,.T.);
#630 = VERTEX_POINT('',#631);
#631 = CARTESIAN_POINT('',(147.2,44.74,6.2));
#632 = LINE('',#633,#634);
#633 = CARTESIAN_POINT('',(143.2,44.74,6.2));
#634 = VECTOR('',#635,1.);
#635 = DIRECTION('',(1.,0.,0.));
#636 = ORIENTED_EDGE('',*,*,#637,.F.);
#637 = EDGE_CURVE('',#638,#630,#640,.T.);
#638 = VERTEX_POINT('',#639);
#639 = CARTESIAN_POINT('',(147.2,44.74,10.8));
#640 = LINE('',#641,#642);
#641 = CARTESIAN_POINT('',(147.2,44.74,4.25));
#642 = VECTOR('',#643,1.);
#643 = DIRECTION('',(0.,0.,-1.));
#644 = ORIENTED_EDGE('',*,*,#645,.F.);
#645 = EDGE_CURVE('',#620,#638,#646,.T.);
#646 = LINE('',#647,#648);
#647 = CARTESIAN_POINT('',(143.2,44.74,10.8));
#648 = VECTOR('',#649,1.);
#649 = DIRECTION('',(1.,0.,0.));
#650 = PLANE('',#651);
#651 = AXIS2_PLACEMENT_3D('',#652,#653,#654);
#652 = CARTESIAN_POINT('',(88.06,44.74,0.));
#653 = DIRECTION('',(0.,1.,0.));
#654 = DIRECTION('',(0.,0.,1.));
#655 = ADVANCED_FACE('',(#656),#667,.F.);
#656 = FACE_BOUND('',#657,.F.);
#657 = EDGE_LOOP('',(#658,#664,#665,#666));
#658 = ORIENTED_EDGE('',*,*,#659,.F.);
#659 = EDGE_CURVE('',#241,#341,#660,.T.);
#660 = LINE('',#661,#662);
#661 = CARTESIAN_POINT('',(155.2,5.56,13.15));
#662 = VECTOR('',#663,1.);
#663 = DIRECTION('',(-1.837982465419E-16,0.707106781187,0.707106781187)
  );
#664 = ORIENTED_EDGE('',*,*,#240,.T.);
#665 = ORIENTED_EDGE('',*,*,#189,.T.);
#666 = ORIENTED_EDGE('',*,*,#340,.F.);
#667 = PLANE('',#668);
#668 = AXIS2_PLACEMENT_3D('',#669,#670,#671);
#669 = CARTESIAN_POINT('',(155.2,5.635,13.225));
#670 = DIRECTION('',(0.,0.707106781187,-0.707106781187));
#671 = DIRECTION('',(-1.,0.,0.));
#672 = ADVANCED_FACE('',(#673),#684,.T.);
#673 = FACE_BOUND('',#674,.T.);
#674 = EDGE_LOOP('',(#675,#681,#682,#683));
#675 = ORIENTED_EDGE('',*,*,#676,.F.);
#676 = EDGE_CURVE('',#249,#487,#677,.T.);
#677 = LINE('',#678,#679);
#678 = CARTESIAN_POINT('',(155.2,5.56,0.35));
#679 = VECTOR('',#680,1.);
#680 = DIRECTION('',(-1.837982465419E-16,0.707106781187,-0.707106781187)
  );
#681 = ORIENTED_EDGE('',*,*,#256,.T.);
#682 = ORIENTED_EDGE('',*,*,#214,.T.);
#683 = ORIENTED_EDGE('',*,*,#486,.F.);
#684 = PLANE('',#685);
#685 = AXIS2_PLACEMENT_3D('',#686,#687,#688);
#686 = CARTESIAN_POINT('',(155.2,5.735,0.175));
#687 = DIRECTION('',(0.,-0.707106781187,-0.707106781187));
#688 = DIRECTION('',(-1.,0.,0.));
#689 = ADVANCED_FACE('',(#690),#717,.T.);
#690 = FACE_BOUND('',#691,.F.);
#691 = EDGE_LOOP('',(#692,#702,#709,#710));
#692 = ORIENTED_EDGE('',*,*,#693,.F.);
#693 = EDGE_CURVE('',#694,#696,#698,.T.);
#694 = VERTEX_POINT('',#695);
#695 = CARTESIAN_POINT('',(164.14,14.5,0.35));
#696 = VERTEX_POINT('',#697);
#697 = CARTESIAN_POINT('',(164.14,14.5,13.15));
#698 = LINE('',#699,#700);
#699 = CARTESIAN_POINT('',(164.14,14.5,0.));
#700 = VECTOR('',#701,1.);
#701 = DIRECTION('',(0.,0.,1.));
#702 = ORIENTED_EDGE('',*,*,#703,.T.);
#703 = EDGE_CURVE('',#694,#249,#704,.T.);
#704 = CIRCLE('',#705,8.94);
#705 = AXIS2_PLACEMENT_3D('',#706,#707,#708);
#706 = CARTESIAN_POINT('',(155.2,14.5,0.35));
#707 = DIRECTION('',(0.,0.,-1.));
#708 = DIRECTION('',(1.,1.986976330425E-16,0.));
#709 = ORIENTED_EDGE('',*,*,#248,.T.);
#710 = ORIENTED_EDGE('',*,*,#711,.F.);
#711 = EDGE_CURVE('',#696,#241,#712,.T.);
#712 = CIRCLE('',#713,8.94);
#713 = AXIS2_PLACEMENT_3D('',#714,#715,#716);
#714 = CARTESIAN_POINT('',(155.2,14.5,13.15));
#715 = DIRECTION('',(0.,0.,-1.));
#716 = DIRECTION('',(1.,1.986976330425E-16,0.));
#717 = CYLINDRICAL_SURFACE('',#718,8.94);
#718 = AXIS2_PLACEMENT_3D('',#719,#720,#721);
#719 = CARTESIAN_POINT('',(155.2,14.5,0.));
#720 = DIRECTION('',(0.,0.,1.));
#721 = DIRECTION('',(1.,0.,0.));
#722 = ADVANCED_FACE('',(#723),#748,.T.);
#723 = FACE_BOUND('',#724,.T.);
#724 = EDGE_LOOP('',(#725,#726,#734,#742));
#725 = ORIENTED_EDGE('',*,*,#264,.F.);
#726 = ORIENTED_EDGE('',*,*,#727,.T.);
#727 = EDGE_CURVE('',#265,#728,#730,.T.);
#728 = VERTEX_POINT('',#729);
#729 = CARTESIAN_POINT('',(105.,5.32,7.));
#730 = LINE('',#731,#732);
#731 = CARTESIAN_POINT('',(105.,5.56,6.2));
#732 = VECTOR('',#733,1.);
#733 = DIRECTION('',(0.,-0.287347885566,0.957826285221));
#734 = ORIENTED_EDGE('',*,*,#735,.T.);
#735 = EDGE_CURVE('',#728,#736,#738,.T.);
#736 = VERTEX_POINT('',#737);
#737 = CARTESIAN_POINT('',(105.,5.32,10.));
#738 = LINE('',#739,#740);
#739 = CARTESIAN_POINT('',(105.,5.32,7.));
#740 = VECTOR('',#741,1.);
#741 = DIRECTION('',(0.,0.,1.));
#742 = ORIENTED_EDGE('',*,*,#743,.T.);
#743 = EDGE_CURVE('',#736,#267,#744,.T.);
#744 = LINE('',#745,#746);
#745 = CARTESIAN_POINT('',(105.,5.32,10.));
#746 = VECTOR('',#747,1.);
#747 = DIRECTION('',(0.,0.287347885566,0.957826285221));
#748 = PLANE('',#749);
#749 = AXIS2_PLACEMENT_3D('',#750,#751,#752);
#750 = CARTESIAN_POINT('',(105.,5.553764165647,8.5));
#751 = DIRECTION('',(-1.,-0.,-0.));
#752 = DIRECTION('',(0.,0.,-1.));
#753 = ADVANCED_FACE('',(#754),#772,.T.);
#754 = FACE_BOUND('',#755,.T.);
#755 = EDGE_LOOP('',(#756,#757,#765,#771));
#756 = ORIENTED_EDGE('',*,*,#274,.T.);
#757 = ORIENTED_EDGE('',*,*,#758,.T.);
#758 = EDGE_CURVE('',#275,#759,#761,.T.);
#759 = VERTEX_POINT('',#760);
#760 = CARTESIAN_POINT('',(109.,5.32,7.));
#761 = LINE('',#762,#763);
#762 = CARTESIAN_POINT('',(109.,5.56,6.2));
#763 = VECTOR('',#764,1.);
#764 = DIRECTION('',(0.,-0.287347885566,0.957826285221));
#765 = ORIENTED_EDGE('',*,*,#766,.F.);
#766 = EDGE_CURVE('',#728,#759,#767,.T.);
#767 = LINE('',#768,#769);
#768 = CARTESIAN_POINT('',(105.,5.32,7.));
#769 = VECTOR('',#770,1.);
#770 = DIRECTION('',(1.,0.,0.));
#771 = ORIENTED_EDGE('',*,*,#727,.F.);
#772 = PLANE('',#773);
#773 = AXIS2_PLACEMENT_3D('',#774,#775,#776);
#774 = CARTESIAN_POINT('',(105.,5.56,6.2));
#775 = DIRECTION('',(0.,-0.957826285221,-0.287347885566));
#776 = DIRECTION('',(0.,-0.287347885566,0.957826285221));
#777 = ADVANCED_FACE('',(#778),#796,.T.);
#778 = FACE_BOUND('',#779,.T.);
#779 = EDGE_LOOP('',(#780,#788,#794,#795));
#780 = ORIENTED_EDGE('',*,*,#781,.T.);
#781 = EDGE_CURVE('',#736,#782,#784,.T.);
#782 = VERTEX_POINT('',#783);
#783 = CARTESIAN_POINT('',(109.,5.32,10.));
#784 = LINE('',#785,#786);
#785 = CARTESIAN_POINT('',(105.,5.32,10.));
#786 = VECTOR('',#787,1.);
#787 = DIRECTION('',(1.,0.,0.));
#788 = ORIENTED_EDGE('',*,*,#789,.T.);
#789 = EDGE_CURVE('',#782,#283,#790,.T.);
#790 = LINE('',#791,#792);
#791 = CARTESIAN_POINT('',(109.,5.32,10.));
#792 = VECTOR('',#793,1.);
#793 = DIRECTION('',(0.,0.287347885566,0.957826285221));
#794 = ORIENTED_EDGE('',*,*,#290,.F.);
#795 = ORIENTED_EDGE('',*,*,#743,.F.);
#796 = PLANE('',#797);
#797 = AXIS2_PLACEMENT_3D('',#798,#799,#800);
#798 = CARTESIAN_POINT('',(105.,5.32,10.));
#799 = DIRECTION('',(0.,-0.957826285221,0.287347885566));
#800 = DIRECTION('',(0.,0.287347885566,0.957826285221));
#801 = ADVANCED_FACE('',(#802),#813,.F.);
#802 = FACE_BOUND('',#803,.F.);
#803 = EDGE_LOOP('',(#804,#805,#806,#812));
#804 = ORIENTED_EDGE('',*,*,#282,.F.);
#805 = ORIENTED_EDGE('',*,*,#758,.T.);
#806 = ORIENTED_EDGE('',*,*,#807,.T.);
#807 = EDGE_CURVE('',#759,#782,#808,.T.);
#808 = LINE('',#809,#810);
#809 = CARTESIAN_POINT('',(109.,5.32,7.));
#810 = VECTOR('',#811,1.);
#811 = DIRECTION('',(0.,0.,1.));
#812 = ORIENTED_EDGE('',*,*,#789,.T.);
#813 = PLANE('',#814);
#814 = AXIS2_PLACEMENT_3D('',#815,#816,#817);
#815 = CARTESIAN_POINT('',(109.,5.553764165647,8.5));
#816 = DIRECTION('',(-1.,-0.,-0.));
#817 = DIRECTION('',(0.,0.,-1.));
#818 = ADVANCED_FACE('',(#819),#844,.T.);
#819 = FACE_BOUND('',#820,.T.);
#820 = EDGE_LOOP('',(#821,#822,#830,#838));
#821 = ORIENTED_EDGE('',*,*,#298,.F.);
#822 = ORIENTED_EDGE('',*,*,#823,.T.);
#823 = EDGE_CURVE('',#299,#824,#826,.T.);
#824 = VERTEX_POINT('',#825);
#825 = CARTESIAN_POINT('',(143.2,5.32,7.));
#826 = LINE('',#827,#828);
#827 = CARTESIAN_POINT('',(143.2,5.56,6.2));
#828 = VECTOR('',#829,1.);
#829 = DIRECTION('',(0.,-0.287347885566,0.957826285221));
#830 = ORIENTED_EDGE('',*,*,#831,.T.);
#831 = EDGE_CURVE('',#824,#832,#834,.T.);
#832 = VERTEX_POINT('',#833);
#833 = CARTESIAN_POINT('',(143.2,5.32,10.));
#834 = LINE('',#835,#836);
#835 = CARTESIAN_POINT('',(143.2,5.32,7.));
#836 = VECTOR('',#837,1.);
#837 = DIRECTION('',(0.,0.,1.));
#838 = ORIENTED_EDGE('',*,*,#839,.T.);
#839 = EDGE_CURVE('',#832,#301,#840,.T.);
#840 = LINE('',#841,#842);
#841 = CARTESIAN_POINT('',(143.2,5.32,10.));
#842 = VECTOR('',#843,1.);
#843 = DIRECTION('',(0.,0.287347885566,0.957826285221));
#844 = PLANE('',#845);
#845 = AXIS2_PLACEMENT_3D('',#846,#847,#848);
#846 = CARTESIAN_POINT('',(143.2,5.553764165647,8.5));
#847 = DIRECTION('',(-1.,-0.,-0.));
#848 = DIRECTION('',(0.,0.,-1.));
#849 = ADVANCED_FACE('',(#850),#868,.T.);
#850 = FACE_BOUND('',#851,.T.);
#851 = EDGE_LOOP('',(#852,#860,#866,#867));
#852 = ORIENTED_EDGE('',*,*,#853,.T.);
#853 = EDGE_CURVE('',#832,#854,#856,.T.);
#854 = VERTEX_POINT('',#855);
#855 = CARTESIAN_POINT('',(147.2,5.32,10.));
#856 = LINE('',#857,#858);
#857 = CARTESIAN_POINT('',(143.2,5.32,10.));
#858 = VECTOR('',#859,1.);
#859 = DIRECTION('',(1.,0.,0.));
#860 = ORIENTED_EDGE('',*,*,#861,.T.);
#861 = EDGE_CURVE('',#854,#317,#862,.T.);
#862 = LINE('',#863,#864);
#863 = CARTESIAN_POINT('',(147.2,5.32,10.));
#864 = VECTOR('',#865,1.);
#865 = DIRECTION('',(0.,0.287347885566,0.957826285221));
#866 = ORIENTED_EDGE('',*,*,#324,.F.);
#867 = ORIENTED_EDGE('',*,*,#839,.F.);
#868 = PLANE('',#869);
#869 = AXIS2_PLACEMENT_3D('',#870,#871,#872);
#870 = CARTESIAN_POINT('',(143.2,5.32,10.));
#871 = DIRECTION('',(0.,-0.957826285221,0.287347885566));
#872 = DIRECTION('',(0.,0.287347885566,0.957826285221));
#873 = ADVANCED_FACE('',(#874),#892,.F.);
#874 = FACE_BOUND('',#875,.F.);
#875 = EDGE_LOOP('',(#876,#877,#885,#891));
#876 = ORIENTED_EDGE('',*,*,#316,.F.);
#877 = ORIENTED_EDGE('',*,*,#878,.T.);
#878 = EDGE_CURVE('',#309,#879,#881,.T.);
#879 = VERTEX_POINT('',#880);
#880 = CARTESIAN_POINT('',(147.2,5.32,7.));
#881 = LINE('',#882,#883);
#882 = CARTESIAN_POINT('',(147.2,5.56,6.2));
#883 = VECTOR('',#884,1.);
#884 = DIRECTION('',(0.,-0.287347885566,0.957826285221));
#885 = ORIENTED_EDGE('',*,*,#886,.T.);
#886 = EDGE_CURVE('',#879,#854,#887,.T.);
#887 = LINE('',#888,#889);
#888 = CARTESIAN_POINT('',(147.2,5.32,7.));
#889 = VECTOR('',#890,1.);
#890 = DIRECTION('',(0.,0.,1.));
#891 = ORIENTED_EDGE('',*,*,#861,.T.);
#892 = PLANE('',#893);
#893 = AXIS2_PLACEMENT_3D('',#894,#895,#896);
#894 = CARTESIAN_POINT('',(147.2,5.553764165647,8.5));
#895 = DIRECTION('',(-1.,-0.,-0.));
#896 = DIRECTION('',(0.,0.,-1.));
#897 = ADVANCED_FACE('',(#898),#909,.T.);
#898 = FACE_BOUND('',#899,.T.);
#899 = EDGE_LOOP('',(#900,#901,#902,#908));
#900 = ORIENTED_EDGE('',*,*,#308,.T.);
#901 = ORIENTED_EDGE('',*,*,#878,.T.);
#902 = ORIENTED_EDGE('',*,*,#903,.F.);
#903 = EDGE_CURVE('',#824,#879,#904,.T.);
#904 = LINE('',#905,#906);
#905 = CARTESIAN_POINT('',(143.2,5.32,7.));
#906 = VECTOR('',#907,1.);
#907 = DIRECTION('',(1.,0.,0.));
#908 = ORIENTED_EDGE('',*,*,#823,.F.);
#909 = PLANE('',#910);
#910 = AXIS2_PLACEMENT_3D('',#911,#912,#913);
#911 = CARTESIAN_POINT('',(143.2,5.56,6.2));
#912 = DIRECTION('',(0.,-0.957826285221,-0.287347885566));
#913 = DIRECTION('',(0.,-0.287347885566,0.957826285221));
#914 = ADVANCED_FACE('',(#915),#926,.T.);
#915 = FACE_BOUND('',#916,.F.);
#916 = EDGE_LOOP('',(#917,#918,#919,#925));
#917 = ORIENTED_EDGE('',*,*,#469,.F.);
#918 = ORIENTED_EDGE('',*,*,#561,.T.);
#919 = ORIENTED_EDGE('',*,*,#920,.T.);
#920 = EDGE_CURVE('',#562,#366,#921,.T.);
#921 = LINE('',#922,#923);
#922 = CARTESIAN_POINT('',(155.2,44.665,13.225));
#923 = VECTOR('',#924,1.);
#924 = DIRECTION('',(0.,-0.707106781187,0.707106781187));
#925 = ORIENTED_EDGE('',*,*,#374,.F.);
#926 = PLANE('',#927);
#927 = AXIS2_PLACEMENT_3D('',#928,#929,#930);
#928 = CARTESIAN_POINT('',(97.,44.665,13.225));
#929 = DIRECTION('',(0.,0.707106781187,0.707106781187));
#930 = DIRECTION('',(-1.,0.,0.));
#931 = ADVANCED_FACE('',(#932),#943,.T.);
#932 = FACE_BOUND('',#933,.F.);
#933 = EDGE_LOOP('',(#934,#940,#941,#942));
#934 = ORIENTED_EDGE('',*,*,#935,.F.);
#935 = EDGE_CURVE('',#696,#349,#936,.T.);
#936 = LINE('',#937,#938);
#937 = CARTESIAN_POINT('',(164.065,14.5,13.225));
#938 = VECTOR('',#939,1.);
#939 = DIRECTION('',(-0.707106781187,0.,0.707106781187));
#940 = ORIENTED_EDGE('',*,*,#711,.T.);
#941 = ORIENTED_EDGE('',*,*,#659,.T.);
#942 = ORIENTED_EDGE('',*,*,#348,.F.);
#943 = CONICAL_SURFACE('',#944,8.94,0.785398163397);
#944 = AXIS2_PLACEMENT_3D('',#945,#946,#947);
#945 = CARTESIAN_POINT('',(155.2,14.5,13.15));
#946 = DIRECTION('',(-0.,-0.,-1.));
#947 = DIRECTION('',(1.,1.986976330425E-16,0.));
#948 = ADVANCED_FACE('',(#949),#968,.T.);
#949 = FACE_BOUND('',#950,.F.);
#950 = EDGE_LOOP('',(#951,#952,#961,#967));
#951 = ORIENTED_EDGE('',*,*,#920,.F.);
#952 = ORIENTED_EDGE('',*,*,#953,.T.);
#953 = EDGE_CURVE('',#562,#954,#956,.T.);
#954 = VERTEX_POINT('',#955);
#955 = CARTESIAN_POINT('',(164.14,35.8,13.15));
#956 = CIRCLE('',#957,8.94);
#957 = AXIS2_PLACEMENT_3D('',#958,#959,#960);
#958 = CARTESIAN_POINT('',(155.2,35.8,13.15));
#959 = DIRECTION('',(0.,0.,-1.));
#960 = DIRECTION('',(0.,1.,0.));
#961 = ORIENTED_EDGE('',*,*,#962,.T.);
#962 = EDGE_CURVE('',#954,#358,#963,.T.);
#963 = LINE('',#964,#965);
#964 = CARTESIAN_POINT('',(164.14,35.8,13.15));
#965 = VECTOR('',#966,1.);
#966 = DIRECTION('',(-0.707106781187,-4.329780281178E-17,0.707106781187)
  );
#967 = ORIENTED_EDGE('',*,*,#365,.F.);
#968 = CONICAL_SURFACE('',#969,8.94,0.785398163397);
#969 = AXIS2_PLACEMENT_3D('',#970,#971,#972);
#970 = CARTESIAN_POINT('',(155.2,35.8,13.15));
#971 = DIRECTION('',(-0.,-0.,-1.));
#972 = DIRECTION('',(0.,1.,0.));
#973 = ADVANCED_FACE('',(#974),#985,.T.);
#974 = FACE_BOUND('',#975,.F.);
#975 = EDGE_LOOP('',(#976,#977,#983,#984));
#976 = ORIENTED_EDGE('',*,*,#962,.F.);
#977 = ORIENTED_EDGE('',*,*,#978,.T.);
#978 = EDGE_CURVE('',#954,#696,#979,.T.);
#979 = LINE('',#980,#981);
#980 = CARTESIAN_POINT('',(164.14,35.8,13.15));
#981 = VECTOR('',#982,1.);
#982 = DIRECTION('',(0.,-1.,0.));
#983 = ORIENTED_EDGE('',*,*,#935,.T.);
#984 = ORIENTED_EDGE('',*,*,#357,.F.);
#985 = PLANE('',#986);
#986 = AXIS2_PLACEMENT_3D('',#987,#988,#989);
#987 = CARTESIAN_POINT('',(164.065,35.8,13.225));
#988 = DIRECTION('',(0.707106781187,0.,0.707106781187));
#989 = DIRECTION('',(0.,1.,0.));
#990 = ADVANCED_FACE('',(#991),#1017,.F.);
#991 = FACE_BOUND('',#992,.T.);
#992 = EDGE_LOOP('',(#993,#1001,#1002,#1010));
#993 = ORIENTED_EDGE('',*,*,#994,.F.);
#994 = EDGE_CURVE('',#392,#995,#997,.T.);
#995 = VERTEX_POINT('',#996);
#996 = CARTESIAN_POINT('',(89.15,14.5,13.15));
#997 = LINE('',#998,#999);
#998 = CARTESIAN_POINT('',(89.15,14.5,13.15));
#999 = VECTOR('',#1000,1.);
#1000 = DIRECTION('',(0.707106781187,0.,-0.707106781187));
#1001 = ORIENTED_EDGE('',*,*,#391,.T.);
#1002 = ORIENTED_EDGE('',*,*,#1003,.T.);
#1003 = EDGE_CURVE('',#394,#1004,#1006,.T.);
#1004 = VERTEX_POINT('',#1005);
#1005 = CARTESIAN_POINT('',(97.,6.65,13.15));
#1006 = LINE('',#1007,#1008);
#1007 = CARTESIAN_POINT('',(97.,6.65,13.15));
#1008 = VECTOR('',#1009,1.);
#1009 = DIRECTION('',(4.329780281177E-17,0.707106781187,-0.707106781187)
  );
#1010 = ORIENTED_EDGE('',*,*,#1011,.F.);
#1011 = EDGE_CURVE('',#995,#1004,#1012,.T.);
#1012 = CIRCLE('',#1013,7.85);
#1013 = AXIS2_PLACEMENT_3D('',#1014,#1015,#1016);
#1014 = CARTESIAN_POINT('',(97.,14.5,13.15));
#1015 = DIRECTION('',(0.,0.,1.));
#1016 = DIRECTION('',(-1.,0.,0.));
#1017 = CONICAL_SURFACE('',#1018,7.85,0.785398163397);
#1018 = AXIS2_PLACEMENT_3D('',#1019,#1020,#1021);
#1019 = CARTESIAN_POINT('',(97.,14.5,13.15));
#1020 = DIRECTION('',(0.,0.,1.));
#1021 = DIRECTION('',(-1.,0.,0.));
#1022 = ADVANCED_FACE('',(#1023),#1041,.T.);
#1023 = FACE_BOUND('',#1024,.T.);
#1024 = EDGE_LOOP('',(#1025,#1033,#1034,#1035));
#1025 = ORIENTED_EDGE('',*,*,#1026,.F.);
#1026 = EDGE_CURVE('',#403,#1027,#1029,.T.);
#1027 = VERTEX_POINT('',#1028);
#1028 = CARTESIAN_POINT('',(89.15,35.8,13.15));
#1029 = LINE('',#1030,#1031);
#1030 = CARTESIAN_POINT('',(89.15,35.8,13.15));
#1031 = VECTOR('',#1032,1.);
#1032 = DIRECTION('',(0.707106781187,-2.033072253528E-16,-0.707106781187
    ));
#1033 = ORIENTED_EDGE('',*,*,#402,.T.);
#1034 = ORIENTED_EDGE('',*,*,#994,.T.);
#1035 = ORIENTED_EDGE('',*,*,#1036,.F.);
#1036 = EDGE_CURVE('',#1027,#995,#1037,.T.);
#1037 = LINE('',#1038,#1039);
#1038 = CARTESIAN_POINT('',(89.15,35.8,13.15));
#1039 = VECTOR('',#1040,1.);
#1040 = DIRECTION('',(0.,-1.,0.));
#1041 = PLANE('',#1042);
#1042 = AXIS2_PLACEMENT_3D('',#1043,#1044,#1045);
#1043 = CARTESIAN_POINT('',(89.075,35.8,13.225));
#1044 = DIRECTION('',(0.707106781187,0.,0.707106781187));
#1045 = DIRECTION('',(0.,-1.,0.));
#1046 = ADVANCED_FACE('',(#1047),#1065,.T.);
#1047 = FACE_BOUND('',#1048,.T.);
#1048 = EDGE_LOOP('',(#1049,#1050,#1051,#1059));
#1049 = ORIENTED_EDGE('',*,*,#1003,.F.);
#1050 = ORIENTED_EDGE('',*,*,#453,.T.);
#1051 = ORIENTED_EDGE('',*,*,#1052,.T.);
#1052 = EDGE_CURVE('',#445,#1053,#1055,.T.);
#1053 = VERTEX_POINT('',#1054);
#1054 = CARTESIAN_POINT('',(155.2,6.65,13.15));
#1055 = LINE('',#1056,#1057);
#1056 = CARTESIAN_POINT('',(155.2,6.575,13.225));
#1057 = VECTOR('',#1058,1.);
#1058 = DIRECTION('',(0.,0.707106781187,-0.707106781187));
#1059 = ORIENTED_EDGE('',*,*,#1060,.F.);
#1060 = EDGE_CURVE('',#1004,#1053,#1061,.T.);
#1061 = LINE('',#1062,#1063);
#1062 = CARTESIAN_POINT('',(97.,6.65,13.15));
#1063 = VECTOR('',#1064,1.);
#1064 = DIRECTION('',(1.,0.,0.));
#1065 = PLANE('',#1066);
#1066 = AXIS2_PLACEMENT_3D('',#1067,#1068,#1069);
#1067 = CARTESIAN_POINT('',(97.,6.575,13.225));
#1068 = DIRECTION('',(0.,0.707106781187,0.707106781187));
#1069 = DIRECTION('',(1.,0.,0.));
#1070 = ADVANCED_FACE('',(#1071),#1090,.F.);
#1071 = FACE_BOUND('',#1072,.T.);
#1072 = EDGE_LOOP('',(#1073,#1081,#1082,#1083));
#1073 = ORIENTED_EDGE('',*,*,#1074,.F.);
#1074 = EDGE_CURVE('',#411,#1075,#1077,.T.);
#1075 = VERTEX_POINT('',#1076);
#1076 = CARTESIAN_POINT('',(97.,43.65,13.15));
#1077 = LINE('',#1078,#1079);
#1078 = CARTESIAN_POINT('',(97.,43.725,13.225));
#1079 = VECTOR('',#1080,1.);
#1080 = DIRECTION('',(-0.,-0.707106781187,-0.707106781187));
#1081 = ORIENTED_EDGE('',*,*,#410,.T.);
#1082 = ORIENTED_EDGE('',*,*,#1026,.T.);
#1083 = ORIENTED_EDGE('',*,*,#1084,.F.);
#1084 = EDGE_CURVE('',#1075,#1027,#1085,.T.);
#1085 = CIRCLE('',#1086,7.85);
#1086 = AXIS2_PLACEMENT_3D('',#1087,#1088,#1089);
#1087 = CARTESIAN_POINT('',(97.,35.8,13.15));
#1088 = DIRECTION('',(0.,-0.,1.));
#1089 = DIRECTION('',(2.26287495465E-16,1.,0.));
#1090 = CONICAL_SURFACE('',#1091,7.85,0.785398163397);
#1091 = AXIS2_PLACEMENT_3D('',#1092,#1093,#1094);
#1092 = CARTESIAN_POINT('',(97.,35.8,13.15));
#1093 = DIRECTION('',(0.,0.,1.));
#1094 = DIRECTION('',(2.26287495465E-16,1.,0.));
#1095 = ADVANCED_FACE('',(#1096),#1115,.F.);
#1096 = FACE_BOUND('',#1097,.T.);
#1097 = EDGE_LOOP('',(#1098,#1099,#1100,#1108));
#1098 = ORIENTED_EDGE('',*,*,#1052,.F.);
#1099 = ORIENTED_EDGE('',*,*,#444,.T.);
#1100 = ORIENTED_EDGE('',*,*,#1101,.T.);
#1101 = EDGE_CURVE('',#437,#1102,#1104,.T.);
#1102 = VERTEX_POINT('',#1103);
#1103 = CARTESIAN_POINT('',(163.05,14.5,13.15));
#1104 = LINE('',#1105,#1106);
#1105 = CARTESIAN_POINT('',(163.05,14.5,13.15));
#1106 = VECTOR('',#1107,1.);
#1107 = DIRECTION('',(-0.707106781187,4.329780281178E-17,-0.707106781187
    ));
#1108 = ORIENTED_EDGE('',*,*,#1109,.F.);
#1109 = EDGE_CURVE('',#1053,#1102,#1110,.T.);
#1110 = CIRCLE('',#1111,7.85);
#1111 = AXIS2_PLACEMENT_3D('',#1112,#1113,#1114);
#1112 = CARTESIAN_POINT('',(155.2,14.5,13.15));
#1113 = DIRECTION('',(-0.,0.,1.));
#1114 = DIRECTION('',(0.,-1.,0.));
#1115 = CONICAL_SURFACE('',#1116,7.85,0.785398163397);
#1116 = AXIS2_PLACEMENT_3D('',#1117,#1118,#1119);
#1117 = CARTESIAN_POINT('',(155.2,14.5,13.15));
#1118 = DIRECTION('',(0.,0.,1.));
#1119 = DIRECTION('',(0.,-1.,0.));
#1120 = ADVANCED_FACE('',(#1121),#1139,.F.);
#1121 = FACE_BOUND('',#1122,.T.);
#1122 = EDGE_LOOP('',(#1123,#1131,#1132,#1133));
#1123 = ORIENTED_EDGE('',*,*,#1124,.F.);
#1124 = EDGE_CURVE('',#420,#1125,#1127,.T.);
#1125 = VERTEX_POINT('',#1126);
#1126 = CARTESIAN_POINT('',(155.2,43.65,13.15));
#1127 = LINE('',#1128,#1129);
#1128 = CARTESIAN_POINT('',(155.2,43.65,13.15));
#1129 = VECTOR('',#1130,1.);
#1130 = DIRECTION('',(-4.329780281178E-17,-0.707106781187,
    -0.707106781187));
#1131 = ORIENTED_EDGE('',*,*,#419,.T.);
#1132 = ORIENTED_EDGE('',*,*,#1074,.T.);
#1133 = ORIENTED_EDGE('',*,*,#1134,.F.);
#1134 = EDGE_CURVE('',#1125,#1075,#1135,.T.);
#1135 = LINE('',#1136,#1137);
#1136 = CARTESIAN_POINT('',(155.2,43.65,13.15));
#1137 = VECTOR('',#1138,1.);
#1138 = DIRECTION('',(-1.,0.,0.));
#1139 = PLANE('',#1140);
#1140 = AXIS2_PLACEMENT_3D('',#1141,#1142,#1143);
#1141 = CARTESIAN_POINT('',(155.2,43.725,13.225));
#1142 = DIRECTION('',(0.,0.707106781187,-0.707106781187));
#1143 = DIRECTION('',(1.,0.,0.));
#1144 = ADVANCED_FACE('',(#1145),#1163,.F.);
#1145 = FACE_BOUND('',#1146,.T.);
#1146 = EDGE_LOOP('',(#1147,#1148,#1149,#1157));
#1147 = ORIENTED_EDGE('',*,*,#1101,.F.);
#1148 = ORIENTED_EDGE('',*,*,#436,.T.);
#1149 = ORIENTED_EDGE('',*,*,#1150,.T.);
#1150 = EDGE_CURVE('',#428,#1151,#1153,.T.);
#1151 = VERTEX_POINT('',#1152);
#1152 = CARTESIAN_POINT('',(163.05,35.8,13.15));
#1153 = LINE('',#1154,#1155);
#1154 = CARTESIAN_POINT('',(163.125,35.8,13.225));
#1155 = VECTOR('',#1156,1.);
#1156 = DIRECTION('',(-0.707106781187,0.,-0.707106781187));
#1157 = ORIENTED_EDGE('',*,*,#1158,.F.);
#1158 = EDGE_CURVE('',#1102,#1151,#1159,.T.);
#1159 = LINE('',#1160,#1161);
#1160 = CARTESIAN_POINT('',(163.05,14.5,13.15));
#1161 = VECTOR('',#1162,1.);
#1162 = DIRECTION('',(0.,1.,0.));
#1163 = PLANE('',#1164);
#1164 = AXIS2_PLACEMENT_3D('',#1165,#1166,#1167);
#1165 = CARTESIAN_POINT('',(163.125,14.5,13.225));
#1166 = DIRECTION('',(0.707106781187,0.,-0.707106781187));
#1167 = DIRECTION('',(-0.,-1.,-0.));
#1168 = ADVANCED_FACE('',(#1169),#1181,.F.);
#1169 = FACE_BOUND('',#1170,.T.);
#1170 = EDGE_LOOP('',(#1171,#1172,#1173,#1174));
#1171 = ORIENTED_EDGE('',*,*,#1150,.F.);
#1172 = ORIENTED_EDGE('',*,*,#427,.T.);
#1173 = ORIENTED_EDGE('',*,*,#1124,.T.);
#1174 = ORIENTED_EDGE('',*,*,#1175,.F.);
#1175 = EDGE_CURVE('',#1151,#1125,#1176,.T.);
#1176 = CIRCLE('',#1177,7.85);
#1177 = AXIS2_PLACEMENT_3D('',#1178,#1179,#1180);
#1178 = CARTESIAN_POINT('',(155.2,35.8,13.15));
#1179 = DIRECTION('',(0.,0.,1.));
#1180 = DIRECTION('',(1.,0.,0.));
#1181 = CONICAL_SURFACE('',#1182,7.85,0.785398163397);
#1182 = AXIS2_PLACEMENT_3D('',#1183,#1184,#1185);
#1183 = CARTESIAN_POINT('',(155.2,35.8,13.15));
#1184 = DIRECTION('',(0.,0.,1.));
#1185 = DIRECTION('',(1.,0.,0.));
#1186 = ADVANCED_FACE('',(#1187),#1198,.F.);
#1187 = FACE_BOUND('',#1188,.T.);
#1188 = EDGE_LOOP('',(#1189,#1190,#1191,#1197));
#1189 = ORIENTED_EDGE('',*,*,#545,.F.);
#1190 = ORIENTED_EDGE('',*,*,#577,.T.);
#1191 = ORIENTED_EDGE('',*,*,#1192,.T.);
#1192 = EDGE_CURVE('',#570,#512,#1193,.T.);
#1193 = LINE('',#1194,#1195);
#1194 = CARTESIAN_POINT('',(155.2,44.565,0.175));
#1195 = VECTOR('',#1196,1.);
#1196 = DIRECTION('',(-0.,-0.707106781187,-0.707106781187));
#1197 = ORIENTED_EDGE('',*,*,#520,.F.);
#1198 = PLANE('',#1199);
#1199 = AXIS2_PLACEMENT_3D('',#1200,#1201,#1202);
#1200 = CARTESIAN_POINT('',(97.,44.565,0.175));
#1201 = DIRECTION('',(-3.473694424484E-18,-0.707106781187,0.707106781187
    ));
#1202 = DIRECTION('',(-1.,2.456272883323E-18,-2.456272883323E-18));
#1203 = ADVANCED_FACE('',(#1204),#1215,.T.);
#1204 = FACE_BOUND('',#1205,.T.);
#1205 = EDGE_LOOP('',(#1206,#1212,#1213,#1214));
#1206 = ORIENTED_EDGE('',*,*,#1207,.F.);
#1207 = EDGE_CURVE('',#694,#495,#1208,.T.);
#1208 = LINE('',#1209,#1210);
#1209 = CARTESIAN_POINT('',(163.965,14.5,0.175));
#1210 = VECTOR('',#1211,1.);
#1211 = DIRECTION('',(-0.707106781187,-0.,-0.707106781187));
#1212 = ORIENTED_EDGE('',*,*,#703,.T.);
#1213 = ORIENTED_EDGE('',*,*,#676,.T.);
#1214 = ORIENTED_EDGE('',*,*,#494,.F.);
#1215 = CONICAL_SURFACE('',#1216,8.94,0.785398163397);
#1216 = AXIS2_PLACEMENT_3D('',#1217,#1218,#1219);
#1217 = CARTESIAN_POINT('',(155.2,14.5,0.35));
#1218 = DIRECTION('',(0.,0.,1.));
#1219 = DIRECTION('',(1.,1.986976330425E-16,0.));
#1220 = ADVANCED_FACE('',(#1221),#1240,.T.);
#1221 = FACE_BOUND('',#1222,.T.);
#1222 = EDGE_LOOP('',(#1223,#1224,#1233,#1239));
#1223 = ORIENTED_EDGE('',*,*,#1192,.F.);
#1224 = ORIENTED_EDGE('',*,*,#1225,.T.);
#1225 = EDGE_CURVE('',#570,#1226,#1228,.T.);
#1226 = VERTEX_POINT('',#1227);
#1227 = CARTESIAN_POINT('',(164.14,35.8,0.35));
#1228 = CIRCLE('',#1229,8.94);
#1229 = AXIS2_PLACEMENT_3D('',#1230,#1231,#1232);
#1230 = CARTESIAN_POINT('',(155.2,35.8,0.35));
#1231 = DIRECTION('',(0.,0.,-1.));
#1232 = DIRECTION('',(0.,1.,0.));
#1233 = ORIENTED_EDGE('',*,*,#1234,.T.);
#1234 = EDGE_CURVE('',#1226,#504,#1235,.T.);
#1235 = LINE('',#1236,#1237);
#1236 = CARTESIAN_POINT('',(164.14,35.8,0.35));
#1237 = VECTOR('',#1238,1.);
#1238 = DIRECTION('',(-0.707106781187,-4.329780281177E-17,
    -0.707106781187));
#1239 = ORIENTED_EDGE('',*,*,#511,.F.);
#1240 = CONICAL_SURFACE('',#1241,8.94,0.785398163397);
#1241 = AXIS2_PLACEMENT_3D('',#1242,#1243,#1244);
#1242 = CARTESIAN_POINT('',(155.2,35.8,0.35));
#1243 = DIRECTION('',(0.,0.,1.));
#1244 = DIRECTION('',(0.,1.,0.));
#1245 = ADVANCED_FACE('',(#1246),#1257,.F.);
#1246 = FACE_BOUND('',#1247,.T.);
#1247 = EDGE_LOOP('',(#1248,#1249,#1255,#1256));
#1248 = ORIENTED_EDGE('',*,*,#1234,.F.);
#1249 = ORIENTED_EDGE('',*,*,#1250,.T.);
#1250 = EDGE_CURVE('',#1226,#694,#1251,.T.);
#1251 = LINE('',#1252,#1253);
#1252 = CARTESIAN_POINT('',(164.14,35.8,0.35));
#1253 = VECTOR('',#1254,1.);
#1254 = DIRECTION('',(0.,-1.,0.));
#1255 = ORIENTED_EDGE('',*,*,#1207,.T.);
#1256 = ORIENTED_EDGE('',*,*,#503,.F.);
#1257 = PLANE('',#1258);
#1258 = AXIS2_PLACEMENT_3D('',#1259,#1260,#1261);
#1259 = CARTESIAN_POINT('',(163.965,35.8,0.175));
#1260 = DIRECTION('',(-0.707106781187,3.473694424484E-18,0.707106781187)
  );
#1261 = DIRECTION('',(2.456272883323E-18,1.,-2.456272883323E-18));
#1262 = ADVANCED_FACE('',(#1263),#1274,.T.);
#1263 = FACE_BOUND('',#1264,.T.);
#1264 = EDGE_LOOP('',(#1265,#1271,#1272,#1273));
#1265 = ORIENTED_EDGE('',*,*,#1266,.F.);
#1266 = EDGE_CURVE('',#1226,#954,#1267,.T.);
#1267 = LINE('',#1268,#1269);
#1268 = CARTESIAN_POINT('',(164.14,35.8,0.));
#1269 = VECTOR('',#1270,1.);
#1270 = DIRECTION('',(0.,0.,1.));
#1271 = ORIENTED_EDGE('',*,*,#1225,.F.);
#1272 = ORIENTED_EDGE('',*,*,#569,.T.);
#1273 = ORIENTED_EDGE('',*,*,#953,.T.);
#1274 = CYLINDRICAL_SURFACE('',#1275,8.94);
#1275 = AXIS2_PLACEMENT_3D('',#1276,#1277,#1278);
#1276 = CARTESIAN_POINT('',(155.2,35.8,0.));
#1277 = DIRECTION('',(0.,0.,1.));
#1278 = DIRECTION('',(1.,0.,0.));
#1279 = ADVANCED_FACE('',(#1280),#1305,.F.);
#1280 = FACE_BOUND('',#1281,.F.);
#1281 = EDGE_LOOP('',(#1282,#1283,#1291,#1299));
#1282 = ORIENTED_EDGE('',*,*,#585,.T.);
#1283 = ORIENTED_EDGE('',*,*,#1284,.T.);
#1284 = EDGE_CURVE('',#588,#1285,#1287,.T.);
#1285 = VERTEX_POINT('',#1286);
#1286 = CARTESIAN_POINT('',(105.,44.98,7.));
#1287 = LINE('',#1288,#1289);
#1288 = CARTESIAN_POINT('',(105.,44.74,6.2));
#1289 = VECTOR('',#1290,1.);
#1290 = DIRECTION('',(0.,0.287347885566,0.957826285221));
#1291 = ORIENTED_EDGE('',*,*,#1292,.T.);
#1292 = EDGE_CURVE('',#1285,#1293,#1295,.T.);
#1293 = VERTEX_POINT('',#1294);
#1294 = CARTESIAN_POINT('',(105.,44.98,10.));
#1295 = LINE('',#1296,#1297);
#1296 = CARTESIAN_POINT('',(105.,44.98,7.));
#1297 = VECTOR('',#1298,1.);
#1298 = DIRECTION('',(0.,0.,1.));
#1299 = ORIENTED_EDGE('',*,*,#1300,.T.);
#1300 = EDGE_CURVE('',#1293,#586,#1301,.T.);
#1301 = LINE('',#1302,#1303);
#1302 = CARTESIAN_POINT('',(105.,44.98,10.));
#1303 = VECTOR('',#1304,1.);
#1304 = DIRECTION('',(0.,-0.287347885566,0.957826285221));
#1305 = PLANE('',#1306);
#1306 = AXIS2_PLACEMENT_3D('',#1307,#1308,#1309);
#1307 = CARTESIAN_POINT('',(105.,44.746235834353,8.5));
#1308 = DIRECTION('',(1.,0.,0.));
#1309 = DIRECTION('',(0.,0.,1.));
#1310 = ADVANCED_FACE('',(#1311),#1329,.F.);
#1311 = FACE_BOUND('',#1312,.F.);
#1312 = EDGE_LOOP('',(#1313,#1321,#1327,#1328));
#1313 = ORIENTED_EDGE('',*,*,#1314,.T.);
#1314 = EDGE_CURVE('',#1293,#1315,#1317,.T.);
#1315 = VERTEX_POINT('',#1316);
#1316 = CARTESIAN_POINT('',(109.,44.98,10.));
#1317 = LINE('',#1318,#1319);
#1318 = CARTESIAN_POINT('',(105.,44.98,10.));
#1319 = VECTOR('',#1320,1.);
#1320 = DIRECTION('',(1.,0.,0.));
#1321 = ORIENTED_EDGE('',*,*,#1322,.T.);
#1322 = EDGE_CURVE('',#1315,#604,#1323,.T.);
#1323 = LINE('',#1324,#1325);
#1324 = CARTESIAN_POINT('',(109.,44.98,10.));
#1325 = VECTOR('',#1326,1.);
#1326 = DIRECTION('',(0.,-0.287347885566,0.957826285221));
#1327 = ORIENTED_EDGE('',*,*,#611,.F.);
#1328 = ORIENTED_EDGE('',*,*,#1300,.F.);
#1329 = PLANE('',#1330);
#1330 = AXIS2_PLACEMENT_3D('',#1331,#1332,#1333);
#1331 = CARTESIAN_POINT('',(105.,44.98,10.));
#1332 = DIRECTION('',(0.,-0.957826285221,-0.287347885566));
#1333 = DIRECTION('',(0.,-0.287347885566,0.957826285221));
#1334 = ADVANCED_FACE('',(#1335),#1353,.F.);
#1335 = FACE_BOUND('',#1336,.F.);
#1336 = EDGE_LOOP('',(#1337,#1338,#1346,#1352));
#1337 = ORIENTED_EDGE('',*,*,#595,.T.);
#1338 = ORIENTED_EDGE('',*,*,#1339,.T.);
#1339 = EDGE_CURVE('',#596,#1340,#1342,.T.);
#1340 = VERTEX_POINT('',#1341);
#1341 = CARTESIAN_POINT('',(109.,44.98,7.));
#1342 = LINE('',#1343,#1344);
#1343 = CARTESIAN_POINT('',(109.,44.74,6.2));
#1344 = VECTOR('',#1345,1.);
#1345 = DIRECTION('',(0.,0.287347885566,0.957826285221));
#1346 = ORIENTED_EDGE('',*,*,#1347,.F.);
#1347 = EDGE_CURVE('',#1285,#1340,#1348,.T.);
#1348 = LINE('',#1349,#1350);
#1349 = CARTESIAN_POINT('',(105.,44.98,7.));
#1350 = VECTOR('',#1351,1.);
#1351 = DIRECTION('',(1.,0.,0.));
#1352 = ORIENTED_EDGE('',*,*,#1284,.F.);
#1353 = PLANE('',#1354);
#1354 = AXIS2_PLACEMENT_3D('',#1355,#1356,#1357);
#1355 = CARTESIAN_POINT('',(105.,44.74,6.2));
#1356 = DIRECTION('',(0.,-0.957826285221,0.287347885566));
#1357 = DIRECTION('',(0.,0.287347885566,0.957826285221));
#1358 = ADVANCED_FACE('',(#1359),#1370,.T.);
#1359 = FACE_BOUND('',#1360,.T.);
#1360 = EDGE_LOOP('',(#1361,#1362,#1363,#1369));
#1361 = ORIENTED_EDGE('',*,*,#603,.T.);
#1362 = ORIENTED_EDGE('',*,*,#1339,.T.);
#1363 = ORIENTED_EDGE('',*,*,#1364,.T.);
#1364 = EDGE_CURVE('',#1340,#1315,#1365,.T.);
#1365 = LINE('',#1366,#1367);
#1366 = CARTESIAN_POINT('',(109.,44.98,7.));
#1367 = VECTOR('',#1368,1.);
#1368 = DIRECTION('',(0.,0.,1.));
#1369 = ORIENTED_EDGE('',*,*,#1322,.T.);
#1370 = PLANE('',#1371);
#1371 = AXIS2_PLACEMENT_3D('',#1372,#1373,#1374);
#1372 = CARTESIAN_POINT('',(109.,44.746235834353,8.5));
#1373 = DIRECTION('',(1.,0.,0.));
#1374 = DIRECTION('',(0.,0.,1.));
#1375 = ADVANCED_FACE('',(#1376),#1401,.F.);
#1376 = FACE_BOUND('',#1377,.F.);
#1377 = EDGE_LOOP('',(#1378,#1379,#1387,#1395));
#1378 = ORIENTED_EDGE('',*,*,#619,.T.);
#1379 = ORIENTED_EDGE('',*,*,#1380,.T.);
#1380 = EDGE_CURVE('',#622,#1381,#1383,.T.);
#1381 = VERTEX_POINT('',#1382);
#1382 = CARTESIAN_POINT('',(143.2,44.98,7.));
#1383 = LINE('',#1384,#1385);
#1384 = CARTESIAN_POINT('',(143.2,44.74,6.2));
#1385 = VECTOR('',#1386,1.);
#1386 = DIRECTION('',(0.,0.287347885566,0.957826285221));
#1387 = ORIENTED_EDGE('',*,*,#1388,.T.);
#1388 = EDGE_CURVE('',#1381,#1389,#1391,.T.);
#1389 = VERTEX_POINT('',#1390);
#1390 = CARTESIAN_POINT('',(143.2,44.98,10.));
#1391 = LINE('',#1392,#1393);
#1392 = CARTESIAN_POINT('',(143.2,44.98,7.));
#1393 = VECTOR('',#1394,1.);
#1394 = DIRECTION('',(0.,0.,1.));
#1395 = ORIENTED_EDGE('',*,*,#1396,.T.);
#1396 = EDGE_CURVE('',#1389,#620,#1397,.T.);
#1397 = LINE('',#1398,#1399);
#1398 = CARTESIAN_POINT('',(143.2,44.98,10.));
#1399 = VECTOR('',#1400,1.);
#1400 = DIRECTION('',(0.,-0.287347885566,0.957826285221));
#1401 = PLANE('',#1402);
#1402 = AXIS2_PLACEMENT_3D('',#1403,#1404,#1405);
#1403 = CARTESIAN_POINT('',(143.2,44.746235834353,8.5));
#1404 = DIRECTION('',(1.,0.,0.));
#1405 = DIRECTION('',(0.,0.,1.));
#1406 = ADVANCED_FACE('',(#1407),#1425,.F.);
#1407 = FACE_BOUND('',#1408,.F.);
#1408 = EDGE_LOOP('',(#1409,#1417,#1423,#1424));
#1409 = ORIENTED_EDGE('',*,*,#1410,.T.);
#1410 = EDGE_CURVE('',#1389,#1411,#1413,.T.);
#1411 = VERTEX_POINT('',#1412);
#1412 = CARTESIAN_POINT('',(147.2,44.98,10.));
#1413 = LINE('',#1414,#1415);
#1414 = CARTESIAN_POINT('',(143.2,44.98,10.));
#1415 = VECTOR('',#1416,1.);
#1416 = DIRECTION('',(1.,0.,0.));
#1417 = ORIENTED_EDGE('',*,*,#1418,.T.);
#1418 = EDGE_CURVE('',#1411,#638,#1419,.T.);
#1419 = LINE('',#1420,#1421);
#1420 = CARTESIAN_POINT('',(147.2,44.98,10.));
#1421 = VECTOR('',#1422,1.);
#1422 = DIRECTION('',(0.,-0.287347885566,0.957826285221));
#1423 = ORIENTED_EDGE('',*,*,#645,.F.);
#1424 = ORIENTED_EDGE('',*,*,#1396,.F.);
#1425 = PLANE('',#1426);
#1426 = AXIS2_PLACEMENT_3D('',#1427,#1428,#1429);
#1427 = CARTESIAN_POINT('',(143.2,44.98,10.));
#1428 = DIRECTION('',(0.,-0.957826285221,-0.287347885566));
#1429 = DIRECTION('',(0.,-0.287347885566,0.957826285221));
#1430 = ADVANCED_FACE('',(#1431),#1449,.T.);
#1431 = FACE_BOUND('',#1432,.T.);
#1432 = EDGE_LOOP('',(#1433,#1434,#1442,#1448));
#1433 = ORIENTED_EDGE('',*,*,#637,.T.);
#1434 = ORIENTED_EDGE('',*,*,#1435,.T.);
#1435 = EDGE_CURVE('',#630,#1436,#1438,.T.);
#1436 = VERTEX_POINT('',#1437);
#1437 = CARTESIAN_POINT('',(147.2,44.98,7.));
#1438 = LINE('',#1439,#1440);
#1439 = CARTESIAN_POINT('',(147.2,44.74,6.2));
#1440 = VECTOR('',#1441,1.);
#1441 = DIRECTION('',(0.,0.287347885566,0.957826285221));
#1442 = ORIENTED_EDGE('',*,*,#1443,.T.);
#1443 = EDGE_CURVE('',#1436,#1411,#1444,.T.);
#1444 = LINE('',#1445,#1446);
#1445 = CARTESIAN_POINT('',(147.2,44.98,7.));
#1446 = VECTOR('',#1447,1.);
#1447 = DIRECTION('',(0.,0.,1.));
#1448 = ORIENTED_EDGE('',*,*,#1418,.T.);
#1449 = PLANE('',#1450);
#1450 = AXIS2_PLACEMENT_3D('',#1451,#1452,#1453);
#1451 = CARTESIAN_POINT('',(147.2,44.746235834353,8.5));
#1452 = DIRECTION('',(1.,0.,0.));
#1453 = DIRECTION('',(0.,0.,1.));
#1454 = ADVANCED_FACE('',(#1455),#1466,.F.);
#1455 = FACE_BOUND('',#1456,.F.);
#1456 = EDGE_LOOP('',(#1457,#1458,#1459,#1465));
#1457 = ORIENTED_EDGE('',*,*,#629,.T.);
#1458 = ORIENTED_EDGE('',*,*,#1435,.T.);
#1459 = ORIENTED_EDGE('',*,*,#1460,.F.);
#1460 = EDGE_CURVE('',#1381,#1436,#1461,.T.);
#1461 = LINE('',#1462,#1463);
#1462 = CARTESIAN_POINT('',(143.2,44.98,7.));
#1463 = VECTOR('',#1464,1.);
#1464 = DIRECTION('',(1.,0.,0.));
#1465 = ORIENTED_EDGE('',*,*,#1380,.F.);
#1466 = PLANE('',#1467);
#1467 = AXIS2_PLACEMENT_3D('',#1468,#1469,#1470);
#1468 = CARTESIAN_POINT('',(143.2,44.74,6.2));
#1469 = DIRECTION('',(0.,-0.957826285221,0.287347885566));
#1470 = DIRECTION('',(0.,0.287347885566,0.957826285221));
#1471 = ADVANCED_FACE('',(#1472),#1478,.T.);
#1472 = FACE_BOUND('',#1473,.T.);
#1473 = EDGE_LOOP('',(#1474,#1475,#1476,#1477));
#1474 = ORIENTED_EDGE('',*,*,#693,.F.);
#1475 = ORIENTED_EDGE('',*,*,#1250,.F.);
#1476 = ORIENTED_EDGE('',*,*,#1266,.T.);
#1477 = ORIENTED_EDGE('',*,*,#978,.T.);
#1478 = PLANE('',#1479);
#1479 = AXIS2_PLACEMENT_3D('',#1480,#1481,#1482);
#1480 = CARTESIAN_POINT('',(164.14,5.56,0.));
#1481 = DIRECTION('',(1.,0.,0.));
#1482 = DIRECTION('',(0.,0.,1.));
#1483 = ADVANCED_FACE('',(#1484),#1490,.T.);
#1484 = FACE_BOUND('',#1485,.T.);
#1485 = EDGE_LOOP('',(#1486,#1487,#1488,#1489));
#1486 = ORIENTED_EDGE('',*,*,#766,.T.);
#1487 = ORIENTED_EDGE('',*,*,#807,.T.);
#1488 = ORIENTED_EDGE('',*,*,#781,.F.);
#1489 = ORIENTED_EDGE('',*,*,#735,.F.);
#1490 = PLANE('',#1491);
#1491 = AXIS2_PLACEMENT_3D('',#1492,#1493,#1494);
#1492 = CARTESIAN_POINT('',(105.,5.32,7.));
#1493 = DIRECTION('',(0.,-1.,0.));
#1494 = DIRECTION('',(0.,0.,1.));
#1495 = ADVANCED_FACE('',(#1496),#1502,.T.);
#1496 = FACE_BOUND('',#1497,.T.);
#1497 = EDGE_LOOP('',(#1498,#1499,#1500,#1501));
#1498 = ORIENTED_EDGE('',*,*,#903,.T.);
#1499 = ORIENTED_EDGE('',*,*,#886,.T.);
#1500 = ORIENTED_EDGE('',*,*,#853,.F.);
#1501 = ORIENTED_EDGE('',*,*,#831,.F.);
#1502 = PLANE('',#1503);
#1503 = AXIS2_PLACEMENT_3D('',#1504,#1505,#1506);
#1504 = CARTESIAN_POINT('',(143.2,5.32,7.));
#1505 = DIRECTION('',(0.,-1.,0.));
#1506 = DIRECTION('',(0.,0.,1.));
#1507 = ADVANCED_FACE('',(#1508),#1534,.F.);
#1508 = FACE_BOUND('',#1509,.F.);
#1509 = EDGE_LOOP('',(#1510,#1518,#1527,#1533));
#1510 = ORIENTED_EDGE('',*,*,#1511,.F.);
#1511 = EDGE_CURVE('',#1512,#995,#1514,.T.);
#1512 = VERTEX_POINT('',#1513);
#1513 = CARTESIAN_POINT('',(89.15,14.5,1.2));
#1514 = LINE('',#1515,#1516);
#1515 = CARTESIAN_POINT('',(89.15,14.5,1.2));
#1516 = VECTOR('',#1517,1.);
#1517 = DIRECTION('',(0.,0.,1.));
#1518 = ORIENTED_EDGE('',*,*,#1519,.T.);
#1519 = EDGE_CURVE('',#1512,#1520,#1522,.T.);
#1520 = VERTEX_POINT('',#1521);
#1521 = CARTESIAN_POINT('',(97.,6.65,1.2));
#1522 = CIRCLE('',#1523,7.85);
#1523 = AXIS2_PLACEMENT_3D('',#1524,#1525,#1526);
#1524 = CARTESIAN_POINT('',(97.,14.5,1.2));
#1525 = DIRECTION('',(-0.,0.,1.));
#1526 = DIRECTION('',(0.,-1.,0.));
#1527 = ORIENTED_EDGE('',*,*,#1528,.T.);
#1528 = EDGE_CURVE('',#1520,#1004,#1529,.T.);
#1529 = LINE('',#1530,#1531);
#1530 = CARTESIAN_POINT('',(97.,6.65,1.2));
#1531 = VECTOR('',#1532,1.);
#1532 = DIRECTION('',(0.,0.,1.));
#1533 = ORIENTED_EDGE('',*,*,#1011,.F.);
#1534 = CYLINDRICAL_SURFACE('',#1535,7.85);
#1535 = AXIS2_PLACEMENT_3D('',#1536,#1537,#1538);
#1536 = CARTESIAN_POINT('',(97.,14.5,1.2));
#1537 = DIRECTION('',(0.,0.,1.));
#1538 = DIRECTION('',(-1.,0.,0.));
#1539 = ADVANCED_FACE('',(#1540),#1558,.T.);
#1540 = FACE_BOUND('',#1541,.T.);
#1541 = EDGE_LOOP('',(#1542,#1550,#1551,#1552));
#1542 = ORIENTED_EDGE('',*,*,#1543,.T.);
#1543 = EDGE_CURVE('',#1544,#1027,#1546,.T.);
#1544 = VERTEX_POINT('',#1545);
#1545 = CARTESIAN_POINT('',(89.15,35.8,1.2));
#1546 = LINE('',#1547,#1548);
#1547 = CARTESIAN_POINT('',(89.15,35.8,1.2));
#1548 = VECTOR('',#1549,1.);
#1549 = DIRECTION('',(0.,0.,1.));
#1550 = ORIENTED_EDGE('',*,*,#1036,.T.);
#1551 = ORIENTED_EDGE('',*,*,#1511,.F.);
#1552 = ORIENTED_EDGE('',*,*,#1553,.T.);
#1553 = EDGE_CURVE('',#1512,#1544,#1554,.T.);
#1554 = LINE('',#1555,#1556);
#1555 = CARTESIAN_POINT('',(89.15,6.65,1.2));
#1556 = VECTOR('',#1557,1.);
#1557 = DIRECTION('',(0.,1.,0.));
#1558 = PLANE('',#1559);
#1559 = AXIS2_PLACEMENT_3D('',#1560,#1561,#1562);
#1560 = CARTESIAN_POINT('',(89.15,6.65,1.2));
#1561 = DIRECTION('',(1.,0.,0.));
#1562 = DIRECTION('',(0.,0.,1.));
#1563 = ADVANCED_FACE('',(#1564),#1582,.T.);
#1564 = FACE_BOUND('',#1565,.T.);
#1565 = EDGE_LOOP('',(#1566,#1574,#1580,#1581));
#1566 = ORIENTED_EDGE('',*,*,#1567,.F.);
#1567 = EDGE_CURVE('',#1568,#1053,#1570,.T.);
#1568 = VERTEX_POINT('',#1569);
#1569 = CARTESIAN_POINT('',(155.2,6.65,1.2));
#1570 = LINE('',#1571,#1572);
#1571 = CARTESIAN_POINT('',(155.2,6.65,1.2));
#1572 = VECTOR('',#1573,1.);
#1573 = DIRECTION('',(0.,0.,1.));
#1574 = ORIENTED_EDGE('',*,*,#1575,.F.);
#1575 = EDGE_CURVE('',#1520,#1568,#1576,.T.);
#1576 = LINE('',#1577,#1578);
#1577 = CARTESIAN_POINT('',(89.15,6.65,1.2));
#1578 = VECTOR('',#1579,1.);
#1579 = DIRECTION('',(1.,0.,0.));
#1580 = ORIENTED_EDGE('',*,*,#1528,.T.);
#1581 = ORIENTED_EDGE('',*,*,#1060,.T.);
#1582 = PLANE('',#1583);
#1583 = AXIS2_PLACEMENT_3D('',#1584,#1585,#1586);
#1584 = CARTESIAN_POINT('',(89.15,6.65,1.2));
#1585 = DIRECTION('',(0.,1.,0.));
#1586 = DIRECTION('',(0.,0.,1.));
#1587 = ADVANCED_FACE('',(#1588),#1607,.F.);
#1588 = FACE_BOUND('',#1589,.T.);
#1589 = EDGE_LOOP('',(#1590,#1591,#1600,#1606));
#1590 = ORIENTED_EDGE('',*,*,#1543,.F.);
#1591 = ORIENTED_EDGE('',*,*,#1592,.T.);
#1592 = EDGE_CURVE('',#1544,#1593,#1595,.T.);
#1593 = VERTEX_POINT('',#1594);
#1594 = CARTESIAN_POINT('',(97.,43.65,1.2));
#1595 = CIRCLE('',#1596,7.85);
#1596 = AXIS2_PLACEMENT_3D('',#1597,#1598,#1599);
#1597 = CARTESIAN_POINT('',(97.,35.8,1.2));
#1598 = DIRECTION('',(-0.,-0.,-1.));
#1599 = DIRECTION('',(0.,-1.,0.));
#1600 = ORIENTED_EDGE('',*,*,#1601,.T.);
#1601 = EDGE_CURVE('',#1593,#1075,#1602,.T.);
#1602 = LINE('',#1603,#1604);
#1603 = CARTESIAN_POINT('',(97.,43.65,1.2));
#1604 = VECTOR('',#1605,1.);
#1605 = DIRECTION('',(0.,0.,1.));
#1606 = ORIENTED_EDGE('',*,*,#1084,.T.);
#1607 = CYLINDRICAL_SURFACE('',#1608,7.85);
#1608 = AXIS2_PLACEMENT_3D('',#1609,#1610,#1611);
#1609 = CARTESIAN_POINT('',(97.,35.8,1.2));
#1610 = DIRECTION('',(0.,0.,1.));
#1611 = DIRECTION('',(-1.,0.,0.));
#1612 = ADVANCED_FACE('',(#1613),#1632,.F.);
#1613 = FACE_BOUND('',#1614,.T.);
#1614 = EDGE_LOOP('',(#1615,#1623,#1630,#1631));
#1615 = ORIENTED_EDGE('',*,*,#1616,.F.);
#1616 = EDGE_CURVE('',#1617,#1102,#1619,.T.);
#1617 = VERTEX_POINT('',#1618);
#1618 = CARTESIAN_POINT('',(163.05,14.5,1.2));
#1619 = LINE('',#1620,#1621);
#1620 = CARTESIAN_POINT('',(163.05,14.5,1.2));
#1621 = VECTOR('',#1622,1.);
#1622 = DIRECTION('',(0.,0.,1.));
#1623 = ORIENTED_EDGE('',*,*,#1624,.T.);
#1624 = EDGE_CURVE('',#1617,#1568,#1625,.T.);
#1625 = CIRCLE('',#1626,7.85);
#1626 = AXIS2_PLACEMENT_3D('',#1627,#1628,#1629);
#1627 = CARTESIAN_POINT('',(155.2,14.5,1.2));
#1628 = DIRECTION('',(-0.,-0.,-1.));
#1629 = DIRECTION('',(0.,-1.,0.));
#1630 = ORIENTED_EDGE('',*,*,#1567,.T.);
#1631 = ORIENTED_EDGE('',*,*,#1109,.T.);
#1632 = CYLINDRICAL_SURFACE('',#1633,7.85);
#1633 = AXIS2_PLACEMENT_3D('',#1634,#1635,#1636);
#1634 = CARTESIAN_POINT('',(155.2,14.5,1.2));
#1635 = DIRECTION('',(0.,0.,1.));
#1636 = DIRECTION('',(1.,0.,0.));
#1637 = ADVANCED_FACE('',(#1638),#1656,.F.);
#1638 = FACE_BOUND('',#1639,.F.);
#1639 = EDGE_LOOP('',(#1640,#1648,#1654,#1655));
#1640 = ORIENTED_EDGE('',*,*,#1641,.F.);
#1641 = EDGE_CURVE('',#1642,#1125,#1644,.T.);
#1642 = VERTEX_POINT('',#1643);
#1643 = CARTESIAN_POINT('',(155.2,43.65,1.2));
#1644 = LINE('',#1645,#1646);
#1645 = CARTESIAN_POINT('',(155.2,43.65,1.2));
#1646 = VECTOR('',#1647,1.);
#1647 = DIRECTION('',(0.,0.,1.));
#1648 = ORIENTED_EDGE('',*,*,#1649,.F.);
#1649 = EDGE_CURVE('',#1593,#1642,#1650,.T.);
#1650 = LINE('',#1651,#1652);
#1651 = CARTESIAN_POINT('',(89.15,43.65,1.2));
#1652 = VECTOR('',#1653,1.);
#1653 = DIRECTION('',(1.,0.,0.));
#1654 = ORIENTED_EDGE('',*,*,#1601,.T.);
#1655 = ORIENTED_EDGE('',*,*,#1134,.F.);
#1656 = PLANE('',#1657);
#1657 = AXIS2_PLACEMENT_3D('',#1658,#1659,#1660);
#1658 = CARTESIAN_POINT('',(89.15,43.65,1.2));
#1659 = DIRECTION('',(0.,1.,0.));
#1660 = DIRECTION('',(0.,0.,1.));
#1661 = ADVANCED_FACE('',(#1662),#1680,.F.);
#1662 = FACE_BOUND('',#1663,.F.);
#1663 = EDGE_LOOP('',(#1664,#1672,#1673,#1674));
#1664 = ORIENTED_EDGE('',*,*,#1665,.T.);
#1665 = EDGE_CURVE('',#1666,#1151,#1668,.T.);
#1666 = VERTEX_POINT('',#1667);
#1667 = CARTESIAN_POINT('',(163.05,35.8,1.2));
#1668 = LINE('',#1669,#1670);
#1669 = CARTESIAN_POINT('',(163.05,35.8,1.2));
#1670 = VECTOR('',#1671,1.);
#1671 = DIRECTION('',(0.,0.,1.));
#1672 = ORIENTED_EDGE('',*,*,#1158,.F.);
#1673 = ORIENTED_EDGE('',*,*,#1616,.F.);
#1674 = ORIENTED_EDGE('',*,*,#1675,.T.);
#1675 = EDGE_CURVE('',#1617,#1666,#1676,.T.);
#1676 = LINE('',#1677,#1678);
#1677 = CARTESIAN_POINT('',(163.05,6.65,1.2));
#1678 = VECTOR('',#1679,1.);
#1679 = DIRECTION('',(0.,1.,0.));
#1680 = PLANE('',#1681);
#1681 = AXIS2_PLACEMENT_3D('',#1682,#1683,#1684);
#1682 = CARTESIAN_POINT('',(163.05,6.65,1.2));
#1683 = DIRECTION('',(1.,0.,0.));
#1684 = DIRECTION('',(0.,0.,1.));
#1685 = ADVANCED_FACE('',(#1686),#1698,.F.);
#1686 = FACE_BOUND('',#1687,.F.);
#1687 = EDGE_LOOP('',(#1688,#1689,#1696,#1697));
#1688 = ORIENTED_EDGE('',*,*,#1665,.F.);
#1689 = ORIENTED_EDGE('',*,*,#1690,.T.);
#1690 = EDGE_CURVE('',#1666,#1642,#1691,.T.);
#1691 = CIRCLE('',#1692,7.85);
#1692 = AXIS2_PLACEMENT_3D('',#1693,#1694,#1695);
#1693 = CARTESIAN_POINT('',(155.2,35.8,1.2));
#1694 = DIRECTION('',(-0.,0.,1.));
#1695 = DIRECTION('',(0.,-1.,0.));
#1696 = ORIENTED_EDGE('',*,*,#1641,.T.);
#1697 = ORIENTED_EDGE('',*,*,#1175,.F.);
#1698 = CYLINDRICAL_SURFACE('',#1699,7.85);
#1699 = AXIS2_PLACEMENT_3D('',#1700,#1701,#1702);
#1700 = CARTESIAN_POINT('',(155.2,35.8,1.2));
#1701 = DIRECTION('',(0.,0.,1.));
#1702 = DIRECTION('',(1.,0.,0.));
#1703 = ADVANCED_FACE('',(#1704),#1710,.F.);
#1704 = FACE_BOUND('',#1705,.F.);
#1705 = EDGE_LOOP('',(#1706,#1707,#1708,#1709));
#1706 = ORIENTED_EDGE('',*,*,#1347,.T.);
#1707 = ORIENTED_EDGE('',*,*,#1364,.T.);
#1708 = ORIENTED_EDGE('',*,*,#1314,.F.);
#1709 = ORIENTED_EDGE('',*,*,#1292,.F.);
#1710 = PLANE('',#1711);
#1711 = AXIS2_PLACEMENT_3D('',#1712,#1713,#1714);
#1712 = CARTESIAN_POINT('',(105.,44.98,7.));
#1713 = DIRECTION('',(0.,-1.,0.));
#1714 = DIRECTION('',(0.,0.,1.));
#1715 = ADVANCED_FACE('',(#1716),#1722,.F.);
#1716 = FACE_BOUND('',#1717,.F.);
#1717 = EDGE_LOOP('',(#1718,#1719,#1720,#1721));
#1718 = ORIENTED_EDGE('',*,*,#1460,.T.);
#1719 = ORIENTED_EDGE('',*,*,#1443,.T.);
#1720 = ORIENTED_EDGE('',*,*,#1410,.F.);
#1721 = ORIENTED_EDGE('',*,*,#1388,.F.);
#1722 = PLANE('',#1723);
#1723 = AXIS2_PLACEMENT_3D('',#1724,#1725,#1726);
#1724 = CARTESIAN_POINT('',(143.2,44.98,7.));
#1725 = DIRECTION('',(0.,-1.,0.));
#1726 = DIRECTION('',(0.,0.,1.));
#1727 = ADVANCED_FACE('',(#1728),#1738,.T.);
#1728 = FACE_BOUND('',#1729,.T.);
#1729 = EDGE_LOOP('',(#1730,#1731,#1732,#1733,#1734,#1735,#1736,#1737));
#1730 = ORIENTED_EDGE('',*,*,#1553,.F.);
#1731 = ORIENTED_EDGE('',*,*,#1519,.T.);
#1732 = ORIENTED_EDGE('',*,*,#1575,.T.);
#1733 = ORIENTED_EDGE('',*,*,#1624,.F.);
#1734 = ORIENTED_EDGE('',*,*,#1675,.T.);
#1735 = ORIENTED_EDGE('',*,*,#1690,.T.);
#1736 = ORIENTED_EDGE('',*,*,#1649,.F.);
#1737 = ORIENTED_EDGE('',*,*,#1592,.F.);
#1738 = PLANE('',#1739);
#1739 = AXIS2_PLACEMENT_3D('',#1740,#1741,#1742);
#1740 = CARTESIAN_POINT('',(89.15,6.65,1.2));
#1741 = DIRECTION('',(0.,0.,1.));
#1742 = DIRECTION('',(1.,0.,0.));
#1743 = ( GEOMETRIC_REPRESENTATION_CONTEXT(3) 
GLOBAL_UNCERTAINTY_ASSIGNED_CONTEXT((#1747)) 
GLOBAL_UNIT_ASSIGNED_CONTEXT((#1744,#1745,#1746)) REPRESENTATION_CONTEXT
('Context #1','3D Context with UNIT and UNCERTAINTY') );
#1744 = ( LENGTH_UNIT() NAMED_UNIT(*) SI_UNIT(.MILLI.,.METRE.) );
#1745 = ( NAMED_UNIT(*) PLANE_ANGLE_UNIT() SI_UNIT($,.RADIAN.) );
#1746 = ( NAMED_UNIT(*) SI_UNIT($,.STERADIAN.) SOLID_ANGLE_UNIT() );
#1747 = UNCERTAINTY_MEASURE_WITH_UNIT(LENGTH_MEASURE(1.E-07),#1744,
  'distance_accuracy_value','confusion accuracy');
#1748 = PRODUCT_RELATED_PRODUCT_CATEGORY('part',$,(#7));
ENDSEC;
END-ISO-10303-21;
