ISO-10303-21;
HEADER;
FILE_DESCRIPTION(('FreeCAD Model'),'2;1');
FILE_NAME('Open CASCADE Shape Model','2026-10-02T23:59:06',('FreeCAD'),(
    'FreeCAD'),'Open CASCADE STEP processor 7.8','FreeCAD','Unknown');
FILE_SCHEMA(('AUTOMOTIVE_DESIGN { 1 0 10303 214 1 1 1 1 }'));
ENDSEC;
DATA;
#1 = APPLICATION_PROTOCOL_DEFINITION('international standard',
  'automotive_design',2000,#2);
#2 = APPLICATION_CONTEXT(
  'core data for automotive mechanical design processes');
#3 = SHAPE_DEFINITION_REPRESENTATION(#4,#10);
#4 = PRODUCT_DEFINITION_SHAPE('','',#5);
#5 = PRODUCT_DEFINITION('design','',#6,#9);
#6 = PRODUCT_DEFINITION_FORMATION('','',#7);
#7 = PRODUCT('Open CASCADE STEP translator 7.8 2',
  'Open CASCADE STEP translator 7.8 2','',(#8));
#8 = PRODUCT_CONTEXT('',#2,'mechanical');
#9 = PRODUCT_DEFINITION_CONTEXT('part definition',#2,'design');
#10 = ADVANCED_BREP_SHAPE_REPRESENTATION('',(#11,#15),#1699);
#11 = AXIS2_PLACEMENT_3D('',#12,#13,#14);
#12 = CARTESIAN_POINT('',(0.,0.,0.));
#13 = DIRECTION('',(0.,0.,1.));
#14 = DIRECTION('',(1.,0.,-0.));
#15 = MANIFOLD_SOLID_BREP('',#16);
#16 = CLOSED_SHELL('',(#17,#99,#130,#163,#203,#234,#267,#298,#322,#346,
    #363,#388,#472,#497,#596,#655,#694,#711,#770,#787,#811,#823,#840,
    #865,#889,#914,#938,#969,#993,#1011,#1028,#1053,#1084,#1108,#1132,
    #1149,#1180,#1204,#1228,#1245,#1270,#1302,#1326,#1344,#1388,#1405,
    #1422,#1439,#1456,#1473,#1490,#1507,#1520,#1567,#1579,#1591,#1622,
    #1646,#1670,#1687));
#17 = ADVANCED_FACE('',(#18,#60),#94,.F.);
#18 = FACE_BOUND('',#19,.F.);
#19 = EDGE_LOOP('',(#20,#30,#38,#46,#54));
#20 = ORIENTED_EDGE('',*,*,#21,.F.);
#21 = EDGE_CURVE('',#22,#24,#26,.T.);
#22 = VERTEX_POINT('',#23);
#23 = CARTESIAN_POINT('',(88.06,63.8,13.05));
#24 = VERTEX_POINT('',#25);
#25 = CARTESIAN_POINT('',(88.06,81.15504587156,13.05));
#26 = LINE('',#27,#28);
#27 = CARTESIAN_POINT('',(88.06,63.8,13.05));
#28 = VECTOR('',#29,1.);
#29 = DIRECTION('',(0.,1.,0.));
#30 = ORIENTED_EDGE('',*,*,#31,.F.);
#31 = EDGE_CURVE('',#32,#22,#34,.T.);
#32 = VERTEX_POINT('',#33);
#33 = CARTESIAN_POINT('',(88.06,63.8,0.35));
#34 = LINE('',#35,#36);
#35 = CARTESIAN_POINT('',(88.06,63.8,0.));
#36 = VECTOR('',#37,1.);
#37 = DIRECTION('',(0.,0.,1.));
#38 = ORIENTED_EDGE('',*,*,#39,.T.);
#39 = EDGE_CURVE('',#32,#40,#42,.T.);
#40 = VERTEX_POINT('',#41);
#41 = CARTESIAN_POINT('',(88.06,85.1,0.35));
#42 = LINE('',#43,#44);
#43 = CARTESIAN_POINT('',(88.06,63.8,0.35));
#44 = VECTOR('',#45,1.);
#45 = DIRECTION('',(0.,1.,0.));
#46 = ORIENTED_EDGE('',*,*,#47,.T.);
#47 = EDGE_CURVE('',#40,#48,#50,.T.);
#48 = VERTEX_POINT('',#49);
#49 = CARTESIAN_POINT('',(88.06,85.1,2.3));
#50 = LINE('',#51,#52);
#51 = CARTESIAN_POINT('',(88.06,85.1,0.));
#52 = VECTOR('',#53,1.);
#53 = DIRECTION('',(0.,0.,1.));
#54 = ORIENTED_EDGE('',*,*,#55,.T.);
#55 = EDGE_CURVE('',#48,#24,#56,.T.);
#56 = LINE('',#57,#58);
#57 = CARTESIAN_POINT('',(88.06,81.677405237,11.626570729174));
#58 = VECTOR('',#59,1.);
#59 = DIRECTION('',(0.,-0.344507703036,0.938783490773));
#60 = FACE_BOUND('',#61,.F.);
#61 = EDGE_LOOP('',(#62,#72,#80,#88));
#62 = ORIENTED_EDGE('',*,*,#63,.F.);
#63 = EDGE_CURVE('',#64,#66,#68,.T.);
#64 = VERTEX_POINT('',#65);
#65 = CARTESIAN_POINT('',(88.06,72.45,6.2));
#66 = VERTEX_POINT('',#67);
#67 = CARTESIAN_POINT('',(88.06,76.45,6.2));
#68 = LINE('',#69,#70);
#69 = CARTESIAN_POINT('',(88.06,72.45,6.2));
#70 = VECTOR('',#71,1.);
#71 = DIRECTION('',(0.,1.,0.));
#72 = ORIENTED_EDGE('',*,*,#73,.T.);
#73 = EDGE_CURVE('',#64,#74,#76,.T.);
#74 = VERTEX_POINT('',#75);
#75 = CARTESIAN_POINT('',(88.06,72.45,10.8));
#76 = LINE('',#77,#78);
#77 = CARTESIAN_POINT('',(88.06,72.45,4.25));
#78 = VECTOR('',#79,1.);
#79 = DIRECTION('',(0.,0.,1.));
#80 = ORIENTED_EDGE('',*,*,#81,.T.);
#81 = EDGE_CURVE('',#74,#82,#84,.T.);
#82 = VERTEX_POINT('',#83);
#83 = CARTESIAN_POINT('',(88.06,76.45,10.8));
#84 = LINE('',#85,#86);
#85 = CARTESIAN_POINT('',(88.06,72.45,10.8));
#86 = VECTOR('',#87,1.);
#87 = DIRECTION('',(0.,1.,0.));
#88 = ORIENTED_EDGE('',*,*,#89,.F.);
#89 = EDGE_CURVE('',#66,#82,#90,.T.);
#90 = LINE('',#91,#92);
#91 = CARTESIAN_POINT('',(88.06,76.45,4.25));
#92 = VECTOR('',#93,1.);
#93 = DIRECTION('',(0.,0.,1.));
#94 = PLANE('',#95);
#95 = AXIS2_PLACEMENT_3D('',#96,#97,#98);
#96 = CARTESIAN_POINT('',(88.06,54.86,0.));
#97 = DIRECTION('',(1.,0.,0.));
#98 = DIRECTION('',(0.,0.,1.));
#99 = ADVANCED_FACE('',(#100),#125,.F.);
#100 = FACE_BOUND('',#101,.F.);
#101 = EDGE_LOOP('',(#102,#110,#111,#119));
#102 = ORIENTED_EDGE('',*,*,#103,.F.);
#103 = EDGE_CURVE('',#22,#104,#106,.T.);
#104 = VERTEX_POINT('',#105);
#105 = CARTESIAN_POINT('',(88.21,63.8,13.2));
#106 = LINE('',#107,#108);
#107 = CARTESIAN_POINT('',(88.135,63.8,13.125));
#108 = VECTOR('',#109,1.);
#109 = DIRECTION('',(0.707106781187,0.,0.707106781187));
#110 = ORIENTED_EDGE('',*,*,#21,.T.);
#111 = ORIENTED_EDGE('',*,*,#112,.T.);
#112 = EDGE_CURVE('',#24,#113,#115,.T.);
#113 = VERTEX_POINT('',#114);
#114 = CARTESIAN_POINT('',(88.21,81.1,13.2));
#115 = LINE('',#116,#117);
#116 = CARTESIAN_POINT('',(88.910020503115,80.843111741976,
    13.900020503115));
#117 = VECTOR('',#118,1.);
#118 = DIRECTION('',(0.684439001163,-0.251170275656,0.684439001163));
#119 = ORIENTED_EDGE('',*,*,#120,.F.);
#120 = EDGE_CURVE('',#104,#113,#121,.T.);
#121 = LINE('',#122,#123);
#122 = CARTESIAN_POINT('',(88.21,63.8,13.2));
#123 = VECTOR('',#124,1.);
#124 = DIRECTION('',(0.,1.,0.));
#125 = PLANE('',#126);
#126 = AXIS2_PLACEMENT_3D('',#127,#128,#129);
#127 = CARTESIAN_POINT('',(88.135,63.8,13.125));
#128 = DIRECTION('',(0.707106781187,0.,-0.707106781187));
#129 = DIRECTION('',(0.,1.,0.));
#130 = ADVANCED_FACE('',(#131),#158,.T.);
#131 = FACE_BOUND('',#132,.T.);
#132 = EDGE_LOOP('',(#133,#134,#143,#151));
#133 = ORIENTED_EDGE('',*,*,#31,.F.);
#134 = ORIENTED_EDGE('',*,*,#135,.F.);
#135 = EDGE_CURVE('',#136,#32,#138,.T.);
#136 = VERTEX_POINT('',#137);
#137 = CARTESIAN_POINT('',(97.,54.86,0.35));
#138 = CIRCLE('',#139,8.94);
#139 = AXIS2_PLACEMENT_3D('',#140,#141,#142);
#140 = CARTESIAN_POINT('',(97.,63.8,0.35));
#141 = DIRECTION('',(-0.,0.,-1.));
#142 = DIRECTION('',(-1.986976330425E-16,-1.,0.));
#143 = ORIENTED_EDGE('',*,*,#144,.T.);
#144 = EDGE_CURVE('',#136,#145,#147,.T.);
#145 = VERTEX_POINT('',#146);
#146 = CARTESIAN_POINT('',(97.,54.86,13.05));
#147 = LINE('',#148,#149);
#148 = CARTESIAN_POINT('',(97.,54.86,0.));
#149 = VECTOR('',#150,1.);
#150 = DIRECTION('',(0.,0.,1.));
#151 = ORIENTED_EDGE('',*,*,#152,.T.);
#152 = EDGE_CURVE('',#145,#22,#153,.T.);
#153 = CIRCLE('',#154,8.94);
#154 = AXIS2_PLACEMENT_3D('',#155,#156,#157);
#155 = CARTESIAN_POINT('',(97.,63.8,13.05));
#156 = DIRECTION('',(-0.,0.,-1.));
#157 = DIRECTION('',(-1.986976330425E-16,-1.,0.));
#158 = CYLINDRICAL_SURFACE('',#159,8.94);
#159 = AXIS2_PLACEMENT_3D('',#160,#161,#162);
#160 = CARTESIAN_POINT('',(97.,63.8,0.));
#161 = DIRECTION('',(0.,0.,1.));
#162 = DIRECTION('',(-1.,0.,0.));
#163 = ADVANCED_FACE('',(#164),#198,.T.);
#164 = FACE_BOUND('',#165,.T.);
#165 = EDGE_LOOP('',(#166,#167,#175,#183,#191,#197));
#166 = ORIENTED_EDGE('',*,*,#112,.T.);
#167 = ORIENTED_EDGE('',*,*,#168,.T.);
#168 = EDGE_CURVE('',#113,#169,#171,.T.);
#169 = VERTEX_POINT('',#170);
#170 = CARTESIAN_POINT('',(89.,81.1,13.2));
#171 = LINE('',#172,#173);
#172 = CARTESIAN_POINT('',(85.,81.1,13.2));
#173 = VECTOR('',#174,1.);
#174 = DIRECTION('',(1.,0.,0.));
#175 = ORIENTED_EDGE('',*,*,#176,.F.);
#176 = EDGE_CURVE('',#177,#169,#179,.T.);
#177 = VERTEX_POINT('',#178);
#178 = CARTESIAN_POINT('',(89.15,81.15504587156,13.05));
#179 = LINE('',#180,#181);
#180 = CARTESIAN_POINT('',(88.442042228531,80.895244854507,
    13.757957771469));
#181 = VECTOR('',#182,1.);
#182 = DIRECTION('',(-0.684439001163,-0.251170275656,0.684439001163));
#183 = ORIENTED_EDGE('',*,*,#184,.F.);
#184 = EDGE_CURVE('',#185,#177,#187,.T.);
#185 = VERTEX_POINT('',#186);
#186 = CARTESIAN_POINT('',(89.15,85.1,2.3));
#187 = LINE('',#188,#189);
#188 = CARTESIAN_POINT('',(89.15,81.612721608189,11.802833617684));
#189 = VECTOR('',#190,1.);
#190 = DIRECTION('',(0.,-0.344507703036,0.938783490773));
#191 = ORIENTED_EDGE('',*,*,#192,.F.);
#192 = EDGE_CURVE('',#48,#185,#193,.T.);
#193 = LINE('',#194,#195);
#194 = CARTESIAN_POINT('',(85.,85.1,2.3));
#195 = VECTOR('',#196,1.);
#196 = DIRECTION('',(1.,0.,0.));
#197 = ORIENTED_EDGE('',*,*,#55,.T.);
#198 = PLANE('',#199);
#199 = AXIS2_PLACEMENT_3D('',#200,#201,#202);
#200 = CARTESIAN_POINT('',(85.,81.1,13.2));
#201 = DIRECTION('',(0.,0.938783490773,0.344507703036));
#202 = DIRECTION('',(0.,0.344507703036,-0.938783490773));
#203 = ADVANCED_FACE('',(#204),#229,.T.);
#204 = FACE_BOUND('',#205,.T.);
#205 = EDGE_LOOP('',(#206,#214,#215,#223));
#206 = ORIENTED_EDGE('',*,*,#207,.F.);
#207 = EDGE_CURVE('',#32,#208,#210,.T.);
#208 = VERTEX_POINT('',#209);
#209 = CARTESIAN_POINT('',(88.41,63.8,0.));
#210 = LINE('',#211,#212);
#211 = CARTESIAN_POINT('',(88.235,63.8,0.175));
#212 = VECTOR('',#213,1.);
#213 = DIRECTION('',(0.707106781187,0.,-0.707106781187));
#214 = ORIENTED_EDGE('',*,*,#39,.T.);
#215 = ORIENTED_EDGE('',*,*,#216,.T.);
#216 = EDGE_CURVE('',#40,#217,#219,.T.);
#217 = VERTEX_POINT('',#218);
#218 = CARTESIAN_POINT('',(88.41,85.1,0.));
#219 = LINE('',#220,#221);
#220 = CARTESIAN_POINT('',(88.235,85.1,0.175));
#221 = VECTOR('',#222,1.);
#222 = DIRECTION('',(0.707106781187,0.,-0.707106781187));
#223 = ORIENTED_EDGE('',*,*,#224,.F.);
#224 = EDGE_CURVE('',#208,#217,#225,.T.);
#225 = LINE('',#226,#227);
#226 = CARTESIAN_POINT('',(88.41,63.8,0.));
#227 = VECTOR('',#228,1.);
#228 = DIRECTION('',(0.,1.,0.));
#229 = PLANE('',#230);
#230 = AXIS2_PLACEMENT_3D('',#231,#232,#233);
#231 = CARTESIAN_POINT('',(88.235,63.8,0.175));
#232 = DIRECTION('',(-0.707106781187,0.,-0.707106781187));
#233 = DIRECTION('',(0.,1.,0.));
#234 = ADVANCED_FACE('',(#235),#262,.T.);
#235 = FACE_BOUND('',#236,.F.);
#236 = EDGE_LOOP('',(#237,#238,#247,#255));
#237 = ORIENTED_EDGE('',*,*,#47,.F.);
#238 = ORIENTED_EDGE('',*,*,#239,.T.);
#239 = EDGE_CURVE('',#40,#240,#242,.T.);
#240 = VERTEX_POINT('',#241);
#241 = CARTESIAN_POINT('',(97.,94.04,0.35));
#242 = CIRCLE('',#243,8.94);
#243 = AXIS2_PLACEMENT_3D('',#244,#245,#246);
#244 = CARTESIAN_POINT('',(97.,85.1,0.35));
#245 = DIRECTION('',(0.,0.,-1.));
#246 = DIRECTION('',(-1.,0.,0.));
#247 = ORIENTED_EDGE('',*,*,#248,.T.);
#248 = EDGE_CURVE('',#240,#249,#251,.T.);
#249 = VERTEX_POINT('',#250);
#250 = CARTESIAN_POINT('',(97.,94.04,2.3));
#251 = LINE('',#252,#253);
#252 = CARTESIAN_POINT('',(97.,94.04,0.));
#253 = VECTOR('',#254,1.);
#254 = DIRECTION('',(0.,0.,1.));
#255 = ORIENTED_EDGE('',*,*,#256,.T.);
#256 = EDGE_CURVE('',#249,#48,#257,.T.);
#257 = CIRCLE('',#258,8.94);
#258 = AXIS2_PLACEMENT_3D('',#259,#260,#261);
#259 = CARTESIAN_POINT('',(97.,85.1,2.3));
#260 = DIRECTION('',(0.,0.,1.));
#261 = DIRECTION('',(-1.,0.,0.));
#262 = CYLINDRICAL_SURFACE('',#263,8.94);
#263 = AXIS2_PLACEMENT_3D('',#264,#265,#266);
#264 = CARTESIAN_POINT('',(97.,85.1,0.));
#265 = DIRECTION('',(0.,0.,1.));
#266 = DIRECTION('',(-1.,0.,0.));
#267 = ADVANCED_FACE('',(#268),#293,.F.);
#268 = FACE_BOUND('',#269,.F.);
#269 = EDGE_LOOP('',(#270,#271,#279,#287));
#270 = ORIENTED_EDGE('',*,*,#63,.T.);
#271 = ORIENTED_EDGE('',*,*,#272,.T.);
#272 = EDGE_CURVE('',#66,#273,#275,.T.);
#273 = VERTEX_POINT('',#274);
#274 = CARTESIAN_POINT('',(87.82,76.45,7.));
#275 = LINE('',#276,#277);
#276 = CARTESIAN_POINT('',(88.06,76.45,6.2));
#277 = VECTOR('',#278,1.);
#278 = DIRECTION('',(-0.287347885566,0.,0.957826285221));
#279 = ORIENTED_EDGE('',*,*,#280,.F.);
#280 = EDGE_CURVE('',#281,#273,#283,.T.);
#281 = VERTEX_POINT('',#282);
#282 = CARTESIAN_POINT('',(87.82,72.45,7.));
#283 = LINE('',#284,#285);
#284 = CARTESIAN_POINT('',(87.82,72.45,7.));
#285 = VECTOR('',#286,1.);
#286 = DIRECTION('',(0.,1.,0.));
#287 = ORIENTED_EDGE('',*,*,#288,.F.);
#288 = EDGE_CURVE('',#64,#281,#289,.T.);
#289 = LINE('',#290,#291);
#290 = CARTESIAN_POINT('',(88.06,72.45,6.2));
#291 = VECTOR('',#292,1.);
#292 = DIRECTION('',(-0.287347885566,0.,0.957826285221));
#293 = PLANE('',#294);
#294 = AXIS2_PLACEMENT_3D('',#295,#296,#297);
#295 = CARTESIAN_POINT('',(88.06,72.45,6.2));
#296 = DIRECTION('',(0.957826285221,0.,0.287347885566));
#297 = DIRECTION('',(-0.287347885566,0.,0.957826285221));
#298 = ADVANCED_FACE('',(#299),#317,.T.);
#299 = FACE_BOUND('',#300,.T.);
#300 = EDGE_LOOP('',(#301,#302,#303,#311));
#301 = ORIENTED_EDGE('',*,*,#89,.F.);
#302 = ORIENTED_EDGE('',*,*,#272,.T.);
#303 = ORIENTED_EDGE('',*,*,#304,.T.);
#304 = EDGE_CURVE('',#273,#305,#307,.T.);
#305 = VERTEX_POINT('',#306);
#306 = CARTESIAN_POINT('',(87.82,76.45,10.));
#307 = LINE('',#308,#309);
#308 = CARTESIAN_POINT('',(87.82,76.45,7.));
#309 = VECTOR('',#310,1.);
#310 = DIRECTION('',(0.,0.,1.));
#311 = ORIENTED_EDGE('',*,*,#312,.T.);
#312 = EDGE_CURVE('',#305,#82,#313,.T.);
#313 = LINE('',#314,#315);
#314 = CARTESIAN_POINT('',(87.82,76.45,10.));
#315 = VECTOR('',#316,1.);
#316 = DIRECTION('',(0.287347885566,0.,0.957826285221));
#317 = PLANE('',#318);
#318 = AXIS2_PLACEMENT_3D('',#319,#320,#321);
#319 = CARTESIAN_POINT('',(88.053764165647,76.45,8.5));
#320 = DIRECTION('',(0.,1.,0.));
#321 = DIRECTION('',(0.,0.,1.));
#322 = ADVANCED_FACE('',(#323),#341,.F.);
#323 = FACE_BOUND('',#324,.F.);
#324 = EDGE_LOOP('',(#325,#333,#334,#335));
#325 = ORIENTED_EDGE('',*,*,#326,.T.);
#326 = EDGE_CURVE('',#327,#305,#329,.T.);
#327 = VERTEX_POINT('',#328);
#328 = CARTESIAN_POINT('',(87.82,72.45,10.));
#329 = LINE('',#330,#331);
#330 = CARTESIAN_POINT('',(87.82,72.45,10.));
#331 = VECTOR('',#332,1.);
#332 = DIRECTION('',(0.,1.,0.));
#333 = ORIENTED_EDGE('',*,*,#312,.T.);
#334 = ORIENTED_EDGE('',*,*,#81,.F.);
#335 = ORIENTED_EDGE('',*,*,#336,.F.);
#336 = EDGE_CURVE('',#327,#74,#337,.T.);
#337 = LINE('',#338,#339);
#338 = CARTESIAN_POINT('',(87.82,72.45,10.));
#339 = VECTOR('',#340,1.);
#340 = DIRECTION('',(0.287347885566,0.,0.957826285221));
#341 = PLANE('',#342);
#342 = AXIS2_PLACEMENT_3D('',#343,#344,#345);
#343 = CARTESIAN_POINT('',(87.82,72.45,10.));
#344 = DIRECTION('',(0.957826285221,0.,-0.287347885566));
#345 = DIRECTION('',(0.287347885566,0.,0.957826285221));
#346 = ADVANCED_FACE('',(#347),#358,.F.);
#347 = FACE_BOUND('',#348,.F.);
#348 = EDGE_LOOP('',(#349,#350,#351,#357));
#349 = ORIENTED_EDGE('',*,*,#73,.F.);
#350 = ORIENTED_EDGE('',*,*,#288,.T.);
#351 = ORIENTED_EDGE('',*,*,#352,.T.);
#352 = EDGE_CURVE('',#281,#327,#353,.T.);
#353 = LINE('',#354,#355);
#354 = CARTESIAN_POINT('',(87.82,72.45,7.));
#355 = VECTOR('',#356,1.);
#356 = DIRECTION('',(0.,0.,1.));
#357 = ORIENTED_EDGE('',*,*,#336,.T.);
#358 = PLANE('',#359);
#359 = AXIS2_PLACEMENT_3D('',#360,#361,#362);
#360 = CARTESIAN_POINT('',(88.053764165647,72.45,8.5));
#361 = DIRECTION('',(0.,1.,0.));
#362 = DIRECTION('',(0.,0.,1.));
#363 = ADVANCED_FACE('',(#364),#383,.T.);
#364 = FACE_BOUND('',#365,.F.);
#365 = EDGE_LOOP('',(#366,#374,#375,#376));
#366 = ORIENTED_EDGE('',*,*,#367,.F.);
#367 = EDGE_CURVE('',#145,#368,#370,.T.);
#368 = VERTEX_POINT('',#369);
#369 = CARTESIAN_POINT('',(97.,55.01,13.2));
#370 = LINE('',#371,#372);
#371 = CARTESIAN_POINT('',(97.,54.935,13.125));
#372 = VECTOR('',#373,1.);
#373 = DIRECTION('',(0.,0.707106781187,0.707106781187));
#374 = ORIENTED_EDGE('',*,*,#152,.T.);
#375 = ORIENTED_EDGE('',*,*,#103,.T.);
#376 = ORIENTED_EDGE('',*,*,#377,.F.);
#377 = EDGE_CURVE('',#368,#104,#378,.T.);
#378 = CIRCLE('',#379,8.79);
#379 = AXIS2_PLACEMENT_3D('',#380,#381,#382);
#380 = CARTESIAN_POINT('',(97.,63.8,13.2));
#381 = DIRECTION('',(-0.,0.,-1.));
#382 = DIRECTION('',(-1.986976330425E-16,-1.,0.));
#383 = CONICAL_SURFACE('',#384,8.94,0.785398163397);
#384 = AXIS2_PLACEMENT_3D('',#385,#386,#387);
#385 = CARTESIAN_POINT('',(97.,63.8,13.05));
#386 = DIRECTION('',(-0.,-0.,-1.));
#387 = DIRECTION('',(-1.986976330425E-16,-1.,0.));
#388 = ADVANCED_FACE('',(#389),#467,.T.);
#389 = FACE_BOUND('',#390,.T.);
#390 = EDGE_LOOP('',(#391,#392,#393,#401,#410,#418,#426,#434,#443,#451,
    #460,#466));
#391 = ORIENTED_EDGE('',*,*,#120,.F.);
#392 = ORIENTED_EDGE('',*,*,#377,.F.);
#393 = ORIENTED_EDGE('',*,*,#394,.F.);
#394 = EDGE_CURVE('',#395,#368,#397,.T.);
#395 = VERTEX_POINT('',#396);
#396 = CARTESIAN_POINT('',(155.2,55.01,13.2));
#397 = LINE('',#398,#399);
#398 = CARTESIAN_POINT('',(155.2,55.01,13.2));
#399 = VECTOR('',#400,1.);
#400 = DIRECTION('',(-1.,0.,0.));
#401 = ORIENTED_EDGE('',*,*,#402,.F.);
#402 = EDGE_CURVE('',#403,#395,#405,.T.);
#403 = VERTEX_POINT('',#404);
#404 = CARTESIAN_POINT('',(163.99,63.8,13.2));
#405 = CIRCLE('',#406,8.79);
#406 = AXIS2_PLACEMENT_3D('',#407,#408,#409);
#407 = CARTESIAN_POINT('',(155.2,63.8,13.2));
#408 = DIRECTION('',(0.,0.,-1.));
#409 = DIRECTION('',(1.,0.,0.));
#410 = ORIENTED_EDGE('',*,*,#411,.F.);
#411 = EDGE_CURVE('',#412,#403,#414,.T.);
#412 = VERTEX_POINT('',#413);
#413 = CARTESIAN_POINT('',(163.99,81.1,13.2));
#414 = LINE('',#415,#416);
#415 = CARTESIAN_POINT('',(163.99,85.1,13.2));
#416 = VECTOR('',#417,1.);
#417 = DIRECTION('',(0.,-1.,0.));
#418 = ORIENTED_EDGE('',*,*,#419,.F.);
#419 = EDGE_CURVE('',#420,#412,#422,.T.);
#420 = VERTEX_POINT('',#421);
#421 = CARTESIAN_POINT('',(163.2,81.1,13.2));
#422 = LINE('',#423,#424);
#423 = CARTESIAN_POINT('',(85.,81.1,13.2));
#424 = VECTOR('',#425,1.);
#425 = DIRECTION('',(1.,0.,0.));
#426 = ORIENTED_EDGE('',*,*,#427,.F.);
#427 = EDGE_CURVE('',#428,#420,#430,.T.);
#428 = VERTEX_POINT('',#429);
#429 = CARTESIAN_POINT('',(163.2,63.8,13.2));
#430 = LINE('',#431,#432);
#431 = CARTESIAN_POINT('',(163.2,63.8,13.2));
#432 = VECTOR('',#433,1.);
#433 = DIRECTION('',(0.,1.,0.));
#434 = ORIENTED_EDGE('',*,*,#435,.F.);
#435 = EDGE_CURVE('',#436,#428,#438,.T.);
#436 = VERTEX_POINT('',#437);
#437 = CARTESIAN_POINT('',(155.2,55.8,13.2));
#438 = CIRCLE('',#439,8.);
#439 = AXIS2_PLACEMENT_3D('',#440,#441,#442);
#440 = CARTESIAN_POINT('',(155.2,63.8,13.2));
#441 = DIRECTION('',(-0.,0.,1.));
#442 = DIRECTION('',(0.,-1.,0.));
#443 = ORIENTED_EDGE('',*,*,#444,.F.);
#444 = EDGE_CURVE('',#445,#436,#447,.T.);
#445 = VERTEX_POINT('',#446);
#446 = CARTESIAN_POINT('',(97.,55.8,13.2));
#447 = LINE('',#448,#449);
#448 = CARTESIAN_POINT('',(97.,55.8,13.2));
#449 = VECTOR('',#450,1.);
#450 = DIRECTION('',(1.,0.,0.));
#451 = ORIENTED_EDGE('',*,*,#452,.F.);
#452 = EDGE_CURVE('',#453,#445,#455,.T.);
#453 = VERTEX_POINT('',#454);
#454 = CARTESIAN_POINT('',(89.,63.8,13.2));
#455 = CIRCLE('',#456,8.);
#456 = AXIS2_PLACEMENT_3D('',#457,#458,#459);
#457 = CARTESIAN_POINT('',(97.,63.8,13.2));
#458 = DIRECTION('',(0.,0.,1.));
#459 = DIRECTION('',(-1.,0.,0.));
#460 = ORIENTED_EDGE('',*,*,#461,.F.);
#461 = EDGE_CURVE('',#169,#453,#462,.T.);
#462 = LINE('',#463,#464);
#463 = CARTESIAN_POINT('',(89.,85.1,13.2));
#464 = VECTOR('',#465,1.);
#465 = DIRECTION('',(0.,-1.,0.));
#466 = ORIENTED_EDGE('',*,*,#168,.F.);
#467 = PLANE('',#468);
#468 = AXIS2_PLACEMENT_3D('',#469,#470,#471);
#469 = CARTESIAN_POINT('',(88.06,54.86,13.2));
#470 = DIRECTION('',(0.,0.,1.));
#471 = DIRECTION('',(1.,0.,0.));
#472 = ADVANCED_FACE('',(#473),#492,.T.);
#473 = FACE_BOUND('',#474,.T.);
#474 = EDGE_LOOP('',(#475,#483,#484,#485));
#475 = ORIENTED_EDGE('',*,*,#476,.F.);
#476 = EDGE_CURVE('',#136,#477,#479,.T.);
#477 = VERTEX_POINT('',#478);
#478 = CARTESIAN_POINT('',(97.,55.21,0.));
#479 = LINE('',#480,#481);
#480 = CARTESIAN_POINT('',(97.,55.035,0.175));
#481 = VECTOR('',#482,1.);
#482 = DIRECTION('',(0.,0.707106781187,-0.707106781187));
#483 = ORIENTED_EDGE('',*,*,#135,.T.);
#484 = ORIENTED_EDGE('',*,*,#207,.T.);
#485 = ORIENTED_EDGE('',*,*,#486,.F.);
#486 = EDGE_CURVE('',#477,#208,#487,.T.);
#487 = CIRCLE('',#488,8.59);
#488 = AXIS2_PLACEMENT_3D('',#489,#490,#491);
#489 = CARTESIAN_POINT('',(97.,63.8,0.));
#490 = DIRECTION('',(-0.,0.,-1.));
#491 = DIRECTION('',(-1.986976330425E-16,-1.,0.));
#492 = CONICAL_SURFACE('',#493,8.94,0.785398163397);
#493 = AXIS2_PLACEMENT_3D('',#494,#495,#496);
#494 = CARTESIAN_POINT('',(97.,63.8,0.35));
#495 = DIRECTION('',(0.,0.,1.));
#496 = DIRECTION('',(-1.986976330425E-16,-1.,0.));
#497 = ADVANCED_FACE('',(#498,#523,#557),#591,.F.);
#498 = FACE_BOUND('',#499,.F.);
#499 = EDGE_LOOP('',(#500,#501,#509,#517));
#500 = ORIENTED_EDGE('',*,*,#144,.T.);
#501 = ORIENTED_EDGE('',*,*,#502,.F.);
#502 = EDGE_CURVE('',#503,#145,#505,.T.);
#503 = VERTEX_POINT('',#504);
#504 = CARTESIAN_POINT('',(155.2,54.86,13.05));
#505 = LINE('',#506,#507);
#506 = CARTESIAN_POINT('',(155.2,54.86,13.05));
#507 = VECTOR('',#508,1.);
#508 = DIRECTION('',(-1.,0.,0.));
#509 = ORIENTED_EDGE('',*,*,#510,.F.);
#510 = EDGE_CURVE('',#511,#503,#513,.T.);
#511 = VERTEX_POINT('',#512);
#512 = CARTESIAN_POINT('',(155.2,54.86,0.35));
#513 = LINE('',#514,#515);
#514 = CARTESIAN_POINT('',(155.2,54.86,0.));
#515 = VECTOR('',#516,1.);
#516 = DIRECTION('',(0.,0.,1.));
#517 = ORIENTED_EDGE('',*,*,#518,.T.);
#518 = EDGE_CURVE('',#511,#136,#519,.T.);
#519 = LINE('',#520,#521);
#520 = CARTESIAN_POINT('',(155.2,54.86,0.35));
#521 = VECTOR('',#522,1.);
#522 = DIRECTION('',(-1.,0.,0.));
#523 = FACE_BOUND('',#524,.F.);
#524 = EDGE_LOOP('',(#525,#535,#543,#551));
#525 = ORIENTED_EDGE('',*,*,#526,.F.);
#526 = EDGE_CURVE('',#527,#529,#531,.T.);
#527 = VERTEX_POINT('',#528);
#528 = CARTESIAN_POINT('',(105.,54.86,6.2));
#529 = VERTEX_POINT('',#530);
#530 = CARTESIAN_POINT('',(105.,54.86,10.8));
#531 = LINE('',#532,#533);
#532 = CARTESIAN_POINT('',(105.,54.86,4.25));
#533 = VECTOR('',#534,1.);
#534 = DIRECTION('',(0.,0.,1.));
#535 = ORIENTED_EDGE('',*,*,#536,.T.);
#536 = EDGE_CURVE('',#527,#537,#539,.T.);
#537 = VERTEX_POINT('',#538);
#538 = CARTESIAN_POINT('',(109.,54.86,6.2));
#539 = LINE('',#540,#541);
#540 = CARTESIAN_POINT('',(105.,54.86,6.2));
#541 = VECTOR('',#542,1.);
#542 = DIRECTION('',(1.,0.,0.));
#543 = ORIENTED_EDGE('',*,*,#544,.T.);
#544 = EDGE_CURVE('',#537,#545,#547,.T.);
#545 = VERTEX_POINT('',#546);
#546 = CARTESIAN_POINT('',(109.,54.86,10.8));
#547 = LINE('',#548,#549);
#548 = CARTESIAN_POINT('',(109.,54.86,4.25));
#549 = VECTOR('',#550,1.);
#550 = DIRECTION('',(0.,0.,1.));
#551 = ORIENTED_EDGE('',*,*,#552,.F.);
#552 = EDGE_CURVE('',#529,#545,#553,.T.);
#553 = LINE('',#554,#555);
#554 = CARTESIAN_POINT('',(105.,54.86,10.8));
#555 = VECTOR('',#556,1.);
#556 = DIRECTION('',(1.,0.,0.));
#557 = FACE_BOUND('',#558,.F.);
#558 = EDGE_LOOP('',(#559,#569,#577,#585));
#559 = ORIENTED_EDGE('',*,*,#560,.F.);
#560 = EDGE_CURVE('',#561,#563,#565,.T.);
#561 = VERTEX_POINT('',#562);
#562 = CARTESIAN_POINT('',(143.2,54.86,6.2));
#563 = VERTEX_POINT('',#564);
#564 = CARTESIAN_POINT('',(143.2,54.86,10.8));
#565 = LINE('',#566,#567);
#566 = CARTESIAN_POINT('',(143.2,54.86,4.25));
#567 = VECTOR('',#568,1.);
#568 = DIRECTION('',(0.,0.,1.));
#569 = ORIENTED_EDGE('',*,*,#570,.T.);
#570 = EDGE_CURVE('',#561,#571,#573,.T.);
#571 = VERTEX_POINT('',#572);
#572 = CARTESIAN_POINT('',(147.2,54.86,6.2));
#573 = LINE('',#574,#575);
#574 = CARTESIAN_POINT('',(143.2,54.86,6.2));
#575 = VECTOR('',#576,1.);
#576 = DIRECTION('',(1.,0.,0.));
#577 = ORIENTED_EDGE('',*,*,#578,.T.);
#578 = EDGE_CURVE('',#571,#579,#581,.T.);
#579 = VERTEX_POINT('',#580);
#580 = CARTESIAN_POINT('',(147.2,54.86,10.8));
#581 = LINE('',#582,#583);
#582 = CARTESIAN_POINT('',(147.2,54.86,4.25));
#583 = VECTOR('',#584,1.);
#584 = DIRECTION('',(0.,0.,1.));
#585 = ORIENTED_EDGE('',*,*,#586,.F.);
#586 = EDGE_CURVE('',#563,#579,#587,.T.);
#587 = LINE('',#588,#589);
#588 = CARTESIAN_POINT('',(143.2,54.86,10.8));
#589 = VECTOR('',#590,1.);
#590 = DIRECTION('',(1.,0.,0.));
#591 = PLANE('',#592);
#592 = AXIS2_PLACEMENT_3D('',#593,#594,#595);
#593 = CARTESIAN_POINT('',(88.06,54.86,0.));
#594 = DIRECTION('',(0.,1.,0.));
#595 = DIRECTION('',(0.,0.,1.));
#596 = ADVANCED_FACE('',(#597),#650,.T.);
#597 = FACE_BOUND('',#598,.T.);
#598 = EDGE_LOOP('',(#599,#600,#601,#610,#618,#627,#635,#644));
#599 = ORIENTED_EDGE('',*,*,#256,.T.);
#600 = ORIENTED_EDGE('',*,*,#192,.T.);
#601 = ORIENTED_EDGE('',*,*,#602,.F.);
#602 = EDGE_CURVE('',#603,#185,#605,.T.);
#603 = VERTEX_POINT('',#604);
#604 = CARTESIAN_POINT('',(97.,92.95,2.3));
#605 = CIRCLE('',#606,7.85);
#606 = AXIS2_PLACEMENT_3D('',#607,#608,#609);
#607 = CARTESIAN_POINT('',(97.,85.1,2.3));
#608 = DIRECTION('',(0.,0.,1.));
#609 = DIRECTION('',(-1.,0.,0.));
#610 = ORIENTED_EDGE('',*,*,#611,.T.);
#611 = EDGE_CURVE('',#603,#612,#614,.T.);
#612 = VERTEX_POINT('',#613);
#613 = CARTESIAN_POINT('',(155.2,92.95,2.3));
#614 = LINE('',#615,#616);
#615 = CARTESIAN_POINT('',(87.075,92.95,2.3));
#616 = VECTOR('',#617,1.);
#617 = DIRECTION('',(1.,0.,0.));
#618 = ORIENTED_EDGE('',*,*,#619,.F.);
#619 = EDGE_CURVE('',#620,#612,#622,.T.);
#620 = VERTEX_POINT('',#621);
#621 = CARTESIAN_POINT('',(163.05,85.1,2.3));
#622 = CIRCLE('',#623,7.85);
#623 = AXIS2_PLACEMENT_3D('',#624,#625,#626);
#624 = CARTESIAN_POINT('',(155.2,85.1,2.3));
#625 = DIRECTION('',(0.,0.,1.));
#626 = DIRECTION('',(1.,0.,0.));
#627 = ORIENTED_EDGE('',*,*,#628,.T.);
#628 = EDGE_CURVE('',#620,#629,#631,.T.);
#629 = VERTEX_POINT('',#630);
#630 = CARTESIAN_POINT('',(164.14,85.1,2.3));
#631 = LINE('',#632,#633);
#632 = CARTESIAN_POINT('',(85.,85.1,2.3));
#633 = VECTOR('',#634,1.);
#634 = DIRECTION('',(1.,0.,0.));
#635 = ORIENTED_EDGE('',*,*,#636,.T.);
#636 = EDGE_CURVE('',#629,#637,#639,.T.);
#637 = VERTEX_POINT('',#638);
#638 = CARTESIAN_POINT('',(155.2,94.04,2.3));
#639 = CIRCLE('',#640,8.94);
#640 = AXIS2_PLACEMENT_3D('',#641,#642,#643);
#641 = CARTESIAN_POINT('',(155.2,85.1,2.3));
#642 = DIRECTION('',(0.,0.,1.));
#643 = DIRECTION('',(1.,0.,0.));
#644 = ORIENTED_EDGE('',*,*,#645,.F.);
#645 = EDGE_CURVE('',#249,#637,#646,.T.);
#646 = LINE('',#647,#648);
#647 = CARTESIAN_POINT('',(86.53,94.04,2.3));
#648 = VECTOR('',#649,1.);
#649 = DIRECTION('',(1.,0.,0.));
#650 = PLANE('',#651);
#651 = AXIS2_PLACEMENT_3D('',#652,#653,#654);
#652 = CARTESIAN_POINT('',(85.,85.1,2.3));
#653 = DIRECTION('',(0.,0.,1.));
#654 = DIRECTION('',(0.,1.,0.));
#655 = ADVANCED_FACE('',(#656),#689,.T.);
#656 = FACE_BOUND('',#657,.T.);
#657 = EDGE_LOOP('',(#658,#668,#674,#675,#683));
#658 = ORIENTED_EDGE('',*,*,#659,.T.);
#659 = EDGE_CURVE('',#660,#662,#664,.T.);
#660 = VERTEX_POINT('',#661);
#661 = CARTESIAN_POINT('',(89.15,63.8,0.8));
#662 = VERTEX_POINT('',#663);
#663 = CARTESIAN_POINT('',(89.15,85.1,0.8));
#664 = LINE('',#665,#666);
#665 = CARTESIAN_POINT('',(89.15,55.95,0.8));
#666 = VECTOR('',#667,1.);
#667 = DIRECTION('',(0.,1.,0.));
#668 = ORIENTED_EDGE('',*,*,#669,.T.);
#669 = EDGE_CURVE('',#662,#185,#670,.T.);
#670 = LINE('',#671,#672);
#671 = CARTESIAN_POINT('',(89.15,85.1,0.8));
#672 = VECTOR('',#673,1.);
#673 = DIRECTION('',(0.,0.,1.));
#674 = ORIENTED_EDGE('',*,*,#184,.T.);
#675 = ORIENTED_EDGE('',*,*,#676,.T.);
#676 = EDGE_CURVE('',#177,#677,#679,.T.);
#677 = VERTEX_POINT('',#678);
#678 = CARTESIAN_POINT('',(89.15,63.8,13.05));
#679 = LINE('',#680,#681);
#680 = CARTESIAN_POINT('',(89.15,85.1,13.05));
#681 = VECTOR('',#682,1.);
#682 = DIRECTION('',(0.,-1.,0.));
#683 = ORIENTED_EDGE('',*,*,#684,.F.);
#684 = EDGE_CURVE('',#660,#677,#685,.T.);
#685 = LINE('',#686,#687);
#686 = CARTESIAN_POINT('',(89.15,63.8,0.8));
#687 = VECTOR('',#688,1.);
#688 = DIRECTION('',(0.,0.,1.));
#689 = PLANE('',#690);
#690 = AXIS2_PLACEMENT_3D('',#691,#692,#693);
#691 = CARTESIAN_POINT('',(89.15,55.95,0.8));
#692 = DIRECTION('',(1.,0.,0.));
#693 = DIRECTION('',(0.,0.,1.));
#694 = ADVANCED_FACE('',(#695),#706,.T.);
#695 = FACE_BOUND('',#696,.T.);
#696 = EDGE_LOOP('',(#697,#698,#699,#705));
#697 = ORIENTED_EDGE('',*,*,#176,.T.);
#698 = ORIENTED_EDGE('',*,*,#461,.T.);
#699 = ORIENTED_EDGE('',*,*,#700,.T.);
#700 = EDGE_CURVE('',#453,#677,#701,.T.);
#701 = LINE('',#702,#703);
#702 = CARTESIAN_POINT('',(89.15,63.8,13.05));
#703 = VECTOR('',#704,1.);
#704 = DIRECTION('',(0.707106781187,0.,-0.707106781187));
#705 = ORIENTED_EDGE('',*,*,#676,.F.);
#706 = PLANE('',#707);
#707 = AXIS2_PLACEMENT_3D('',#708,#709,#710);
#708 = CARTESIAN_POINT('',(89.075,85.1,13.125));
#709 = DIRECTION('',(0.707106781187,0.,0.707106781187));
#710 = DIRECTION('',(0.,-1.,0.));
#711 = ADVANCED_FACE('',(#712),#765,.F.);
#712 = FACE_BOUND('',#713,.F.);
#713 = EDGE_LOOP('',(#714,#715,#716,#724,#733,#741,#750,#758));
#714 = ORIENTED_EDGE('',*,*,#224,.F.);
#715 = ORIENTED_EDGE('',*,*,#486,.F.);
#716 = ORIENTED_EDGE('',*,*,#717,.F.);
#717 = EDGE_CURVE('',#718,#477,#720,.T.);
#718 = VERTEX_POINT('',#719);
#719 = CARTESIAN_POINT('',(155.2,55.21,0.));
#720 = LINE('',#721,#722);
#721 = CARTESIAN_POINT('',(155.2,55.21,0.));
#722 = VECTOR('',#723,1.);
#723 = DIRECTION('',(-1.,0.,0.));
#724 = ORIENTED_EDGE('',*,*,#725,.F.);
#725 = EDGE_CURVE('',#726,#718,#728,.T.);
#726 = VERTEX_POINT('',#727);
#727 = CARTESIAN_POINT('',(163.79,63.8,0.));
#728 = CIRCLE('',#729,8.59);
#729 = AXIS2_PLACEMENT_3D('',#730,#731,#732);
#730 = CARTESIAN_POINT('',(155.2,63.8,0.));
#731 = DIRECTION('',(0.,0.,-1.));
#732 = DIRECTION('',(1.,0.,0.));
#733 = ORIENTED_EDGE('',*,*,#734,.F.);
#734 = EDGE_CURVE('',#735,#726,#737,.T.);
#735 = VERTEX_POINT('',#736);
#736 = CARTESIAN_POINT('',(163.79,85.1,0.));
#737 = LINE('',#738,#739);
#738 = CARTESIAN_POINT('',(163.79,85.1,0.));
#739 = VECTOR('',#740,1.);
#740 = DIRECTION('',(0.,-1.,0.));
#741 = ORIENTED_EDGE('',*,*,#742,.F.);
#742 = EDGE_CURVE('',#743,#735,#745,.T.);
#743 = VERTEX_POINT('',#744);
#744 = CARTESIAN_POINT('',(155.2,93.69,0.));
#745 = CIRCLE('',#746,8.59);
#746 = AXIS2_PLACEMENT_3D('',#747,#748,#749);
#747 = CARTESIAN_POINT('',(155.2,85.1,0.));
#748 = DIRECTION('',(0.,0.,-1.));
#749 = DIRECTION('',(0.,1.,0.));
#750 = ORIENTED_EDGE('',*,*,#751,.F.);
#751 = EDGE_CURVE('',#752,#743,#754,.T.);
#752 = VERTEX_POINT('',#753);
#753 = CARTESIAN_POINT('',(97.,93.69,0.));
#754 = LINE('',#755,#756);
#755 = CARTESIAN_POINT('',(97.,93.69,0.));
#756 = VECTOR('',#757,1.);
#757 = DIRECTION('',(1.,0.,0.));
#758 = ORIENTED_EDGE('',*,*,#759,.F.);
#759 = EDGE_CURVE('',#217,#752,#760,.T.);
#760 = CIRCLE('',#761,8.59);
#761 = AXIS2_PLACEMENT_3D('',#762,#763,#764);
#762 = CARTESIAN_POINT('',(97.,85.1,0.));
#763 = DIRECTION('',(0.,0.,-1.));
#764 = DIRECTION('',(-1.,0.,0.));
#765 = PLANE('',#766);
#766 = AXIS2_PLACEMENT_3D('',#767,#768,#769);
#767 = CARTESIAN_POINT('',(88.06,54.86,0.));
#768 = DIRECTION('',(0.,0.,1.));
#769 = DIRECTION('',(1.,0.,0.));
#770 = ADVANCED_FACE('',(#771),#782,.T.);
#771 = FACE_BOUND('',#772,.T.);
#772 = EDGE_LOOP('',(#773,#774,#775,#781));
#773 = ORIENTED_EDGE('',*,*,#216,.F.);
#774 = ORIENTED_EDGE('',*,*,#239,.T.);
#775 = ORIENTED_EDGE('',*,*,#776,.T.);
#776 = EDGE_CURVE('',#240,#752,#777,.T.);
#777 = LINE('',#778,#779);
#778 = CARTESIAN_POINT('',(97.,94.04,0.35));
#779 = VECTOR('',#780,1.);
#780 = DIRECTION('',(4.329780281177E-17,-0.707106781187,-0.707106781187)
  );
#781 = ORIENTED_EDGE('',*,*,#759,.F.);
#782 = CONICAL_SURFACE('',#783,8.94,0.785398163397);
#783 = AXIS2_PLACEMENT_3D('',#784,#785,#786);
#784 = CARTESIAN_POINT('',(97.,85.1,0.35));
#785 = DIRECTION('',(0.,0.,1.));
#786 = DIRECTION('',(-1.,0.,0.));
#787 = ADVANCED_FACE('',(#788),#806,.T.);
#788 = FACE_BOUND('',#789,.T.);
#789 = EDGE_LOOP('',(#790,#798,#799,#800));
#790 = ORIENTED_EDGE('',*,*,#791,.F.);
#791 = EDGE_CURVE('',#240,#792,#794,.T.);
#792 = VERTEX_POINT('',#793);
#793 = CARTESIAN_POINT('',(155.2,94.04,0.35));
#794 = LINE('',#795,#796);
#795 = CARTESIAN_POINT('',(97.,94.04,0.35));
#796 = VECTOR('',#797,1.);
#797 = DIRECTION('',(1.,0.,0.));
#798 = ORIENTED_EDGE('',*,*,#248,.T.);
#799 = ORIENTED_EDGE('',*,*,#645,.T.);
#800 = ORIENTED_EDGE('',*,*,#801,.F.);
#801 = EDGE_CURVE('',#792,#637,#802,.T.);
#802 = LINE('',#803,#804);
#803 = CARTESIAN_POINT('',(155.2,94.04,0.));
#804 = VECTOR('',#805,1.);
#805 = DIRECTION('',(0.,0.,1.));
#806 = PLANE('',#807);
#807 = AXIS2_PLACEMENT_3D('',#808,#809,#810);
#808 = CARTESIAN_POINT('',(88.06,94.04,0.));
#809 = DIRECTION('',(0.,1.,0.));
#810 = DIRECTION('',(0.,0.,1.));
#811 = ADVANCED_FACE('',(#812),#818,.F.);
#812 = FACE_BOUND('',#813,.F.);
#813 = EDGE_LOOP('',(#814,#815,#816,#817));
#814 = ORIENTED_EDGE('',*,*,#280,.T.);
#815 = ORIENTED_EDGE('',*,*,#304,.T.);
#816 = ORIENTED_EDGE('',*,*,#326,.F.);
#817 = ORIENTED_EDGE('',*,*,#352,.F.);
#818 = PLANE('',#819);
#819 = AXIS2_PLACEMENT_3D('',#820,#821,#822);
#820 = CARTESIAN_POINT('',(87.82,72.45,7.));
#821 = DIRECTION('',(1.,0.,0.));
#822 = DIRECTION('',(0.,0.,1.));
#823 = ADVANCED_FACE('',(#824),#835,.F.);
#824 = FACE_BOUND('',#825,.F.);
#825 = EDGE_LOOP('',(#826,#832,#833,#834));
#826 = ORIENTED_EDGE('',*,*,#827,.F.);
#827 = EDGE_CURVE('',#503,#395,#828,.T.);
#828 = LINE('',#829,#830);
#829 = CARTESIAN_POINT('',(155.2,54.86,13.05));
#830 = VECTOR('',#831,1.);
#831 = DIRECTION('',(-4.329780281178E-17,0.707106781187,0.707106781187)
  );
#832 = ORIENTED_EDGE('',*,*,#502,.T.);
#833 = ORIENTED_EDGE('',*,*,#367,.T.);
#834 = ORIENTED_EDGE('',*,*,#394,.F.);
#835 = PLANE('',#836);
#836 = AXIS2_PLACEMENT_3D('',#837,#838,#839);
#837 = CARTESIAN_POINT('',(155.2,54.935,13.125));
#838 = DIRECTION('',(0.,0.707106781187,-0.707106781187));
#839 = DIRECTION('',(-1.,0.,0.));
#840 = ADVANCED_FACE('',(#841),#860,.F.);
#841 = FACE_BOUND('',#842,.T.);
#842 = EDGE_LOOP('',(#843,#844,#845,#853));
#843 = ORIENTED_EDGE('',*,*,#700,.F.);
#844 = ORIENTED_EDGE('',*,*,#452,.T.);
#845 = ORIENTED_EDGE('',*,*,#846,.T.);
#846 = EDGE_CURVE('',#445,#847,#849,.T.);
#847 = VERTEX_POINT('',#848);
#848 = CARTESIAN_POINT('',(97.,55.95,13.05));
#849 = LINE('',#850,#851);
#850 = CARTESIAN_POINT('',(97.,55.95,13.05));
#851 = VECTOR('',#852,1.);
#852 = DIRECTION('',(4.329780281177E-17,0.707106781187,-0.707106781187)
  );
#853 = ORIENTED_EDGE('',*,*,#854,.F.);
#854 = EDGE_CURVE('',#677,#847,#855,.T.);
#855 = CIRCLE('',#856,7.85);
#856 = AXIS2_PLACEMENT_3D('',#857,#858,#859);
#857 = CARTESIAN_POINT('',(97.,63.8,13.05));
#858 = DIRECTION('',(0.,0.,1.));
#859 = DIRECTION('',(-1.,0.,0.));
#860 = CONICAL_SURFACE('',#861,7.85,0.785398163397);
#861 = AXIS2_PLACEMENT_3D('',#862,#863,#864);
#862 = CARTESIAN_POINT('',(97.,63.8,13.05));
#863 = DIRECTION('',(0.,0.,1.));
#864 = DIRECTION('',(-1.,0.,0.));
#865 = ADVANCED_FACE('',(#866),#884,.T.);
#866 = FACE_BOUND('',#867,.T.);
#867 = EDGE_LOOP('',(#868,#869,#870,#878));
#868 = ORIENTED_EDGE('',*,*,#846,.F.);
#869 = ORIENTED_EDGE('',*,*,#444,.T.);
#870 = ORIENTED_EDGE('',*,*,#871,.T.);
#871 = EDGE_CURVE('',#436,#872,#874,.T.);
#872 = VERTEX_POINT('',#873);
#873 = CARTESIAN_POINT('',(155.2,55.95,13.05));
#874 = LINE('',#875,#876);
#875 = CARTESIAN_POINT('',(155.2,55.875,13.125));
#876 = VECTOR('',#877,1.);
#877 = DIRECTION('',(0.,0.707106781187,-0.707106781187));
#878 = ORIENTED_EDGE('',*,*,#879,.F.);
#879 = EDGE_CURVE('',#847,#872,#880,.T.);
#880 = LINE('',#881,#882);
#881 = CARTESIAN_POINT('',(97.,55.95,13.05));
#882 = VECTOR('',#883,1.);
#883 = DIRECTION('',(1.,0.,0.));
#884 = PLANE('',#885);
#885 = AXIS2_PLACEMENT_3D('',#886,#887,#888);
#886 = CARTESIAN_POINT('',(97.,55.875,13.125));
#887 = DIRECTION('',(0.,0.707106781187,0.707106781187));
#888 = DIRECTION('',(1.,0.,0.));
#889 = ADVANCED_FACE('',(#890),#909,.F.);
#890 = FACE_BOUND('',#891,.T.);
#891 = EDGE_LOOP('',(#892,#893,#894,#902));
#892 = ORIENTED_EDGE('',*,*,#871,.F.);
#893 = ORIENTED_EDGE('',*,*,#435,.T.);
#894 = ORIENTED_EDGE('',*,*,#895,.T.);
#895 = EDGE_CURVE('',#428,#896,#898,.T.);
#896 = VERTEX_POINT('',#897);
#897 = CARTESIAN_POINT('',(163.05,63.8,13.05));
#898 = LINE('',#899,#900);
#899 = CARTESIAN_POINT('',(163.05,63.8,13.05));
#900 = VECTOR('',#901,1.);
#901 = DIRECTION('',(-0.707106781187,4.329780281178E-17,-0.707106781187)
  );
#902 = ORIENTED_EDGE('',*,*,#903,.F.);
#903 = EDGE_CURVE('',#872,#896,#904,.T.);
#904 = CIRCLE('',#905,7.85);
#905 = AXIS2_PLACEMENT_3D('',#906,#907,#908);
#906 = CARTESIAN_POINT('',(155.2,63.8,13.05));
#907 = DIRECTION('',(-0.,0.,1.));
#908 = DIRECTION('',(0.,-1.,0.));
#909 = CONICAL_SURFACE('',#910,7.85,0.785398163397);
#910 = AXIS2_PLACEMENT_3D('',#911,#912,#913);
#911 = CARTESIAN_POINT('',(155.2,63.8,13.05));
#912 = DIRECTION('',(0.,0.,1.));
#913 = DIRECTION('',(0.,-1.,0.));
#914 = ADVANCED_FACE('',(#915),#933,.F.);
#915 = FACE_BOUND('',#916,.T.);
#916 = EDGE_LOOP('',(#917,#918,#919,#927));
#917 = ORIENTED_EDGE('',*,*,#895,.F.);
#918 = ORIENTED_EDGE('',*,*,#427,.T.);
#919 = ORIENTED_EDGE('',*,*,#920,.T.);
#920 = EDGE_CURVE('',#420,#921,#923,.T.);
#921 = VERTEX_POINT('',#922);
#922 = CARTESIAN_POINT('',(163.05,81.15504587156,13.05));
#923 = LINE('',#924,#925);
#924 = CARTESIAN_POINT('',(146.33523480009,87.288904660516,
    -3.664765199905));
#925 = VECTOR('',#926,1.);
#926 = DIRECTION('',(-0.684439001163,0.251170275656,-0.684439001163));
#927 = ORIENTED_EDGE('',*,*,#928,.F.);
#928 = EDGE_CURVE('',#896,#921,#929,.T.);
#929 = LINE('',#930,#931);
#930 = CARTESIAN_POINT('',(163.05,63.8,13.05));
#931 = VECTOR('',#932,1.);
#932 = DIRECTION('',(0.,1.,0.));
#933 = PLANE('',#934);
#934 = AXIS2_PLACEMENT_3D('',#935,#936,#937);
#935 = CARTESIAN_POINT('',(163.125,63.8,13.125));
#936 = DIRECTION('',(0.707106781187,0.,-0.707106781187));
#937 = DIRECTION('',(-0.,-1.,-0.));
#938 = ADVANCED_FACE('',(#939),#964,.T.);
#939 = FACE_BOUND('',#940,.T.);
#940 = EDGE_LOOP('',(#941,#942,#943,#951,#957,#958));
#941 = ORIENTED_EDGE('',*,*,#920,.F.);
#942 = ORIENTED_EDGE('',*,*,#419,.T.);
#943 = ORIENTED_EDGE('',*,*,#944,.T.);
#944 = EDGE_CURVE('',#412,#945,#947,.T.);
#945 = VERTEX_POINT('',#946);
#946 = CARTESIAN_POINT('',(164.14,81.15504587156,13.05));
#947 = LINE('',#948,#949);
#948 = CARTESIAN_POINT('',(145.86725652551,74.449451935967,
    31.322743474489));
#949 = VECTOR('',#950,1.);
#950 = DIRECTION('',(0.684439001163,0.251170275656,-0.684439001163));
#951 = ORIENTED_EDGE('',*,*,#952,.F.);
#952 = EDGE_CURVE('',#629,#945,#953,.T.);
#953 = LINE('',#954,#955);
#954 = CARTESIAN_POINT('',(164.14,81.677405237,11.626570729174));
#955 = VECTOR('',#956,1.);
#956 = DIRECTION('',(0.,-0.344507703036,0.938783490773));
#957 = ORIENTED_EDGE('',*,*,#628,.F.);
#958 = ORIENTED_EDGE('',*,*,#959,.T.);
#959 = EDGE_CURVE('',#620,#921,#960,.T.);
#960 = LINE('',#961,#962);
#961 = CARTESIAN_POINT('',(163.05,81.612721608189,11.802833617684));
#962 = VECTOR('',#963,1.);
#963 = DIRECTION('',(0.,-0.344507703036,0.938783490773));
#964 = PLANE('',#965);
#965 = AXIS2_PLACEMENT_3D('',#966,#967,#968);
#966 = CARTESIAN_POINT('',(85.,81.1,13.2));
#967 = DIRECTION('',(0.,0.938783490773,0.344507703036));
#968 = DIRECTION('',(0.,0.344507703036,-0.938783490773));
#969 = ADVANCED_FACE('',(#970),#988,.T.);
#970 = FACE_BOUND('',#971,.F.);
#971 = EDGE_LOOP('',(#972,#973,#981,#987));
#972 = ORIENTED_EDGE('',*,*,#944,.T.);
#973 = ORIENTED_EDGE('',*,*,#974,.T.);
#974 = EDGE_CURVE('',#945,#975,#977,.T.);
#975 = VERTEX_POINT('',#976);
#976 = CARTESIAN_POINT('',(164.14,63.8,13.05));
#977 = LINE('',#978,#979);
#978 = CARTESIAN_POINT('',(164.14,85.1,13.05));
#979 = VECTOR('',#980,1.);
#980 = DIRECTION('',(0.,-1.,0.));
#981 = ORIENTED_EDGE('',*,*,#982,.T.);
#982 = EDGE_CURVE('',#975,#403,#983,.T.);
#983 = LINE('',#984,#985);
#984 = CARTESIAN_POINT('',(164.065,63.8,13.125));
#985 = VECTOR('',#986,1.);
#986 = DIRECTION('',(-0.707106781187,0.,0.707106781187));
#987 = ORIENTED_EDGE('',*,*,#411,.F.);
#988 = PLANE('',#989);
#989 = AXIS2_PLACEMENT_3D('',#990,#991,#992);
#990 = CARTESIAN_POINT('',(164.065,85.1,13.125));
#991 = DIRECTION('',(0.707106781187,1.735113744859E-18,0.707106781187));
#992 = DIRECTION('',(-1.226910695119E-18,1.,-1.22691069512E-18));
#993 = ADVANCED_FACE('',(#994),#1006,.T.);
#994 = FACE_BOUND('',#995,.F.);
#995 = EDGE_LOOP('',(#996,#997,#1004,#1005));
#996 = ORIENTED_EDGE('',*,*,#982,.F.);
#997 = ORIENTED_EDGE('',*,*,#998,.T.);
#998 = EDGE_CURVE('',#975,#503,#999,.T.);
#999 = CIRCLE('',#1000,8.94);
#1000 = AXIS2_PLACEMENT_3D('',#1001,#1002,#1003);
#1001 = CARTESIAN_POINT('',(155.2,63.8,13.05));
#1002 = DIRECTION('',(0.,0.,-1.));
#1003 = DIRECTION('',(1.,0.,0.));
#1004 = ORIENTED_EDGE('',*,*,#827,.T.);
#1005 = ORIENTED_EDGE('',*,*,#402,.F.);
#1006 = CONICAL_SURFACE('',#1007,8.94,0.785398163397);
#1007 = AXIS2_PLACEMENT_3D('',#1008,#1009,#1010);
#1008 = CARTESIAN_POINT('',(155.2,63.8,13.05));
#1009 = DIRECTION('',(-0.,-0.,-1.));
#1010 = DIRECTION('',(1.,0.,0.));
#1011 = ADVANCED_FACE('',(#1012),#1023,.T.);
#1012 = FACE_BOUND('',#1013,.T.);
#1013 = EDGE_LOOP('',(#1014,#1020,#1021,#1022));
#1014 = ORIENTED_EDGE('',*,*,#1015,.F.);
#1015 = EDGE_CURVE('',#511,#718,#1016,.T.);
#1016 = LINE('',#1017,#1018);
#1017 = CARTESIAN_POINT('',(155.2,54.86,0.35));
#1018 = VECTOR('',#1019,1.);
#1019 = DIRECTION('',(-4.329780281177E-17,0.707106781187,-0.707106781187
    ));
#1020 = ORIENTED_EDGE('',*,*,#518,.T.);
#1021 = ORIENTED_EDGE('',*,*,#476,.T.);
#1022 = ORIENTED_EDGE('',*,*,#717,.F.);
#1023 = PLANE('',#1024);
#1024 = AXIS2_PLACEMENT_3D('',#1025,#1026,#1027);
#1025 = CARTESIAN_POINT('',(155.2,55.035,0.175));
#1026 = DIRECTION('',(-3.473694424484E-18,-0.707106781187,
    -0.707106781187));
#1027 = DIRECTION('',(-1.,2.456272883323E-18,2.456272883323E-18));
#1028 = ADVANCED_FACE('',(#1029),#1048,.T.);
#1029 = FACE_BOUND('',#1030,.F.);
#1030 = EDGE_LOOP('',(#1031,#1039,#1046,#1047));
#1031 = ORIENTED_EDGE('',*,*,#1032,.F.);
#1032 = EDGE_CURVE('',#1033,#975,#1035,.T.);
#1033 = VERTEX_POINT('',#1034);
#1034 = CARTESIAN_POINT('',(164.14,63.8,0.35));
#1035 = LINE('',#1036,#1037);
#1036 = CARTESIAN_POINT('',(164.14,63.8,0.));
#1037 = VECTOR('',#1038,1.);
#1038 = DIRECTION('',(0.,0.,1.));
#1039 = ORIENTED_EDGE('',*,*,#1040,.T.);
#1040 = EDGE_CURVE('',#1033,#511,#1041,.T.);
#1041 = CIRCLE('',#1042,8.94);
#1042 = AXIS2_PLACEMENT_3D('',#1043,#1044,#1045);
#1043 = CARTESIAN_POINT('',(155.2,63.8,0.35));
#1044 = DIRECTION('',(0.,0.,-1.));
#1045 = DIRECTION('',(1.,0.,0.));
#1046 = ORIENTED_EDGE('',*,*,#510,.T.);
#1047 = ORIENTED_EDGE('',*,*,#998,.F.);
#1048 = CYLINDRICAL_SURFACE('',#1049,8.94);
#1049 = AXIS2_PLACEMENT_3D('',#1050,#1051,#1052);
#1050 = CARTESIAN_POINT('',(155.2,63.8,0.));
#1051 = DIRECTION('',(0.,0.,1.));
#1052 = DIRECTION('',(1.,0.,0.));
#1053 = ADVANCED_FACE('',(#1054),#1079,.T.);
#1054 = FACE_BOUND('',#1055,.T.);
#1055 = EDGE_LOOP('',(#1056,#1057,#1065,#1073));
#1056 = ORIENTED_EDGE('',*,*,#526,.F.);
#1057 = ORIENTED_EDGE('',*,*,#1058,.T.);
#1058 = EDGE_CURVE('',#527,#1059,#1061,.T.);
#1059 = VERTEX_POINT('',#1060);
#1060 = CARTESIAN_POINT('',(105.,54.62,7.));
#1061 = LINE('',#1062,#1063);
#1062 = CARTESIAN_POINT('',(105.,54.86,6.2));
#1063 = VECTOR('',#1064,1.);
#1064 = DIRECTION('',(0.,-0.287347885566,0.957826285221));
#1065 = ORIENTED_EDGE('',*,*,#1066,.T.);
#1066 = EDGE_CURVE('',#1059,#1067,#1069,.T.);
#1067 = VERTEX_POINT('',#1068);
#1068 = CARTESIAN_POINT('',(105.,54.62,10.));
#1069 = LINE('',#1070,#1071);
#1070 = CARTESIAN_POINT('',(105.,54.62,7.));
#1071 = VECTOR('',#1072,1.);
#1072 = DIRECTION('',(0.,0.,1.));
#1073 = ORIENTED_EDGE('',*,*,#1074,.T.);
#1074 = EDGE_CURVE('',#1067,#529,#1075,.T.);
#1075 = LINE('',#1076,#1077);
#1076 = CARTESIAN_POINT('',(105.,54.62,10.));
#1077 = VECTOR('',#1078,1.);
#1078 = DIRECTION('',(0.,0.287347885566,0.957826285221));
#1079 = PLANE('',#1080);
#1080 = AXIS2_PLACEMENT_3D('',#1081,#1082,#1083);
#1081 = CARTESIAN_POINT('',(105.,54.853764165647,8.5));
#1082 = DIRECTION('',(-1.,-0.,-0.));
#1083 = DIRECTION('',(0.,0.,-1.));
#1084 = ADVANCED_FACE('',(#1085),#1103,.T.);
#1085 = FACE_BOUND('',#1086,.T.);
#1086 = EDGE_LOOP('',(#1087,#1088,#1096,#1102));
#1087 = ORIENTED_EDGE('',*,*,#536,.T.);
#1088 = ORIENTED_EDGE('',*,*,#1089,.T.);
#1089 = EDGE_CURVE('',#537,#1090,#1092,.T.);
#1090 = VERTEX_POINT('',#1091);
#1091 = CARTESIAN_POINT('',(109.,54.62,7.));
#1092 = LINE('',#1093,#1094);
#1093 = CARTESIAN_POINT('',(109.,54.86,6.2));
#1094 = VECTOR('',#1095,1.);
#1095 = DIRECTION('',(0.,-0.287347885566,0.957826285221));
#1096 = ORIENTED_EDGE('',*,*,#1097,.F.);
#1097 = EDGE_CURVE('',#1059,#1090,#1098,.T.);
#1098 = LINE('',#1099,#1100);
#1099 = CARTESIAN_POINT('',(105.,54.62,7.));
#1100 = VECTOR('',#1101,1.);
#1101 = DIRECTION('',(1.,0.,0.));
#1102 = ORIENTED_EDGE('',*,*,#1058,.F.);
#1103 = PLANE('',#1104);
#1104 = AXIS2_PLACEMENT_3D('',#1105,#1106,#1107);
#1105 = CARTESIAN_POINT('',(105.,54.86,6.2));
#1106 = DIRECTION('',(0.,-0.957826285221,-0.287347885566));
#1107 = DIRECTION('',(0.,-0.287347885566,0.957826285221));
#1108 = ADVANCED_FACE('',(#1109),#1127,.T.);
#1109 = FACE_BOUND('',#1110,.T.);
#1110 = EDGE_LOOP('',(#1111,#1119,#1125,#1126));
#1111 = ORIENTED_EDGE('',*,*,#1112,.T.);
#1112 = EDGE_CURVE('',#1067,#1113,#1115,.T.);
#1113 = VERTEX_POINT('',#1114);
#1114 = CARTESIAN_POINT('',(109.,54.62,10.));
#1115 = LINE('',#1116,#1117);
#1116 = CARTESIAN_POINT('',(105.,54.62,10.));
#1117 = VECTOR('',#1118,1.);
#1118 = DIRECTION('',(1.,0.,0.));
#1119 = ORIENTED_EDGE('',*,*,#1120,.T.);
#1120 = EDGE_CURVE('',#1113,#545,#1121,.T.);
#1121 = LINE('',#1122,#1123);
#1122 = CARTESIAN_POINT('',(109.,54.62,10.));
#1123 = VECTOR('',#1124,1.);
#1124 = DIRECTION('',(0.,0.287347885566,0.957826285221));
#1125 = ORIENTED_EDGE('',*,*,#552,.F.);
#1126 = ORIENTED_EDGE('',*,*,#1074,.F.);
#1127 = PLANE('',#1128);
#1128 = AXIS2_PLACEMENT_3D('',#1129,#1130,#1131);
#1129 = CARTESIAN_POINT('',(105.,54.62,10.));
#1130 = DIRECTION('',(0.,-0.957826285221,0.287347885566));
#1131 = DIRECTION('',(0.,0.287347885566,0.957826285221));
#1132 = ADVANCED_FACE('',(#1133),#1144,.F.);
#1133 = FACE_BOUND('',#1134,.F.);
#1134 = EDGE_LOOP('',(#1135,#1136,#1137,#1143));
#1135 = ORIENTED_EDGE('',*,*,#544,.F.);
#1136 = ORIENTED_EDGE('',*,*,#1089,.T.);
#1137 = ORIENTED_EDGE('',*,*,#1138,.T.);
#1138 = EDGE_CURVE('',#1090,#1113,#1139,.T.);
#1139 = LINE('',#1140,#1141);
#1140 = CARTESIAN_POINT('',(109.,54.62,7.));
#1141 = VECTOR('',#1142,1.);
#1142 = DIRECTION('',(0.,0.,1.));
#1143 = ORIENTED_EDGE('',*,*,#1120,.T.);
#1144 = PLANE('',#1145);
#1145 = AXIS2_PLACEMENT_3D('',#1146,#1147,#1148);
#1146 = CARTESIAN_POINT('',(109.,54.853764165647,8.5));
#1147 = DIRECTION('',(-1.,-0.,-0.));
#1148 = DIRECTION('',(0.,0.,-1.));
#1149 = ADVANCED_FACE('',(#1150),#1175,.T.);
#1150 = FACE_BOUND('',#1151,.T.);
#1151 = EDGE_LOOP('',(#1152,#1153,#1161,#1169));
#1152 = ORIENTED_EDGE('',*,*,#560,.F.);
#1153 = ORIENTED_EDGE('',*,*,#1154,.T.);
#1154 = EDGE_CURVE('',#561,#1155,#1157,.T.);
#1155 = VERTEX_POINT('',#1156);
#1156 = CARTESIAN_POINT('',(143.2,54.62,7.));
#1157 = LINE('',#1158,#1159);
#1158 = CARTESIAN_POINT('',(143.2,54.86,6.2));
#1159 = VECTOR('',#1160,1.);
#1160 = DIRECTION('',(0.,-0.287347885566,0.957826285221));
#1161 = ORIENTED_EDGE('',*,*,#1162,.T.);
#1162 = EDGE_CURVE('',#1155,#1163,#1165,.T.);
#1163 = VERTEX_POINT('',#1164);
#1164 = CARTESIAN_POINT('',(143.2,54.62,10.));
#1165 = LINE('',#1166,#1167);
#1166 = CARTESIAN_POINT('',(143.2,54.62,7.));
#1167 = VECTOR('',#1168,1.);
#1168 = DIRECTION('',(0.,0.,1.));
#1169 = ORIENTED_EDGE('',*,*,#1170,.T.);
#1170 = EDGE_CURVE('',#1163,#563,#1171,.T.);
#1171 = LINE('',#1172,#1173);
#1172 = CARTESIAN_POINT('',(143.2,54.62,10.));
#1173 = VECTOR('',#1174,1.);
#1174 = DIRECTION('',(0.,0.287347885566,0.957826285221));
#1175 = PLANE('',#1176);
#1176 = AXIS2_PLACEMENT_3D('',#1177,#1178,#1179);
#1177 = CARTESIAN_POINT('',(143.2,54.853764165647,8.5));
#1178 = DIRECTION('',(-1.,-0.,-0.));
#1179 = DIRECTION('',(0.,0.,-1.));
#1180 = ADVANCED_FACE('',(#1181),#1199,.T.);
#1181 = FACE_BOUND('',#1182,.T.);
#1182 = EDGE_LOOP('',(#1183,#1191,#1197,#1198));
#1183 = ORIENTED_EDGE('',*,*,#1184,.T.);
#1184 = EDGE_CURVE('',#1163,#1185,#1187,.T.);
#1185 = VERTEX_POINT('',#1186);
#1186 = CARTESIAN_POINT('',(147.2,54.62,10.));
#1187 = LINE('',#1188,#1189);
#1188 = CARTESIAN_POINT('',(143.2,54.62,10.));
#1189 = VECTOR('',#1190,1.);
#1190 = DIRECTION('',(1.,0.,0.));
#1191 = ORIENTED_EDGE('',*,*,#1192,.T.);
#1192 = EDGE_CURVE('',#1185,#579,#1193,.T.);
#1193 = LINE('',#1194,#1195);
#1194 = CARTESIAN_POINT('',(147.2,54.62,10.));
#1195 = VECTOR('',#1196,1.);
#1196 = DIRECTION('',(0.,0.287347885566,0.957826285221));
#1197 = ORIENTED_EDGE('',*,*,#586,.F.);
#1198 = ORIENTED_EDGE('',*,*,#1170,.F.);
#1199 = PLANE('',#1200);
#1200 = AXIS2_PLACEMENT_3D('',#1201,#1202,#1203);
#1201 = CARTESIAN_POINT('',(143.2,54.62,10.));
#1202 = DIRECTION('',(0.,-0.957826285221,0.287347885566));
#1203 = DIRECTION('',(0.,0.287347885566,0.957826285221));
#1204 = ADVANCED_FACE('',(#1205),#1223,.F.);
#1205 = FACE_BOUND('',#1206,.F.);
#1206 = EDGE_LOOP('',(#1207,#1208,#1216,#1222));
#1207 = ORIENTED_EDGE('',*,*,#578,.F.);
#1208 = ORIENTED_EDGE('',*,*,#1209,.T.);
#1209 = EDGE_CURVE('',#571,#1210,#1212,.T.);
#1210 = VERTEX_POINT('',#1211);
#1211 = CARTESIAN_POINT('',(147.2,54.62,7.));
#1212 = LINE('',#1213,#1214);
#1213 = CARTESIAN_POINT('',(147.2,54.86,6.2));
#1214 = VECTOR('',#1215,1.);
#1215 = DIRECTION('',(0.,-0.287347885566,0.957826285221));
#1216 = ORIENTED_EDGE('',*,*,#1217,.T.);
#1217 = EDGE_CURVE('',#1210,#1185,#1218,.T.);
#1218 = LINE('',#1219,#1220);
#1219 = CARTESIAN_POINT('',(147.2,54.62,7.));
#1220 = VECTOR('',#1221,1.);
#1221 = DIRECTION('',(0.,0.,1.));
#1222 = ORIENTED_EDGE('',*,*,#1192,.T.);
#1223 = PLANE('',#1224);
#1224 = AXIS2_PLACEMENT_3D('',#1225,#1226,#1227);
#1225 = CARTESIAN_POINT('',(147.2,54.853764165647,8.5));
#1226 = DIRECTION('',(-1.,-0.,-0.));
#1227 = DIRECTION('',(0.,0.,-1.));
#1228 = ADVANCED_FACE('',(#1229),#1240,.T.);
#1229 = FACE_BOUND('',#1230,.T.);
#1230 = EDGE_LOOP('',(#1231,#1232,#1233,#1239));
#1231 = ORIENTED_EDGE('',*,*,#570,.T.);
#1232 = ORIENTED_EDGE('',*,*,#1209,.T.);
#1233 = ORIENTED_EDGE('',*,*,#1234,.F.);
#1234 = EDGE_CURVE('',#1155,#1210,#1235,.T.);
#1235 = LINE('',#1236,#1237);
#1236 = CARTESIAN_POINT('',(143.2,54.62,7.));
#1237 = VECTOR('',#1238,1.);
#1238 = DIRECTION('',(1.,0.,0.));
#1239 = ORIENTED_EDGE('',*,*,#1154,.F.);
#1240 = PLANE('',#1241);
#1241 = AXIS2_PLACEMENT_3D('',#1242,#1243,#1244);
#1242 = CARTESIAN_POINT('',(143.2,54.86,6.2));
#1243 = DIRECTION('',(0.,-0.957826285221,-0.287347885566));
#1244 = DIRECTION('',(0.,-0.287347885566,0.957826285221));
#1245 = ADVANCED_FACE('',(#1246),#1265,.T.);
#1246 = FACE_BOUND('',#1247,.T.);
#1247 = EDGE_LOOP('',(#1248,#1256,#1263,#1264));
#1248 = ORIENTED_EDGE('',*,*,#1249,.F.);
#1249 = EDGE_CURVE('',#1250,#629,#1252,.T.);
#1250 = VERTEX_POINT('',#1251);
#1251 = CARTESIAN_POINT('',(164.14,85.1,0.35));
#1252 = LINE('',#1253,#1254);
#1253 = CARTESIAN_POINT('',(164.14,85.1,0.));
#1254 = VECTOR('',#1255,1.);
#1255 = DIRECTION('',(0.,0.,1.));
#1256 = ORIENTED_EDGE('',*,*,#1257,.F.);
#1257 = EDGE_CURVE('',#792,#1250,#1258,.T.);
#1258 = CIRCLE('',#1259,8.94);
#1259 = AXIS2_PLACEMENT_3D('',#1260,#1261,#1262);
#1260 = CARTESIAN_POINT('',(155.2,85.1,0.35));
#1261 = DIRECTION('',(0.,0.,-1.));
#1262 = DIRECTION('',(0.,1.,0.));
#1263 = ORIENTED_EDGE('',*,*,#801,.T.);
#1264 = ORIENTED_EDGE('',*,*,#636,.F.);
#1265 = CYLINDRICAL_SURFACE('',#1266,8.94);
#1266 = AXIS2_PLACEMENT_3D('',#1267,#1268,#1269);
#1267 = CARTESIAN_POINT('',(155.2,85.1,0.));
#1268 = DIRECTION('',(0.,0.,1.));
#1269 = DIRECTION('',(1.,0.,0.));
#1270 = ADVANCED_FACE('',(#1271),#1297,.F.);
#1271 = FACE_BOUND('',#1272,.F.);
#1272 = EDGE_LOOP('',(#1273,#1281,#1290,#1296));
#1273 = ORIENTED_EDGE('',*,*,#1274,.F.);
#1274 = EDGE_CURVE('',#1275,#620,#1277,.T.);
#1275 = VERTEX_POINT('',#1276);
#1276 = CARTESIAN_POINT('',(163.05,85.1,0.8));
#1277 = LINE('',#1278,#1279);
#1278 = CARTESIAN_POINT('',(163.05,85.1,0.8));
#1279 = VECTOR('',#1280,1.);
#1280 = DIRECTION('',(0.,0.,1.));
#1281 = ORIENTED_EDGE('',*,*,#1282,.T.);
#1282 = EDGE_CURVE('',#1275,#1283,#1285,.T.);
#1283 = VERTEX_POINT('',#1284);
#1284 = CARTESIAN_POINT('',(155.2,92.95,0.8));
#1285 = CIRCLE('',#1286,7.85);
#1286 = AXIS2_PLACEMENT_3D('',#1287,#1288,#1289);
#1287 = CARTESIAN_POINT('',(155.2,85.1,0.8));
#1288 = DIRECTION('',(-0.,0.,1.));
#1289 = DIRECTION('',(0.,-1.,0.));
#1290 = ORIENTED_EDGE('',*,*,#1291,.T.);
#1291 = EDGE_CURVE('',#1283,#612,#1292,.T.);
#1292 = LINE('',#1293,#1294);
#1293 = CARTESIAN_POINT('',(155.2,92.95,0.8));
#1294 = VECTOR('',#1295,1.);
#1295 = DIRECTION('',(0.,0.,1.));
#1296 = ORIENTED_EDGE('',*,*,#619,.F.);
#1297 = CYLINDRICAL_SURFACE('',#1298,7.85);
#1298 = AXIS2_PLACEMENT_3D('',#1299,#1300,#1301);
#1299 = CARTESIAN_POINT('',(155.2,85.1,0.8));
#1300 = DIRECTION('',(0.,0.,1.));
#1301 = DIRECTION('',(1.,0.,0.));
#1302 = ADVANCED_FACE('',(#1303),#1321,.F.);
#1303 = FACE_BOUND('',#1304,.F.);
#1304 = EDGE_LOOP('',(#1305,#1306,#1314,#1320));
#1305 = ORIENTED_EDGE('',*,*,#1291,.F.);
#1306 = ORIENTED_EDGE('',*,*,#1307,.F.);
#1307 = EDGE_CURVE('',#1308,#1283,#1310,.T.);
#1308 = VERTEX_POINT('',#1309);
#1309 = CARTESIAN_POINT('',(97.,92.95,0.8));
#1310 = LINE('',#1311,#1312);
#1311 = CARTESIAN_POINT('',(89.15,92.95,0.8));
#1312 = VECTOR('',#1313,1.);
#1313 = DIRECTION('',(1.,0.,0.));
#1314 = ORIENTED_EDGE('',*,*,#1315,.T.);
#1315 = EDGE_CURVE('',#1308,#603,#1316,.T.);
#1316 = LINE('',#1317,#1318);
#1317 = CARTESIAN_POINT('',(97.,92.95,0.8));
#1318 = VECTOR('',#1319,1.);
#1319 = DIRECTION('',(0.,0.,1.));
#1320 = ORIENTED_EDGE('',*,*,#611,.T.);
#1321 = PLANE('',#1322);
#1322 = AXIS2_PLACEMENT_3D('',#1323,#1324,#1325);
#1323 = CARTESIAN_POINT('',(89.15,92.95,0.8));
#1324 = DIRECTION('',(0.,1.,0.));
#1325 = DIRECTION('',(0.,0.,1.));
#1326 = ADVANCED_FACE('',(#1327),#1339,.F.);
#1327 = FACE_BOUND('',#1328,.T.);
#1328 = EDGE_LOOP('',(#1329,#1330,#1337,#1338));
#1329 = ORIENTED_EDGE('',*,*,#669,.F.);
#1330 = ORIENTED_EDGE('',*,*,#1331,.T.);
#1331 = EDGE_CURVE('',#662,#1308,#1332,.T.);
#1332 = CIRCLE('',#1333,7.85);
#1333 = AXIS2_PLACEMENT_3D('',#1334,#1335,#1336);
#1334 = CARTESIAN_POINT('',(97.,85.1,0.8));
#1335 = DIRECTION('',(-0.,-0.,-1.));
#1336 = DIRECTION('',(0.,-1.,0.));
#1337 = ORIENTED_EDGE('',*,*,#1315,.T.);
#1338 = ORIENTED_EDGE('',*,*,#602,.T.);
#1339 = CYLINDRICAL_SURFACE('',#1340,7.85);
#1340 = AXIS2_PLACEMENT_3D('',#1341,#1342,#1343);
#1341 = CARTESIAN_POINT('',(97.,85.1,0.8));
#1342 = DIRECTION('',(0.,0.,1.));
#1343 = DIRECTION('',(-1.,0.,0.));
#1344 = ADVANCED_FACE('',(#1345),#1383,.T.);
#1345 = FACE_BOUND('',#1346,.T.);
#1346 = EDGE_LOOP('',(#1347,#1348,#1357,#1365,#1374,#1380,#1381,#1382));
#1347 = ORIENTED_EDGE('',*,*,#659,.F.);
#1348 = ORIENTED_EDGE('',*,*,#1349,.T.);
#1349 = EDGE_CURVE('',#660,#1350,#1352,.T.);
#1350 = VERTEX_POINT('',#1351);
#1351 = CARTESIAN_POINT('',(97.,55.95,0.8));
#1352 = CIRCLE('',#1353,7.85);
#1353 = AXIS2_PLACEMENT_3D('',#1354,#1355,#1356);
#1354 = CARTESIAN_POINT('',(97.,63.8,0.8));
#1355 = DIRECTION('',(-0.,0.,1.));
#1356 = DIRECTION('',(0.,-1.,0.));
#1357 = ORIENTED_EDGE('',*,*,#1358,.T.);
#1358 = EDGE_CURVE('',#1350,#1359,#1361,.T.);
#1359 = VERTEX_POINT('',#1360);
#1360 = CARTESIAN_POINT('',(155.2,55.95,0.8));
#1361 = LINE('',#1362,#1363);
#1362 = CARTESIAN_POINT('',(89.15,55.95,0.8));
#1363 = VECTOR('',#1364,1.);
#1364 = DIRECTION('',(1.,0.,0.));
#1365 = ORIENTED_EDGE('',*,*,#1366,.F.);
#1366 = EDGE_CURVE('',#1367,#1359,#1369,.T.);
#1367 = VERTEX_POINT('',#1368);
#1368 = CARTESIAN_POINT('',(163.05,63.8,0.8));
#1369 = CIRCLE('',#1370,7.85);
#1370 = AXIS2_PLACEMENT_3D('',#1371,#1372,#1373);
#1371 = CARTESIAN_POINT('',(155.2,63.8,0.8));
#1372 = DIRECTION('',(-0.,-0.,-1.));
#1373 = DIRECTION('',(0.,-1.,0.));
#1374 = ORIENTED_EDGE('',*,*,#1375,.T.);
#1375 = EDGE_CURVE('',#1367,#1275,#1376,.T.);
#1376 = LINE('',#1377,#1378);
#1377 = CARTESIAN_POINT('',(163.05,55.95,0.8));
#1378 = VECTOR('',#1379,1.);
#1379 = DIRECTION('',(0.,1.,0.));
#1380 = ORIENTED_EDGE('',*,*,#1282,.T.);
#1381 = ORIENTED_EDGE('',*,*,#1307,.F.);
#1382 = ORIENTED_EDGE('',*,*,#1331,.F.);
#1383 = PLANE('',#1384);
#1384 = AXIS2_PLACEMENT_3D('',#1385,#1386,#1387);
#1385 = CARTESIAN_POINT('',(89.15,55.95,0.8));
#1386 = DIRECTION('',(0.,0.,1.));
#1387 = DIRECTION('',(1.,0.,0.));
#1388 = ADVANCED_FACE('',(#1389),#1400,.F.);
#1389 = FACE_BOUND('',#1390,.F.);
#1390 = EDGE_LOOP('',(#1391,#1392,#1393,#1399));
#1391 = ORIENTED_EDGE('',*,*,#684,.F.);
#1392 = ORIENTED_EDGE('',*,*,#1349,.T.);
#1393 = ORIENTED_EDGE('',*,*,#1394,.T.);
#1394 = EDGE_CURVE('',#1350,#847,#1395,.T.);
#1395 = LINE('',#1396,#1397);
#1396 = CARTESIAN_POINT('',(97.,55.95,0.8));
#1397 = VECTOR('',#1398,1.);
#1398 = DIRECTION('',(0.,0.,1.));
#1399 = ORIENTED_EDGE('',*,*,#854,.F.);
#1400 = CYLINDRICAL_SURFACE('',#1401,7.85);
#1401 = AXIS2_PLACEMENT_3D('',#1402,#1403,#1404);
#1402 = CARTESIAN_POINT('',(97.,63.8,0.8));
#1403 = DIRECTION('',(0.,0.,1.));
#1404 = DIRECTION('',(-1.,0.,0.));
#1405 = ADVANCED_FACE('',(#1406),#1417,.F.);
#1406 = FACE_BOUND('',#1407,.T.);
#1407 = EDGE_LOOP('',(#1408,#1409,#1410,#1416));
#1408 = ORIENTED_EDGE('',*,*,#776,.F.);
#1409 = ORIENTED_EDGE('',*,*,#791,.T.);
#1410 = ORIENTED_EDGE('',*,*,#1411,.T.);
#1411 = EDGE_CURVE('',#792,#743,#1412,.T.);
#1412 = LINE('',#1413,#1414);
#1413 = CARTESIAN_POINT('',(155.2,93.865,0.175));
#1414 = VECTOR('',#1415,1.);
#1415 = DIRECTION('',(-0.,-0.707106781187,-0.707106781187));
#1416 = ORIENTED_EDGE('',*,*,#751,.F.);
#1417 = PLANE('',#1418);
#1418 = AXIS2_PLACEMENT_3D('',#1419,#1420,#1421);
#1419 = CARTESIAN_POINT('',(97.,93.865,0.175));
#1420 = DIRECTION('',(3.473694424484E-18,-0.707106781187,0.707106781187)
  );
#1421 = DIRECTION('',(-1.,-2.456272883323E-18,2.456272883323E-18));
#1422 = ADVANCED_FACE('',(#1423),#1434,.T.);
#1423 = FACE_BOUND('',#1424,.T.);
#1424 = EDGE_LOOP('',(#1425,#1431,#1432,#1433));
#1425 = ORIENTED_EDGE('',*,*,#1426,.F.);
#1426 = EDGE_CURVE('',#1033,#726,#1427,.T.);
#1427 = LINE('',#1428,#1429);
#1428 = CARTESIAN_POINT('',(163.965,63.8,0.175));
#1429 = VECTOR('',#1430,1.);
#1430 = DIRECTION('',(-0.707106781187,-0.,-0.707106781187));
#1431 = ORIENTED_EDGE('',*,*,#1040,.T.);
#1432 = ORIENTED_EDGE('',*,*,#1015,.T.);
#1433 = ORIENTED_EDGE('',*,*,#725,.F.);
#1434 = CONICAL_SURFACE('',#1435,8.94,0.785398163397);
#1435 = AXIS2_PLACEMENT_3D('',#1436,#1437,#1438);
#1436 = CARTESIAN_POINT('',(155.2,63.8,0.35));
#1437 = DIRECTION('',(0.,0.,1.));
#1438 = DIRECTION('',(1.,0.,0.));
#1439 = ADVANCED_FACE('',(#1440),#1451,.T.);
#1440 = FACE_BOUND('',#1441,.T.);
#1441 = EDGE_LOOP('',(#1442,#1443,#1444,#1450));
#1442 = ORIENTED_EDGE('',*,*,#1411,.F.);
#1443 = ORIENTED_EDGE('',*,*,#1257,.T.);
#1444 = ORIENTED_EDGE('',*,*,#1445,.T.);
#1445 = EDGE_CURVE('',#1250,#735,#1446,.T.);
#1446 = LINE('',#1447,#1448);
#1447 = CARTESIAN_POINT('',(164.14,85.1,0.35));
#1448 = VECTOR('',#1449,1.);
#1449 = DIRECTION('',(-0.707106781187,-4.329780281177E-17,
    -0.707106781187));
#1450 = ORIENTED_EDGE('',*,*,#742,.F.);
#1451 = CONICAL_SURFACE('',#1452,8.94,0.785398163397);
#1452 = AXIS2_PLACEMENT_3D('',#1453,#1454,#1455);
#1453 = CARTESIAN_POINT('',(155.2,85.1,0.35));
#1454 = DIRECTION('',(0.,0.,1.));
#1455 = DIRECTION('',(0.,1.,0.));
#1456 = ADVANCED_FACE('',(#1457),#1468,.F.);
#1457 = FACE_BOUND('',#1458,.T.);
#1458 = EDGE_LOOP('',(#1459,#1460,#1466,#1467));
#1459 = ORIENTED_EDGE('',*,*,#1445,.F.);
#1460 = ORIENTED_EDGE('',*,*,#1461,.T.);
#1461 = EDGE_CURVE('',#1250,#1033,#1462,.T.);
#1462 = LINE('',#1463,#1464);
#1463 = CARTESIAN_POINT('',(164.14,85.1,0.35));
#1464 = VECTOR('',#1465,1.);
#1465 = DIRECTION('',(0.,-1.,0.));
#1466 = ORIENTED_EDGE('',*,*,#1426,.T.);
#1467 = ORIENTED_EDGE('',*,*,#734,.F.);
#1468 = PLANE('',#1469);
#1469 = AXIS2_PLACEMENT_3D('',#1470,#1471,#1472);
#1470 = CARTESIAN_POINT('',(163.965,85.1,0.175));
#1471 = DIRECTION('',(-0.707106781187,0.,0.707106781187));
#1472 = DIRECTION('',(0.,1.,0.));
#1473 = ADVANCED_FACE('',(#1474),#1485,.T.);
#1474 = FACE_BOUND('',#1475,.T.);
#1475 = EDGE_LOOP('',(#1476,#1482,#1483,#1484));
#1476 = ORIENTED_EDGE('',*,*,#1477,.F.);
#1477 = EDGE_CURVE('',#1359,#872,#1478,.T.);
#1478 = LINE('',#1479,#1480);
#1479 = CARTESIAN_POINT('',(155.2,55.95,0.8));
#1480 = VECTOR('',#1481,1.);
#1481 = DIRECTION('',(0.,0.,1.));
#1482 = ORIENTED_EDGE('',*,*,#1358,.F.);
#1483 = ORIENTED_EDGE('',*,*,#1394,.T.);
#1484 = ORIENTED_EDGE('',*,*,#879,.T.);
#1485 = PLANE('',#1486);
#1486 = AXIS2_PLACEMENT_3D('',#1487,#1488,#1489);
#1487 = CARTESIAN_POINT('',(89.15,55.95,0.8));
#1488 = DIRECTION('',(0.,1.,0.));
#1489 = DIRECTION('',(0.,0.,1.));
#1490 = ADVANCED_FACE('',(#1491),#1502,.F.);
#1491 = FACE_BOUND('',#1492,.T.);
#1492 = EDGE_LOOP('',(#1493,#1499,#1500,#1501));
#1493 = ORIENTED_EDGE('',*,*,#1494,.F.);
#1494 = EDGE_CURVE('',#1367,#896,#1495,.T.);
#1495 = LINE('',#1496,#1497);
#1496 = CARTESIAN_POINT('',(163.05,63.8,0.8));
#1497 = VECTOR('',#1498,1.);
#1498 = DIRECTION('',(0.,0.,1.));
#1499 = ORIENTED_EDGE('',*,*,#1366,.T.);
#1500 = ORIENTED_EDGE('',*,*,#1477,.T.);
#1501 = ORIENTED_EDGE('',*,*,#903,.T.);
#1502 = CYLINDRICAL_SURFACE('',#1503,7.85);
#1503 = AXIS2_PLACEMENT_3D('',#1504,#1505,#1506);
#1504 = CARTESIAN_POINT('',(155.2,63.8,0.8));
#1505 = DIRECTION('',(0.,0.,1.));
#1506 = DIRECTION('',(1.,0.,0.));
#1507 = ADVANCED_FACE('',(#1508),#1515,.F.);
#1508 = FACE_BOUND('',#1509,.F.);
#1509 = EDGE_LOOP('',(#1510,#1511,#1512,#1513,#1514));
#1510 = ORIENTED_EDGE('',*,*,#1375,.T.);
#1511 = ORIENTED_EDGE('',*,*,#1274,.T.);
#1512 = ORIENTED_EDGE('',*,*,#959,.T.);
#1513 = ORIENTED_EDGE('',*,*,#928,.F.);
#1514 = ORIENTED_EDGE('',*,*,#1494,.F.);
#1515 = PLANE('',#1516);
#1516 = AXIS2_PLACEMENT_3D('',#1517,#1518,#1519);
#1517 = CARTESIAN_POINT('',(163.05,55.95,0.8));
#1518 = DIRECTION('',(1.,0.,0.));
#1519 = DIRECTION('',(0.,0.,1.));
#1520 = ADVANCED_FACE('',(#1521,#1528),#1562,.T.);
#1521 = FACE_BOUND('',#1522,.T.);
#1522 = EDGE_LOOP('',(#1523,#1524,#1525,#1526,#1527));
#1523 = ORIENTED_EDGE('',*,*,#974,.T.);
#1524 = ORIENTED_EDGE('',*,*,#1032,.F.);
#1525 = ORIENTED_EDGE('',*,*,#1461,.F.);
#1526 = ORIENTED_EDGE('',*,*,#1249,.T.);
#1527 = ORIENTED_EDGE('',*,*,#952,.T.);
#1528 = FACE_BOUND('',#1529,.T.);
#1529 = EDGE_LOOP('',(#1530,#1540,#1548,#1556));
#1530 = ORIENTED_EDGE('',*,*,#1531,.F.);
#1531 = EDGE_CURVE('',#1532,#1534,#1536,.T.);
#1532 = VERTEX_POINT('',#1533);
#1533 = CARTESIAN_POINT('',(164.14,72.45,6.2));
#1534 = VERTEX_POINT('',#1535);
#1535 = CARTESIAN_POINT('',(164.14,76.45,6.2));
#1536 = LINE('',#1537,#1538);
#1537 = CARTESIAN_POINT('',(164.14,72.45,6.2));
#1538 = VECTOR('',#1539,1.);
#1539 = DIRECTION('',(0.,1.,0.));
#1540 = ORIENTED_EDGE('',*,*,#1541,.F.);
#1541 = EDGE_CURVE('',#1542,#1532,#1544,.T.);
#1542 = VERTEX_POINT('',#1543);
#1543 = CARTESIAN_POINT('',(164.14,72.45,10.8));
#1544 = LINE('',#1545,#1546);
#1545 = CARTESIAN_POINT('',(164.14,72.45,4.25));
#1546 = VECTOR('',#1547,1.);
#1547 = DIRECTION('',(0.,0.,-1.));
#1548 = ORIENTED_EDGE('',*,*,#1549,.T.);
#1549 = EDGE_CURVE('',#1542,#1550,#1552,.T.);
#1550 = VERTEX_POINT('',#1551);
#1551 = CARTESIAN_POINT('',(164.14,76.45,10.8));
#1552 = LINE('',#1553,#1554);
#1553 = CARTESIAN_POINT('',(164.14,72.45,10.8));
#1554 = VECTOR('',#1555,1.);
#1555 = DIRECTION('',(0.,1.,0.));
#1556 = ORIENTED_EDGE('',*,*,#1557,.T.);
#1557 = EDGE_CURVE('',#1550,#1534,#1558,.T.);
#1558 = LINE('',#1559,#1560);
#1559 = CARTESIAN_POINT('',(164.14,76.45,4.25));
#1560 = VECTOR('',#1561,1.);
#1561 = DIRECTION('',(0.,0.,-1.));
#1562 = PLANE('',#1563);
#1563 = AXIS2_PLACEMENT_3D('',#1564,#1565,#1566);
#1564 = CARTESIAN_POINT('',(164.14,54.86,0.));
#1565 = DIRECTION('',(1.,0.,0.));
#1566 = DIRECTION('',(0.,0.,1.));
#1567 = ADVANCED_FACE('',(#1568),#1574,.T.);
#1568 = FACE_BOUND('',#1569,.T.);
#1569 = EDGE_LOOP('',(#1570,#1571,#1572,#1573));
#1570 = ORIENTED_EDGE('',*,*,#1097,.T.);
#1571 = ORIENTED_EDGE('',*,*,#1138,.T.);
#1572 = ORIENTED_EDGE('',*,*,#1112,.F.);
#1573 = ORIENTED_EDGE('',*,*,#1066,.F.);
#1574 = PLANE('',#1575);
#1575 = AXIS2_PLACEMENT_3D('',#1576,#1577,#1578);
#1576 = CARTESIAN_POINT('',(105.,54.62,7.));
#1577 = DIRECTION('',(0.,-1.,0.));
#1578 = DIRECTION('',(0.,0.,1.));
#1579 = ADVANCED_FACE('',(#1580),#1586,.T.);
#1580 = FACE_BOUND('',#1581,.T.);
#1581 = EDGE_LOOP('',(#1582,#1583,#1584,#1585));
#1582 = ORIENTED_EDGE('',*,*,#1234,.T.);
#1583 = ORIENTED_EDGE('',*,*,#1217,.T.);
#1584 = ORIENTED_EDGE('',*,*,#1184,.F.);
#1585 = ORIENTED_EDGE('',*,*,#1162,.F.);
#1586 = PLANE('',#1587);
#1587 = AXIS2_PLACEMENT_3D('',#1588,#1589,#1590);
#1588 = CARTESIAN_POINT('',(143.2,54.62,7.));
#1589 = DIRECTION('',(0.,-1.,0.));
#1590 = DIRECTION('',(0.,0.,1.));
#1591 = ADVANCED_FACE('',(#1592),#1617,.T.);
#1592 = FACE_BOUND('',#1593,.T.);
#1593 = EDGE_LOOP('',(#1594,#1595,#1603,#1611));
#1594 = ORIENTED_EDGE('',*,*,#1531,.T.);
#1595 = ORIENTED_EDGE('',*,*,#1596,.T.);
#1596 = EDGE_CURVE('',#1534,#1597,#1599,.T.);
#1597 = VERTEX_POINT('',#1598);
#1598 = CARTESIAN_POINT('',(164.38,76.45,7.));
#1599 = LINE('',#1600,#1601);
#1600 = CARTESIAN_POINT('',(164.14,76.45,6.2));
#1601 = VECTOR('',#1602,1.);
#1602 = DIRECTION('',(0.287347885566,0.,0.957826285221));
#1603 = ORIENTED_EDGE('',*,*,#1604,.F.);
#1604 = EDGE_CURVE('',#1605,#1597,#1607,.T.);
#1605 = VERTEX_POINT('',#1606);
#1606 = CARTESIAN_POINT('',(164.38,72.45,7.));
#1607 = LINE('',#1608,#1609);
#1608 = CARTESIAN_POINT('',(164.38,72.45,7.));
#1609 = VECTOR('',#1610,1.);
#1610 = DIRECTION('',(0.,1.,0.));
#1611 = ORIENTED_EDGE('',*,*,#1612,.F.);
#1612 = EDGE_CURVE('',#1532,#1605,#1613,.T.);
#1613 = LINE('',#1614,#1615);
#1614 = CARTESIAN_POINT('',(164.14,72.45,6.2));
#1615 = VECTOR('',#1616,1.);
#1616 = DIRECTION('',(0.287347885566,0.,0.957826285221));
#1617 = PLANE('',#1618);
#1618 = AXIS2_PLACEMENT_3D('',#1619,#1620,#1621);
#1619 = CARTESIAN_POINT('',(164.14,72.45,6.2));
#1620 = DIRECTION('',(0.957826285221,0.,-0.287347885566));
#1621 = DIRECTION('',(0.287347885566,0.,0.957826285221));
#1622 = ADVANCED_FACE('',(#1623),#1641,.F.);
#1623 = FACE_BOUND('',#1624,.F.);
#1624 = EDGE_LOOP('',(#1625,#1626,#1627,#1635));
#1625 = ORIENTED_EDGE('',*,*,#1557,.T.);
#1626 = ORIENTED_EDGE('',*,*,#1596,.T.);
#1627 = ORIENTED_EDGE('',*,*,#1628,.T.);
#1628 = EDGE_CURVE('',#1597,#1629,#1631,.T.);
#1629 = VERTEX_POINT('',#1630);
#1630 = CARTESIAN_POINT('',(164.38,76.45,10.));
#1631 = LINE('',#1632,#1633);
#1632 = CARTESIAN_POINT('',(164.38,76.45,7.));
#1633 = VECTOR('',#1634,1.);
#1634 = DIRECTION('',(0.,0.,1.));
#1635 = ORIENTED_EDGE('',*,*,#1636,.T.);
#1636 = EDGE_CURVE('',#1629,#1550,#1637,.T.);
#1637 = LINE('',#1638,#1639);
#1638 = CARTESIAN_POINT('',(164.38,76.45,10.));
#1639 = VECTOR('',#1640,1.);
#1640 = DIRECTION('',(-0.287347885566,0.,0.957826285221));
#1641 = PLANE('',#1642);
#1642 = AXIS2_PLACEMENT_3D('',#1643,#1644,#1645);
#1643 = CARTESIAN_POINT('',(164.14623583435,76.45,8.5));
#1644 = DIRECTION('',(-0.,-1.,-0.));
#1645 = DIRECTION('',(0.,0.,-1.));
#1646 = ADVANCED_FACE('',(#1647),#1665,.T.);
#1647 = FACE_BOUND('',#1648,.T.);
#1648 = EDGE_LOOP('',(#1649,#1657,#1658,#1659));
#1649 = ORIENTED_EDGE('',*,*,#1650,.T.);
#1650 = EDGE_CURVE('',#1651,#1629,#1653,.T.);
#1651 = VERTEX_POINT('',#1652);
#1652 = CARTESIAN_POINT('',(164.38,72.45,10.));
#1653 = LINE('',#1654,#1655);
#1654 = CARTESIAN_POINT('',(164.38,72.45,10.));
#1655 = VECTOR('',#1656,1.);
#1656 = DIRECTION('',(0.,1.,0.));
#1657 = ORIENTED_EDGE('',*,*,#1636,.T.);
#1658 = ORIENTED_EDGE('',*,*,#1549,.F.);
#1659 = ORIENTED_EDGE('',*,*,#1660,.F.);
#1660 = EDGE_CURVE('',#1651,#1542,#1661,.T.);
#1661 = LINE('',#1662,#1663);
#1662 = CARTESIAN_POINT('',(164.38,72.45,10.));
#1663 = VECTOR('',#1664,1.);
#1664 = DIRECTION('',(-0.287347885566,0.,0.957826285221));
#1665 = PLANE('',#1666);
#1666 = AXIS2_PLACEMENT_3D('',#1667,#1668,#1669);
#1667 = CARTESIAN_POINT('',(164.38,72.45,10.));
#1668 = DIRECTION('',(0.957826285221,0.,0.287347885566));
#1669 = DIRECTION('',(-0.287347885566,0.,0.957826285221));
#1670 = ADVANCED_FACE('',(#1671),#1682,.T.);
#1671 = FACE_BOUND('',#1672,.T.);
#1672 = EDGE_LOOP('',(#1673,#1674,#1675,#1681));
#1673 = ORIENTED_EDGE('',*,*,#1541,.T.);
#1674 = ORIENTED_EDGE('',*,*,#1612,.T.);
#1675 = ORIENTED_EDGE('',*,*,#1676,.T.);
#1676 = EDGE_CURVE('',#1605,#1651,#1677,.T.);
#1677 = LINE('',#1678,#1679);
#1678 = CARTESIAN_POINT('',(164.38,72.45,7.));
#1679 = VECTOR('',#1680,1.);
#1680 = DIRECTION('',(0.,0.,1.));
#1681 = ORIENTED_EDGE('',*,*,#1660,.T.);
#1682 = PLANE('',#1683);
#1683 = AXIS2_PLACEMENT_3D('',#1684,#1685,#1686);
#1684 = CARTESIAN_POINT('',(164.14623583435,72.45,8.5));
#1685 = DIRECTION('',(-0.,-1.,-0.));
#1686 = DIRECTION('',(0.,0.,-1.));
#1687 = ADVANCED_FACE('',(#1688),#1694,.T.);
#1688 = FACE_BOUND('',#1689,.T.);
#1689 = EDGE_LOOP('',(#1690,#1691,#1692,#1693));
#1690 = ORIENTED_EDGE('',*,*,#1604,.T.);
#1691 = ORIENTED_EDGE('',*,*,#1628,.T.);
#1692 = ORIENTED_EDGE('',*,*,#1650,.F.);
#1693 = ORIENTED_EDGE('',*,*,#1676,.F.);
#1694 = PLANE('',#1695);
#1695 = AXIS2_PLACEMENT_3D('',#1696,#1697,#1698);
#1696 = CARTESIAN_POINT('',(164.38,72.45,7.));
#1697 = DIRECTION('',(1.,0.,0.));
#1698 = DIRECTION('',(0.,0.,1.));
#1699 = ( GEOMETRIC_REPRESENTATION_CONTEXT(3) 
GLOBAL_UNCERTAINTY_ASSIGNED_CONTEXT((#1703)) 
GLOBAL_UNIT_ASSIGNED_CONTEXT((#1700,#1701,#1702)) REPRESENTATION_CONTEXT
('Context #1','3D Context with UNIT and UNCERTAINTY') );
#1700 = ( LENGTH_UNIT() NAMED_UNIT(*) SI_UNIT(.MILLI.,.METRE.) );
#1701 = ( NAMED_UNIT(*) PLANE_ANGLE_UNIT() SI_UNIT($,.RADIAN.) );
#1702 = ( NAMED_UNIT(*) SI_UNIT($,.STERADIAN.) SOLID_ANGLE_UNIT() );
#1703 = UNCERTAINTY_MEASURE_WITH_UNIT(LENGTH_MEASURE(1.E-07),#1700,
  'distance_accuracy_value','confusion accuracy');
#1704 = PRODUCT_RELATED_PRODUCT_CATEGORY('part',$,(#7));
ENDSEC;
END-ISO-10303-21;
