ISO-10303-21;
HEADER;
FILE_DESCRIPTION(('FreeCAD Model'),'2;1');
FILE_NAME('Open CASCADE Shape Model','2026-10-02T22:08:34',('Author'),(
    ''),'Open CASCADE STEP processor 7.8','FreeCAD','Unknown');
FILE_SCHEMA(('AUTOMOTIVE_DESIGN { 1 0 10303 214 1 1 1 1 }'));
ENDSEC;
DATA;
#1 = APPLICATION_PROTOCOL_DEFINITION('international standard',
  'automotive_design',2000,#2);
#2 = APPLICATION_CONTEXT(
  'core data for automotive mechanical design processes');
#3 = SHAPE_DEFINITION_REPRESENTATION(#4,#10);
#4 = PRODUCT_DEFINITION_SHAPE('','',#5);
#5 = PRODUCT_DEFINITION('design','',#6,#9);
#6 = PRODUCT_DEFINITION_FORMATION('','',#7);
#7 = PRODUCT('DiceBox_Slim_Lid','DiceBox_Slim_Lid','',(#8));
#8 = PRODUCT_CONTEXT('',#2,'mechanical');
#9 = PRODUCT_DEFINITION_CONTEXT('part definition',#2,'design');
#10 = ADVANCED_BREP_SHAPE_REPRESENTATION('',(#11,#15),#2297);
#11 = AXIS2_PLACEMENT_3D('',#12,#13,#14);
#12 = CARTESIAN_POINT('',(0.,0.,0.));
#13 = DIRECTION('',(0.,0.,1.));
#14 = DIRECTION('',(1.,0.,-0.));
#15 = MANIFOLD_SOLID_BREP('',#16);
#16 = CLOSED_SHELL('',(#17,#89,#190,#215,#272,#296,#352,#376,#434,#451,
    #500,#549,#574,#599,#648,#679,#703,#727,#744,#768,#856,#881,#932,
    #963,#988,#1076,#1093,#1133,#1150,#1186,#1226,#1243,#1279,#1303,
    #1359,#1376,#1419,#1436,#1467,#1498,#1529,#1560,#1577,#1608,#1639,
    #1678,#1709,#1740,#1771,#1802,#1833,#1864,#1886,#1917,#1948,#1979,
    #2010,#2041,#2072,#2094,#2116,#2147,#2169,#2185,#2201,#2217,#2233,
    #2249,#2265,#2281));
#17 = ADVANCED_FACE('',(#18),#84,.F.);
#18 = FACE_BOUND('',#19,.F.);
#19 = EDGE_LOOP('',(#20,#30,#38,#46,#54,#62,#70,#78));
#20 = ORIENTED_EDGE('',*,*,#21,.F.);
#21 = EDGE_CURVE('',#22,#24,#26,.T.);
#22 = VERTEX_POINT('',#23);
#23 = CARTESIAN_POINT('',(-29.,-25.,15.6));
#24 = VERTEX_POINT('',#25);
#25 = CARTESIAN_POINT('',(-29.,25.,15.6));
#26 = LINE('',#27,#28);
#27 = CARTESIAN_POINT('',(-29.,-29.,15.6));
#28 = VECTOR('',#29,1.);
#29 = DIRECTION('',(-0.,1.,0.));
#30 = ORIENTED_EDGE('',*,*,#31,.F.);
#31 = EDGE_CURVE('',#32,#22,#34,.T.);
#32 = VERTEX_POINT('',#33);
#33 = CARTESIAN_POINT('',(-29.,-25.,5.8));
#34 = LINE('',#35,#36);
#35 = CARTESIAN_POINT('',(-29.,-25.,5.8));
#36 = VECTOR('',#37,1.);
#37 = DIRECTION('',(0.,0.,1.));
#38 = ORIENTED_EDGE('',*,*,#39,.T.);
#39 = EDGE_CURVE('',#32,#40,#42,.T.);
#40 = VERTEX_POINT('',#41);
#41 = CARTESIAN_POINT('',(-29.,-4.8,5.8));
#42 = LINE('',#43,#44);
#43 = CARTESIAN_POINT('',(-29.,-29.,5.8));
#44 = VECTOR('',#45,1.);
#45 = DIRECTION('',(-0.,1.,0.));
#46 = ORIENTED_EDGE('',*,*,#47,.T.);
#47 = EDGE_CURVE('',#40,#48,#50,.T.);
#48 = VERTEX_POINT('',#49);
#49 = CARTESIAN_POINT('',(-29.,-4.8,13.8));
#50 = LINE('',#51,#52);
#51 = CARTESIAN_POINT('',(-29.,-4.8,5.775));
#52 = VECTOR('',#53,1.);
#53 = DIRECTION('',(0.,-0.,1.));
#54 = ORIENTED_EDGE('',*,*,#55,.F.);
#55 = EDGE_CURVE('',#56,#48,#58,.T.);
#56 = VERTEX_POINT('',#57);
#57 = CARTESIAN_POINT('',(-29.,4.8,13.8));
#58 = LINE('',#59,#60);
#59 = CARTESIAN_POINT('',(-29.,-12.5,13.8));
#60 = VECTOR('',#61,1.);
#61 = DIRECTION('',(0.,-1.,0.));
#62 = ORIENTED_EDGE('',*,*,#63,.F.);
#63 = EDGE_CURVE('',#64,#56,#66,.T.);
#64 = VERTEX_POINT('',#65);
#65 = CARTESIAN_POINT('',(-29.,4.8,5.8));
#66 = LINE('',#67,#68);
#67 = CARTESIAN_POINT('',(-29.,4.8,5.775));
#68 = VECTOR('',#69,1.);
#69 = DIRECTION('',(0.,-0.,1.));
#70 = ORIENTED_EDGE('',*,*,#71,.T.);
#71 = EDGE_CURVE('',#64,#72,#74,.T.);
#72 = VERTEX_POINT('',#73);
#73 = CARTESIAN_POINT('',(-29.,25.,5.8));
#74 = LINE('',#75,#76);
#75 = CARTESIAN_POINT('',(-29.,-29.,5.8));
#76 = VECTOR('',#77,1.);
#77 = DIRECTION('',(-0.,1.,0.));
#78 = ORIENTED_EDGE('',*,*,#79,.T.);
#79 = EDGE_CURVE('',#72,#24,#80,.T.);
#80 = LINE('',#81,#82);
#81 = CARTESIAN_POINT('',(-29.,25.,5.8));
#82 = VECTOR('',#83,1.);
#83 = DIRECTION('',(0.,0.,1.));
#84 = PLANE('',#85);
#85 = AXIS2_PLACEMENT_3D('',#86,#87,#88);
#86 = CARTESIAN_POINT('',(-29.,-29.,5.8));
#87 = DIRECTION('',(1.,0.,-0.));
#88 = DIRECTION('',(0.,0.,1.));
#89 = ADVANCED_FACE('',(#90,#151),#185,.T.);
#90 = FACE_BOUND('',#91,.T.);
#91 = EDGE_LOOP('',(#92,#93,#102,#110,#119,#127,#136,#144));
#92 = ORIENTED_EDGE('',*,*,#21,.F.);
#93 = ORIENTED_EDGE('',*,*,#94,.T.);
#94 = EDGE_CURVE('',#22,#95,#97,.T.);
#95 = VERTEX_POINT('',#96);
#96 = CARTESIAN_POINT('',(-25.,-29.,15.6));
#97 = CIRCLE('',#98,4.);
#98 = AXIS2_PLACEMENT_3D('',#99,#100,#101);
#99 = CARTESIAN_POINT('',(-25.,-25.,15.6));
#100 = DIRECTION('',(0.,0.,1.));
#101 = DIRECTION('',(0.,-1.,0.));
#102 = ORIENTED_EDGE('',*,*,#103,.T.);
#103 = EDGE_CURVE('',#95,#104,#106,.T.);
#104 = VERTEX_POINT('',#105);
#105 = CARTESIAN_POINT('',(25.,-29.,15.6));
#106 = LINE('',#107,#108);
#107 = CARTESIAN_POINT('',(-29.,-29.,15.6));
#108 = VECTOR('',#109,1.);
#109 = DIRECTION('',(1.,0.,-0.));
#110 = ORIENTED_EDGE('',*,*,#111,.F.);
#111 = EDGE_CURVE('',#112,#104,#114,.T.);
#112 = VERTEX_POINT('',#113);
#113 = CARTESIAN_POINT('',(29.,-25.,15.6));
#114 = CIRCLE('',#115,4.);
#115 = AXIS2_PLACEMENT_3D('',#116,#117,#118);
#116 = CARTESIAN_POINT('',(25.,-25.,15.6));
#117 = DIRECTION('',(-0.,-0.,-1.));
#118 = DIRECTION('',(0.,-1.,0.));
#119 = ORIENTED_EDGE('',*,*,#120,.T.);
#120 = EDGE_CURVE('',#112,#121,#123,.T.);
#121 = VERTEX_POINT('',#122);
#122 = CARTESIAN_POINT('',(29.,25.,15.6));
#123 = LINE('',#124,#125);
#124 = CARTESIAN_POINT('',(29.,-29.,15.6));
#125 = VECTOR('',#126,1.);
#126 = DIRECTION('',(-0.,1.,0.));
#127 = ORIENTED_EDGE('',*,*,#128,.T.);
#128 = EDGE_CURVE('',#121,#129,#131,.T.);
#129 = VERTEX_POINT('',#130);
#130 = CARTESIAN_POINT('',(25.,29.,15.6));
#131 = CIRCLE('',#132,4.);
#132 = AXIS2_PLACEMENT_3D('',#133,#134,#135);
#133 = CARTESIAN_POINT('',(25.,25.,15.6));
#134 = DIRECTION('',(0.,0.,1.));
#135 = DIRECTION('',(0.,-1.,0.));
#136 = ORIENTED_EDGE('',*,*,#137,.F.);
#137 = EDGE_CURVE('',#138,#129,#140,.T.);
#138 = VERTEX_POINT('',#139);
#139 = CARTESIAN_POINT('',(-25.,29.,15.6));
#140 = LINE('',#141,#142);
#141 = CARTESIAN_POINT('',(-29.,29.,15.6));
#142 = VECTOR('',#143,1.);
#143 = DIRECTION('',(1.,0.,-0.));
#144 = ORIENTED_EDGE('',*,*,#145,.F.);
#145 = EDGE_CURVE('',#24,#138,#146,.T.);
#146 = CIRCLE('',#147,4.);
#147 = AXIS2_PLACEMENT_3D('',#148,#149,#150);
#148 = CARTESIAN_POINT('',(-25.,25.,15.6));
#149 = DIRECTION('',(-0.,-0.,-1.));
#150 = DIRECTION('',(0.,-1.,0.));
#151 = FACE_BOUND('',#152,.T.);
#152 = EDGE_LOOP('',(#153,#163,#171,#179));
#153 = ORIENTED_EDGE('',*,*,#154,.T.);
#154 = EDGE_CURVE('',#155,#157,#159,.T.);
#155 = VERTEX_POINT('',#156);
#156 = CARTESIAN_POINT('',(22.,-22.,15.6));
#157 = VERTEX_POINT('',#158);
#158 = CARTESIAN_POINT('',(-22.,-22.,15.6));
#159 = LINE('',#160,#161);
#160 = CARTESIAN_POINT('',(-25.5,-22.,15.6));
#161 = VECTOR('',#162,1.);
#162 = DIRECTION('',(-1.,-0.,0.));
#163 = ORIENTED_EDGE('',*,*,#164,.T.);
#164 = EDGE_CURVE('',#157,#165,#167,.T.);
#165 = VERTEX_POINT('',#166);
#166 = CARTESIAN_POINT('',(-22.,22.,15.6));
#167 = LINE('',#168,#169);
#168 = CARTESIAN_POINT('',(-22.,-25.5,15.6));
#169 = VECTOR('',#170,1.);
#170 = DIRECTION('',(-0.,1.,0.));
#171 = ORIENTED_EDGE('',*,*,#172,.F.);
#172 = EDGE_CURVE('',#173,#165,#175,.T.);
#173 = VERTEX_POINT('',#174);
#174 = CARTESIAN_POINT('',(22.,22.,15.6));
#175 = LINE('',#176,#177);
#176 = CARTESIAN_POINT('',(-25.5,22.,15.6));
#177 = VECTOR('',#178,1.);
#178 = DIRECTION('',(-1.,-0.,0.));
#179 = ORIENTED_EDGE('',*,*,#180,.F.);
#180 = EDGE_CURVE('',#155,#173,#181,.T.);
#181 = LINE('',#182,#183);
#182 = CARTESIAN_POINT('',(22.,-25.5,15.6));
#183 = VECTOR('',#184,1.);
#184 = DIRECTION('',(-0.,1.,0.));
#185 = PLANE('',#186);
#186 = AXIS2_PLACEMENT_3D('',#187,#188,#189);
#187 = CARTESIAN_POINT('',(-29.,-29.,15.6));
#188 = DIRECTION('',(0.,0.,1.));
#189 = DIRECTION('',(1.,0.,-0.));
#190 = ADVANCED_FACE('',(#191),#210,.T.);
#191 = FACE_BOUND('',#192,.F.);
#192 = EDGE_LOOP('',(#193,#202,#208,#209));
#193 = ORIENTED_EDGE('',*,*,#194,.T.);
#194 = EDGE_CURVE('',#72,#195,#197,.T.);
#195 = VERTEX_POINT('',#196);
#196 = CARTESIAN_POINT('',(-25.,29.,5.8));
#197 = CIRCLE('',#198,4.);
#198 = AXIS2_PLACEMENT_3D('',#199,#200,#201);
#199 = CARTESIAN_POINT('',(-25.,25.,5.8));
#200 = DIRECTION('',(-0.,-0.,-1.));
#201 = DIRECTION('',(0.,-1.,0.));
#202 = ORIENTED_EDGE('',*,*,#203,.T.);
#203 = EDGE_CURVE('',#195,#138,#204,.T.);
#204 = LINE('',#205,#206);
#205 = CARTESIAN_POINT('',(-25.,29.,5.8));
#206 = VECTOR('',#207,1.);
#207 = DIRECTION('',(0.,0.,1.));
#208 = ORIENTED_EDGE('',*,*,#145,.F.);
#209 = ORIENTED_EDGE('',*,*,#79,.F.);
#210 = CYLINDRICAL_SURFACE('',#211,4.);
#211 = AXIS2_PLACEMENT_3D('',#212,#213,#214);
#212 = CARTESIAN_POINT('',(-25.,25.,5.8));
#213 = DIRECTION('',(0.,0.,1.));
#214 = DIRECTION('',(-1.,-0.,0.));
#215 = ADVANCED_FACE('',(#216),#267,.F.);
#216 = FACE_BOUND('',#217,.F.);
#217 = EDGE_LOOP('',(#218,#219,#227,#235,#244,#252,#260,#266));
#218 = ORIENTED_EDGE('',*,*,#71,.F.);
#219 = ORIENTED_EDGE('',*,*,#220,.F.);
#220 = EDGE_CURVE('',#221,#64,#223,.T.);
#221 = VERTEX_POINT('',#222);
#222 = CARTESIAN_POINT('',(-27.25,4.8,5.8));
#223 = LINE('',#224,#225);
#224 = CARTESIAN_POINT('',(-28.075,4.8,5.8));
#225 = VECTOR('',#226,1.);
#226 = DIRECTION('',(-1.,1.110223024625E-16,0.));
#227 = ORIENTED_EDGE('',*,*,#228,.T.);
#228 = EDGE_CURVE('',#221,#229,#231,.T.);
#229 = VERTEX_POINT('',#230);
#230 = CARTESIAN_POINT('',(-27.25,25.,5.8));
#231 = LINE('',#232,#233);
#232 = CARTESIAN_POINT('',(-27.25,-28.125,5.8));
#233 = VECTOR('',#234,1.);
#234 = DIRECTION('',(-0.,1.,0.));
#235 = ORIENTED_EDGE('',*,*,#236,.F.);
#236 = EDGE_CURVE('',#237,#229,#239,.T.);
#237 = VERTEX_POINT('',#238);
#238 = CARTESIAN_POINT('',(-25.,27.25,5.8));
#239 = CIRCLE('',#240,2.25);
#240 = AXIS2_PLACEMENT_3D('',#241,#242,#243);
#241 = CARTESIAN_POINT('',(-25.,25.,5.8));
#242 = DIRECTION('',(0.,0.,1.));
#243 = DIRECTION('',(-1.,-0.,0.));
#244 = ORIENTED_EDGE('',*,*,#245,.F.);
#245 = EDGE_CURVE('',#246,#237,#248,.T.);
#246 = VERTEX_POINT('',#247);
#247 = CARTESIAN_POINT('',(-4.8,27.25,5.8));
#248 = LINE('',#249,#250);
#249 = CARTESIAN_POINT('',(-28.125,27.25,5.8));
#250 = VECTOR('',#251,1.);
#251 = DIRECTION('',(-1.,-0.,0.));
#252 = ORIENTED_EDGE('',*,*,#253,.T.);
#253 = EDGE_CURVE('',#246,#254,#256,.T.);
#254 = VERTEX_POINT('',#255);
#255 = CARTESIAN_POINT('',(-4.8,29.,5.8));
#256 = LINE('',#257,#258);
#257 = CARTESIAN_POINT('',(-4.8,-0.925,5.8));
#258 = VECTOR('',#259,1.);
#259 = DIRECTION('',(0.,1.,0.));
#260 = ORIENTED_EDGE('',*,*,#261,.F.);
#261 = EDGE_CURVE('',#195,#254,#262,.T.);
#262 = LINE('',#263,#264);
#263 = CARTESIAN_POINT('',(-29.,29.,5.8));
#264 = VECTOR('',#265,1.);
#265 = DIRECTION('',(1.,0.,-0.));
#266 = ORIENTED_EDGE('',*,*,#194,.F.);
#267 = PLANE('',#268);
#268 = AXIS2_PLACEMENT_3D('',#269,#270,#271);
#269 = CARTESIAN_POINT('',(-29.,-29.,5.8));
#270 = DIRECTION('',(0.,0.,1.));
#271 = DIRECTION('',(1.,0.,-0.));
#272 = ADVANCED_FACE('',(#273),#291,.F.);
#273 = FACE_BOUND('',#274,.F.);
#274 = EDGE_LOOP('',(#275,#283,#289,#290));
#275 = ORIENTED_EDGE('',*,*,#276,.F.);
#276 = EDGE_CURVE('',#277,#56,#279,.T.);
#277 = VERTEX_POINT('',#278);
#278 = CARTESIAN_POINT('',(-27.25,4.8,13.8));
#279 = LINE('',#280,#281);
#280 = CARTESIAN_POINT('',(-27.15,4.8,13.8));
#281 = VECTOR('',#282,1.);
#282 = DIRECTION('',(-1.,1.110223024625E-16,0.));
#283 = ORIENTED_EDGE('',*,*,#284,.F.);
#284 = EDGE_CURVE('',#221,#277,#285,.T.);
#285 = LINE('',#286,#287);
#286 = CARTESIAN_POINT('',(-27.25,4.8,5.725));
#287 = VECTOR('',#288,1.);
#288 = DIRECTION('',(0.,-0.,1.));
#289 = ORIENTED_EDGE('',*,*,#220,.T.);
#290 = ORIENTED_EDGE('',*,*,#63,.T.);
#291 = PLANE('',#292);
#292 = AXIS2_PLACEMENT_3D('',#293,#294,#295);
#293 = CARTESIAN_POINT('',(-27.15,4.8,5.75));
#294 = DIRECTION('',(1.110223024625E-16,1.,0.));
#295 = DIRECTION('',(0.,0.,1.));
#296 = ADVANCED_FACE('',(#297),#347,.T.);
#297 = FACE_BOUND('',#298,.T.);
#298 = EDGE_LOOP('',(#299,#300,#301,#309,#317,#325,#333,#341));
#299 = ORIENTED_EDGE('',*,*,#55,.F.);
#300 = ORIENTED_EDGE('',*,*,#276,.F.);
#301 = ORIENTED_EDGE('',*,*,#302,.T.);
#302 = EDGE_CURVE('',#277,#303,#305,.T.);
#303 = VERTEX_POINT('',#304);
#304 = CARTESIAN_POINT('',(-27.25,4.,13.8));
#305 = LINE('',#306,#307);
#306 = CARTESIAN_POINT('',(-27.25,-11.625,13.8));
#307 = VECTOR('',#308,1.);
#308 = DIRECTION('',(0.,-1.,0.));
#309 = ORIENTED_EDGE('',*,*,#310,.T.);
#310 = EDGE_CURVE('',#303,#311,#313,.T.);
#311 = VERTEX_POINT('',#312);
#312 = CARTESIAN_POINT('',(-28.25,4.,13.8));
#313 = LINE('',#314,#315);
#314 = CARTESIAN_POINT('',(-27.15,4.,13.8));
#315 = VECTOR('',#316,1.);
#316 = DIRECTION('',(-1.,1.110223024625E-16,0.));
#317 = ORIENTED_EDGE('',*,*,#318,.F.);
#318 = EDGE_CURVE('',#319,#311,#321,.T.);
#319 = VERTEX_POINT('',#320);
#320 = CARTESIAN_POINT('',(-28.25,-4.,13.8));
#321 = LINE('',#322,#323);
#322 = CARTESIAN_POINT('',(-28.25,-4.,13.8));
#323 = VECTOR('',#324,1.);
#324 = DIRECTION('',(1.110223024625E-16,1.,0.));
#325 = ORIENTED_EDGE('',*,*,#326,.F.);
#326 = EDGE_CURVE('',#327,#319,#329,.T.);
#327 = VERTEX_POINT('',#328);
#328 = CARTESIAN_POINT('',(-27.25,-4.,13.8));
#329 = LINE('',#330,#331);
#330 = CARTESIAN_POINT('',(-27.15,-4.,13.8));
#331 = VECTOR('',#332,1.);
#332 = DIRECTION('',(-1.,1.110223024625E-16,0.));
#333 = ORIENTED_EDGE('',*,*,#334,.T.);
#334 = EDGE_CURVE('',#327,#335,#337,.T.);
#335 = VERTEX_POINT('',#336);
#336 = CARTESIAN_POINT('',(-27.25,-4.8,13.8));
#337 = LINE('',#338,#339);
#338 = CARTESIAN_POINT('',(-27.25,-16.025,13.8));
#339 = VECTOR('',#340,1.);
#340 = DIRECTION('',(0.,-1.,0.));
#341 = ORIENTED_EDGE('',*,*,#342,.T.);
#342 = EDGE_CURVE('',#335,#48,#343,.T.);
#343 = LINE('',#344,#345);
#344 = CARTESIAN_POINT('',(-27.15,-4.8,13.8));
#345 = VECTOR('',#346,1.);
#346 = DIRECTION('',(-1.,1.110223024625E-16,0.));
#347 = PLANE('',#348);
#348 = AXIS2_PLACEMENT_3D('',#349,#350,#351);
#349 = CARTESIAN_POINT('',(-28.4185222672,3.02052579979E-15,13.8));
#350 = DIRECTION('',(-0.,-0.,-1.));
#351 = DIRECTION('',(-1.,0.,0.));
#352 = ADVANCED_FACE('',(#353),#371,.T.);
#353 = FACE_BOUND('',#354,.T.);
#354 = EDGE_LOOP('',(#355,#356,#364,#370));
#355 = ORIENTED_EDGE('',*,*,#342,.F.);
#356 = ORIENTED_EDGE('',*,*,#357,.F.);
#357 = EDGE_CURVE('',#358,#335,#360,.T.);
#358 = VERTEX_POINT('',#359);
#359 = CARTESIAN_POINT('',(-27.25,-4.8,5.8));
#360 = LINE('',#361,#362);
#361 = CARTESIAN_POINT('',(-27.25,-4.8,5.725));
#362 = VECTOR('',#363,1.);
#363 = DIRECTION('',(0.,-0.,1.));
#364 = ORIENTED_EDGE('',*,*,#365,.T.);
#365 = EDGE_CURVE('',#358,#40,#366,.T.);
#366 = LINE('',#367,#368);
#367 = CARTESIAN_POINT('',(-28.075,-4.8,5.8));
#368 = VECTOR('',#369,1.);
#369 = DIRECTION('',(-1.,1.110223024625E-16,0.));
#370 = ORIENTED_EDGE('',*,*,#47,.T.);
#371 = PLANE('',#372);
#372 = AXIS2_PLACEMENT_3D('',#373,#374,#375);
#373 = CARTESIAN_POINT('',(-27.15,-4.8,5.75));
#374 = DIRECTION('',(1.110223024625E-16,1.,0.));
#375 = DIRECTION('',(0.,0.,1.));
#376 = ADVANCED_FACE('',(#377),#429,.F.);
#377 = FACE_BOUND('',#378,.F.);
#378 = EDGE_LOOP('',(#379,#380,#389,#397,#405,#413,#422,#428));
#379 = ORIENTED_EDGE('',*,*,#39,.F.);
#380 = ORIENTED_EDGE('',*,*,#381,.T.);
#381 = EDGE_CURVE('',#32,#382,#384,.T.);
#382 = VERTEX_POINT('',#383);
#383 = CARTESIAN_POINT('',(-25.,-29.,5.8));
#384 = CIRCLE('',#385,4.);
#385 = AXIS2_PLACEMENT_3D('',#386,#387,#388);
#386 = CARTESIAN_POINT('',(-25.,-25.,5.8));
#387 = DIRECTION('',(0.,0.,1.));
#388 = DIRECTION('',(0.,-1.,0.));
#389 = ORIENTED_EDGE('',*,*,#390,.T.);
#390 = EDGE_CURVE('',#382,#391,#393,.T.);
#391 = VERTEX_POINT('',#392);
#392 = CARTESIAN_POINT('',(-4.8,-29.,5.8));
#393 = LINE('',#394,#395);
#394 = CARTESIAN_POINT('',(-29.,-29.,5.8));
#395 = VECTOR('',#396,1.);
#396 = DIRECTION('',(1.,0.,-0.));
#397 = ORIENTED_EDGE('',*,*,#398,.F.);
#398 = EDGE_CURVE('',#399,#391,#401,.T.);
#399 = VERTEX_POINT('',#400);
#400 = CARTESIAN_POINT('',(-4.8,-27.25,5.8));
#401 = LINE('',#402,#403);
#402 = CARTESIAN_POINT('',(-4.8,-28.075,5.8));
#403 = VECTOR('',#404,1.);
#404 = DIRECTION('',(-1.224646799147E-16,-1.,0.));
#405 = ORIENTED_EDGE('',*,*,#406,.T.);
#406 = EDGE_CURVE('',#399,#407,#409,.T.);
#407 = VERTEX_POINT('',#408);
#408 = CARTESIAN_POINT('',(-25.,-27.25,5.8));
#409 = LINE('',#410,#411);
#410 = CARTESIAN_POINT('',(-28.125,-27.25,5.8));
#411 = VECTOR('',#412,1.);
#412 = DIRECTION('',(-1.,-0.,0.));
#413 = ORIENTED_EDGE('',*,*,#414,.F.);
#414 = EDGE_CURVE('',#415,#407,#417,.T.);
#415 = VERTEX_POINT('',#416);
#416 = CARTESIAN_POINT('',(-27.25,-25.,5.8));
#417 = CIRCLE('',#418,2.25);
#418 = AXIS2_PLACEMENT_3D('',#419,#420,#421);
#419 = CARTESIAN_POINT('',(-25.,-25.,5.8));
#420 = DIRECTION('',(0.,0.,1.));
#421 = DIRECTION('',(-1.,-0.,0.));
#422 = ORIENTED_EDGE('',*,*,#423,.T.);
#423 = EDGE_CURVE('',#415,#358,#424,.T.);
#424 = LINE('',#425,#426);
#425 = CARTESIAN_POINT('',(-27.25,-28.125,5.8));
#426 = VECTOR('',#427,1.);
#427 = DIRECTION('',(-0.,1.,0.));
#428 = ORIENTED_EDGE('',*,*,#365,.T.);
#429 = PLANE('',#430);
#430 = AXIS2_PLACEMENT_3D('',#431,#432,#433);
#431 = CARTESIAN_POINT('',(-29.,-29.,5.8));
#432 = DIRECTION('',(0.,0.,1.));
#433 = DIRECTION('',(1.,0.,-0.));
#434 = ADVANCED_FACE('',(#435),#446,.T.);
#435 = FACE_BOUND('',#436,.T.);
#436 = EDGE_LOOP('',(#437,#438,#444,#445));
#437 = ORIENTED_EDGE('',*,*,#381,.T.);
#438 = ORIENTED_EDGE('',*,*,#439,.T.);
#439 = EDGE_CURVE('',#382,#95,#440,.T.);
#440 = LINE('',#441,#442);
#441 = CARTESIAN_POINT('',(-25.,-29.,5.8));
#442 = VECTOR('',#443,1.);
#443 = DIRECTION('',(0.,0.,1.));
#444 = ORIENTED_EDGE('',*,*,#94,.F.);
#445 = ORIENTED_EDGE('',*,*,#31,.F.);
#446 = CYLINDRICAL_SURFACE('',#447,4.);
#447 = AXIS2_PLACEMENT_3D('',#448,#449,#450);
#448 = CARTESIAN_POINT('',(-25.,-25.,5.8));
#449 = DIRECTION('',(0.,0.,1.));
#450 = DIRECTION('',(-1.,-0.,0.));
#451 = ADVANCED_FACE('',(#452),#495,.F.);
#452 = FACE_BOUND('',#453,.F.);
#453 = EDGE_LOOP('',(#454,#455,#456,#457,#465,#473,#481,#489));
#454 = ORIENTED_EDGE('',*,*,#390,.F.);
#455 = ORIENTED_EDGE('',*,*,#439,.T.);
#456 = ORIENTED_EDGE('',*,*,#103,.T.);
#457 = ORIENTED_EDGE('',*,*,#458,.F.);
#458 = EDGE_CURVE('',#459,#104,#461,.T.);
#459 = VERTEX_POINT('',#460);
#460 = CARTESIAN_POINT('',(25.,-29.,5.8));
#461 = LINE('',#462,#463);
#462 = CARTESIAN_POINT('',(25.,-29.,5.8));
#463 = VECTOR('',#464,1.);
#464 = DIRECTION('',(0.,0.,1.));
#465 = ORIENTED_EDGE('',*,*,#466,.F.);
#466 = EDGE_CURVE('',#467,#459,#469,.T.);
#467 = VERTEX_POINT('',#468);
#468 = CARTESIAN_POINT('',(4.8,-29.,5.8));
#469 = LINE('',#470,#471);
#470 = CARTESIAN_POINT('',(-29.,-29.,5.8));
#471 = VECTOR('',#472,1.);
#472 = DIRECTION('',(1.,0.,-0.));
#473 = ORIENTED_EDGE('',*,*,#474,.T.);
#474 = EDGE_CURVE('',#467,#475,#477,.T.);
#475 = VERTEX_POINT('',#476);
#476 = CARTESIAN_POINT('',(4.8,-29.,13.8));
#477 = LINE('',#478,#479);
#478 = CARTESIAN_POINT('',(4.8,-29.,5.775));
#479 = VECTOR('',#480,1.);
#480 = DIRECTION('',(0.,0.,1.));
#481 = ORIENTED_EDGE('',*,*,#482,.F.);
#482 = EDGE_CURVE('',#483,#475,#485,.T.);
#483 = VERTEX_POINT('',#484);
#484 = CARTESIAN_POINT('',(-4.8,-29.,13.8));
#485 = LINE('',#486,#487);
#486 = CARTESIAN_POINT('',(-16.5,-29.,13.8));
#487 = VECTOR('',#488,1.);
#488 = DIRECTION('',(1.,0.,-0.));
#489 = ORIENTED_EDGE('',*,*,#490,.F.);
#490 = EDGE_CURVE('',#391,#483,#491,.T.);
#491 = LINE('',#492,#493);
#492 = CARTESIAN_POINT('',(-4.8,-29.,5.775));
#493 = VECTOR('',#494,1.);
#494 = DIRECTION('',(0.,0.,1.));
#495 = PLANE('',#496);
#496 = AXIS2_PLACEMENT_3D('',#497,#498,#499);
#497 = CARTESIAN_POINT('',(-29.,-29.,5.8));
#498 = DIRECTION('',(-0.,1.,0.));
#499 = DIRECTION('',(0.,0.,1.));
#500 = ADVANCED_FACE('',(#501),#544,.T.);
#501 = FACE_BOUND('',#502,.T.);
#502 = EDGE_LOOP('',(#503,#504,#505,#506,#514,#522,#530,#538));
#503 = ORIENTED_EDGE('',*,*,#261,.F.);
#504 = ORIENTED_EDGE('',*,*,#203,.T.);
#505 = ORIENTED_EDGE('',*,*,#137,.T.);
#506 = ORIENTED_EDGE('',*,*,#507,.F.);
#507 = EDGE_CURVE('',#508,#129,#510,.T.);
#508 = VERTEX_POINT('',#509);
#509 = CARTESIAN_POINT('',(25.,29.,5.8));
#510 = LINE('',#511,#512);
#511 = CARTESIAN_POINT('',(25.,29.,5.8));
#512 = VECTOR('',#513,1.);
#513 = DIRECTION('',(0.,0.,1.));
#514 = ORIENTED_EDGE('',*,*,#515,.F.);
#515 = EDGE_CURVE('',#516,#508,#518,.T.);
#516 = VERTEX_POINT('',#517);
#517 = CARTESIAN_POINT('',(4.8,29.,5.8));
#518 = LINE('',#519,#520);
#519 = CARTESIAN_POINT('',(-29.,29.,5.8));
#520 = VECTOR('',#521,1.);
#521 = DIRECTION('',(1.,0.,-0.));
#522 = ORIENTED_EDGE('',*,*,#523,.F.);
#523 = EDGE_CURVE('',#524,#516,#526,.T.);
#524 = VERTEX_POINT('',#525);
#525 = CARTESIAN_POINT('',(4.8,29.,13.8));
#526 = LINE('',#527,#528);
#527 = CARTESIAN_POINT('',(4.8,29.,5.775));
#528 = VECTOR('',#529,1.);
#529 = DIRECTION('',(0.,0.,-1.));
#530 = ORIENTED_EDGE('',*,*,#531,.F.);
#531 = EDGE_CURVE('',#532,#524,#534,.T.);
#532 = VERTEX_POINT('',#533);
#533 = CARTESIAN_POINT('',(-4.8,29.,13.8));
#534 = LINE('',#535,#536);
#535 = CARTESIAN_POINT('',(-12.5,29.,13.8));
#536 = VECTOR('',#537,1.);
#537 = DIRECTION('',(1.,0.,-0.));
#538 = ORIENTED_EDGE('',*,*,#539,.T.);
#539 = EDGE_CURVE('',#532,#254,#540,.T.);
#540 = LINE('',#541,#542);
#541 = CARTESIAN_POINT('',(-4.8,29.,5.775));
#542 = VECTOR('',#543,1.);
#543 = DIRECTION('',(0.,0.,-1.));
#544 = PLANE('',#545);
#545 = AXIS2_PLACEMENT_3D('',#546,#547,#548);
#546 = CARTESIAN_POINT('',(-29.,29.,5.8));
#547 = DIRECTION('',(-0.,1.,0.));
#548 = DIRECTION('',(0.,0.,1.));
#549 = ADVANCED_FACE('',(#550),#569,.T.);
#550 = FACE_BOUND('',#551,.F.);
#551 = EDGE_LOOP('',(#552,#561,#562,#563));
#552 = ORIENTED_EDGE('',*,*,#553,.T.);
#553 = EDGE_CURVE('',#554,#459,#556,.T.);
#554 = VERTEX_POINT('',#555);
#555 = CARTESIAN_POINT('',(29.,-25.,5.8));
#556 = CIRCLE('',#557,4.);
#557 = AXIS2_PLACEMENT_3D('',#558,#559,#560);
#558 = CARTESIAN_POINT('',(25.,-25.,5.8));
#559 = DIRECTION('',(-0.,-0.,-1.));
#560 = DIRECTION('',(0.,-1.,0.));
#561 = ORIENTED_EDGE('',*,*,#458,.T.);
#562 = ORIENTED_EDGE('',*,*,#111,.F.);
#563 = ORIENTED_EDGE('',*,*,#564,.F.);
#564 = EDGE_CURVE('',#554,#112,#565,.T.);
#565 = LINE('',#566,#567);
#566 = CARTESIAN_POINT('',(29.,-25.,5.8));
#567 = VECTOR('',#568,1.);
#568 = DIRECTION('',(0.,0.,1.));
#569 = CYLINDRICAL_SURFACE('',#570,4.);
#570 = AXIS2_PLACEMENT_3D('',#571,#572,#573);
#571 = CARTESIAN_POINT('',(25.,-25.,5.8));
#572 = DIRECTION('',(0.,0.,1.));
#573 = DIRECTION('',(1.,0.,-0.));
#574 = ADVANCED_FACE('',(#575),#594,.T.);
#575 = FACE_BOUND('',#576,.T.);
#576 = EDGE_LOOP('',(#577,#586,#587,#588));
#577 = ORIENTED_EDGE('',*,*,#578,.T.);
#578 = EDGE_CURVE('',#579,#508,#581,.T.);
#579 = VERTEX_POINT('',#580);
#580 = CARTESIAN_POINT('',(29.,25.,5.8));
#581 = CIRCLE('',#582,4.);
#582 = AXIS2_PLACEMENT_3D('',#583,#584,#585);
#583 = CARTESIAN_POINT('',(25.,25.,5.8));
#584 = DIRECTION('',(0.,0.,1.));
#585 = DIRECTION('',(0.,-1.,0.));
#586 = ORIENTED_EDGE('',*,*,#507,.T.);
#587 = ORIENTED_EDGE('',*,*,#128,.F.);
#588 = ORIENTED_EDGE('',*,*,#589,.F.);
#589 = EDGE_CURVE('',#579,#121,#590,.T.);
#590 = LINE('',#591,#592);
#591 = CARTESIAN_POINT('',(29.,25.,5.8));
#592 = VECTOR('',#593,1.);
#593 = DIRECTION('',(0.,0.,1.));
#594 = CYLINDRICAL_SURFACE('',#595,4.);
#595 = AXIS2_PLACEMENT_3D('',#596,#597,#598);
#596 = CARTESIAN_POINT('',(25.,25.,5.8));
#597 = DIRECTION('',(0.,0.,1.));
#598 = DIRECTION('',(1.,0.,-0.));
#599 = ADVANCED_FACE('',(#600),#643,.T.);
#600 = FACE_BOUND('',#601,.T.);
#601 = EDGE_LOOP('',(#602,#603,#604,#612,#620,#628,#636,#642));
#602 = ORIENTED_EDGE('',*,*,#120,.F.);
#603 = ORIENTED_EDGE('',*,*,#564,.F.);
#604 = ORIENTED_EDGE('',*,*,#605,.T.);
#605 = EDGE_CURVE('',#554,#606,#608,.T.);
#606 = VERTEX_POINT('',#607);
#607 = CARTESIAN_POINT('',(29.,-4.8,5.8));
#608 = LINE('',#609,#610);
#609 = CARTESIAN_POINT('',(29.,-29.,5.8));
#610 = VECTOR('',#611,1.);
#611 = DIRECTION('',(-0.,1.,0.));
#612 = ORIENTED_EDGE('',*,*,#613,.F.);
#613 = EDGE_CURVE('',#614,#606,#616,.T.);
#614 = VERTEX_POINT('',#615);
#615 = CARTESIAN_POINT('',(29.,-4.8,13.8));
#616 = LINE('',#617,#618);
#617 = CARTESIAN_POINT('',(29.,-4.8,5.775));
#618 = VECTOR('',#619,1.);
#619 = DIRECTION('',(0.,0.,-1.));
#620 = ORIENTED_EDGE('',*,*,#621,.F.);
#621 = EDGE_CURVE('',#622,#614,#624,.T.);
#622 = VERTEX_POINT('',#623);
#623 = CARTESIAN_POINT('',(29.,4.8,13.8));
#624 = LINE('',#625,#626);
#625 = CARTESIAN_POINT('',(29.,-16.5,13.8));
#626 = VECTOR('',#627,1.);
#627 = DIRECTION('',(0.,-1.,0.));
#628 = ORIENTED_EDGE('',*,*,#629,.T.);
#629 = EDGE_CURVE('',#622,#630,#632,.T.);
#630 = VERTEX_POINT('',#631);
#631 = CARTESIAN_POINT('',(29.,4.8,5.8));
#632 = LINE('',#633,#634);
#633 = CARTESIAN_POINT('',(29.,4.8,5.775));
#634 = VECTOR('',#635,1.);
#635 = DIRECTION('',(0.,0.,-1.));
#636 = ORIENTED_EDGE('',*,*,#637,.T.);
#637 = EDGE_CURVE('',#630,#579,#638,.T.);
#638 = LINE('',#639,#640);
#639 = CARTESIAN_POINT('',(29.,-29.,5.8));
#640 = VECTOR('',#641,1.);
#641 = DIRECTION('',(-0.,1.,0.));
#642 = ORIENTED_EDGE('',*,*,#589,.T.);
#643 = PLANE('',#644);
#644 = AXIS2_PLACEMENT_3D('',#645,#646,#647);
#645 = CARTESIAN_POINT('',(29.,-29.,5.8));
#646 = DIRECTION('',(1.,0.,-0.));
#647 = DIRECTION('',(0.,0.,1.));
#648 = ADVANCED_FACE('',(#649),#674,.T.);
#649 = FACE_BOUND('',#650,.T.);
#650 = EDGE_LOOP('',(#651,#659,#667,#673));
#651 = ORIENTED_EDGE('',*,*,#652,.F.);
#652 = EDGE_CURVE('',#653,#155,#655,.T.);
#653 = VERTEX_POINT('',#654);
#654 = CARTESIAN_POINT('',(22.,-22.,14.2));
#655 = LINE('',#656,#657);
#656 = CARTESIAN_POINT('',(22.,-22.,14.199));
#657 = VECTOR('',#658,1.);
#658 = DIRECTION('',(0.,0.,1.));
#659 = ORIENTED_EDGE('',*,*,#660,.T.);
#660 = EDGE_CURVE('',#653,#661,#663,.T.);
#661 = VERTEX_POINT('',#662);
#662 = CARTESIAN_POINT('',(-22.,-22.,14.2));
#663 = LINE('',#664,#665);
#664 = CARTESIAN_POINT('',(-24.625,-22.,14.2));
#665 = VECTOR('',#666,1.);
#666 = DIRECTION('',(-1.,-0.,0.));
#667 = ORIENTED_EDGE('',*,*,#668,.T.);
#668 = EDGE_CURVE('',#661,#157,#669,.T.);
#669 = LINE('',#670,#671);
#670 = CARTESIAN_POINT('',(-22.,-22.,14.199));
#671 = VECTOR('',#672,1.);
#672 = DIRECTION('',(0.,0.,1.));
#673 = ORIENTED_EDGE('',*,*,#154,.F.);
#674 = PLANE('',#675);
#675 = AXIS2_PLACEMENT_3D('',#676,#677,#678);
#676 = CARTESIAN_POINT('',(-22.,-22.,14.199));
#677 = DIRECTION('',(-0.,1.,0.));
#678 = DIRECTION('',(0.,0.,1.));
#679 = ADVANCED_FACE('',(#680),#698,.F.);
#680 = FACE_BOUND('',#681,.F.);
#681 = EDGE_LOOP('',(#682,#683,#691,#697));
#682 = ORIENTED_EDGE('',*,*,#652,.F.);
#683 = ORIENTED_EDGE('',*,*,#684,.T.);
#684 = EDGE_CURVE('',#653,#685,#687,.T.);
#685 = VERTEX_POINT('',#686);
#686 = CARTESIAN_POINT('',(22.,22.,14.2));
#687 = LINE('',#688,#689);
#688 = CARTESIAN_POINT('',(22.,-24.625,14.2));
#689 = VECTOR('',#690,1.);
#690 = DIRECTION('',(-0.,1.,0.));
#691 = ORIENTED_EDGE('',*,*,#692,.T.);
#692 = EDGE_CURVE('',#685,#173,#693,.T.);
#693 = LINE('',#694,#695);
#694 = CARTESIAN_POINT('',(22.,22.,14.199));
#695 = VECTOR('',#696,1.);
#696 = DIRECTION('',(0.,0.,1.));
#697 = ORIENTED_EDGE('',*,*,#180,.F.);
#698 = PLANE('',#699);
#699 = AXIS2_PLACEMENT_3D('',#700,#701,#702);
#700 = CARTESIAN_POINT('',(22.,-22.,14.199));
#701 = DIRECTION('',(1.,0.,-0.));
#702 = DIRECTION('',(0.,0.,1.));
#703 = ADVANCED_FACE('',(#704),#722,.F.);
#704 = FACE_BOUND('',#705,.F.);
#705 = EDGE_LOOP('',(#706,#707,#715,#721));
#706 = ORIENTED_EDGE('',*,*,#692,.F.);
#707 = ORIENTED_EDGE('',*,*,#708,.T.);
#708 = EDGE_CURVE('',#685,#709,#711,.T.);
#709 = VERTEX_POINT('',#710);
#710 = CARTESIAN_POINT('',(-22.,22.,14.2));
#711 = LINE('',#712,#713);
#712 = CARTESIAN_POINT('',(-24.625,22.,14.2));
#713 = VECTOR('',#714,1.);
#714 = DIRECTION('',(-1.,-0.,0.));
#715 = ORIENTED_EDGE('',*,*,#716,.T.);
#716 = EDGE_CURVE('',#709,#165,#717,.T.);
#717 = LINE('',#718,#719);
#718 = CARTESIAN_POINT('',(-22.,22.,14.199));
#719 = VECTOR('',#720,1.);
#720 = DIRECTION('',(0.,0.,1.));
#721 = ORIENTED_EDGE('',*,*,#172,.F.);
#722 = PLANE('',#723);
#723 = AXIS2_PLACEMENT_3D('',#724,#725,#726);
#724 = CARTESIAN_POINT('',(-22.,22.,14.199));
#725 = DIRECTION('',(-0.,1.,0.));
#726 = DIRECTION('',(0.,0.,1.));
#727 = ADVANCED_FACE('',(#728),#739,.T.);
#728 = FACE_BOUND('',#729,.T.);
#729 = EDGE_LOOP('',(#730,#731,#737,#738));
#730 = ORIENTED_EDGE('',*,*,#668,.F.);
#731 = ORIENTED_EDGE('',*,*,#732,.T.);
#732 = EDGE_CURVE('',#661,#709,#733,.T.);
#733 = LINE('',#734,#735);
#734 = CARTESIAN_POINT('',(-22.,-24.625,14.2));
#735 = VECTOR('',#736,1.);
#736 = DIRECTION('',(-0.,1.,0.));
#737 = ORIENTED_EDGE('',*,*,#716,.T.);
#738 = ORIENTED_EDGE('',*,*,#164,.F.);
#739 = PLANE('',#740);
#740 = AXIS2_PLACEMENT_3D('',#741,#742,#743);
#741 = CARTESIAN_POINT('',(-22.,-22.,14.199));
#742 = DIRECTION('',(1.,0.,-0.));
#743 = DIRECTION('',(0.,0.,1.));
#744 = ADVANCED_FACE('',(#745),#763,.T.);
#745 = FACE_BOUND('',#746,.T.);
#746 = EDGE_LOOP('',(#747,#755,#761,#762));
#747 = ORIENTED_EDGE('',*,*,#748,.F.);
#748 = EDGE_CURVE('',#749,#532,#751,.T.);
#749 = VERTEX_POINT('',#750);
#750 = CARTESIAN_POINT('',(-4.8,27.25,13.8));
#751 = LINE('',#752,#753);
#752 = CARTESIAN_POINT('',(-4.8,27.15,13.8));
#753 = VECTOR('',#754,1.);
#754 = DIRECTION('',(0.,1.,0.));
#755 = ORIENTED_EDGE('',*,*,#756,.T.);
#756 = EDGE_CURVE('',#749,#246,#757,.T.);
#757 = LINE('',#758,#759);
#758 = CARTESIAN_POINT('',(-4.8,27.25,5.725));
#759 = VECTOR('',#760,1.);
#760 = DIRECTION('',(0.,0.,-1.));
#761 = ORIENTED_EDGE('',*,*,#253,.T.);
#762 = ORIENTED_EDGE('',*,*,#539,.F.);
#763 = PLANE('',#764);
#764 = AXIS2_PLACEMENT_3D('',#765,#766,#767);
#765 = CARTESIAN_POINT('',(-4.8,27.15,5.75));
#766 = DIRECTION('',(1.,0.,0.));
#767 = DIRECTION('',(0.,0.,1.));
#768 = ADVANCED_FACE('',(#769),#851,.F.);
#769 = FACE_BOUND('',#770,.F.);
#770 = EDGE_LOOP('',(#771,#781,#789,#797,#805,#813,#821,#829,#835,#836,
    #837,#845));
#771 = ORIENTED_EDGE('',*,*,#772,.F.);
#772 = EDGE_CURVE('',#773,#775,#777,.T.);
#773 = VERTEX_POINT('',#774);
#774 = CARTESIAN_POINT('',(25.,27.25,5.8));
#775 = VERTEX_POINT('',#776);
#776 = CARTESIAN_POINT('',(25.,27.25,14.2));
#777 = LINE('',#778,#779);
#778 = CARTESIAN_POINT('',(25.,27.25,5.7));
#779 = VECTOR('',#780,1.);
#780 = DIRECTION('',(0.,0.,1.));
#781 = ORIENTED_EDGE('',*,*,#782,.T.);
#782 = EDGE_CURVE('',#773,#783,#785,.T.);
#783 = VERTEX_POINT('',#784);
#784 = CARTESIAN_POINT('',(4.8,27.25,5.8));
#785 = LINE('',#786,#787);
#786 = CARTESIAN_POINT('',(-28.125,27.25,5.8));
#787 = VECTOR('',#788,1.);
#788 = DIRECTION('',(-1.,-0.,0.));
#789 = ORIENTED_EDGE('',*,*,#790,.F.);
#790 = EDGE_CURVE('',#791,#783,#793,.T.);
#791 = VERTEX_POINT('',#792);
#792 = CARTESIAN_POINT('',(4.8,27.25,13.8));
#793 = LINE('',#794,#795);
#794 = CARTESIAN_POINT('',(4.8,27.25,5.725));
#795 = VECTOR('',#796,1.);
#796 = DIRECTION('',(0.,0.,-1.));
#797 = ORIENTED_EDGE('',*,*,#798,.F.);
#798 = EDGE_CURVE('',#799,#791,#801,.T.);
#799 = VERTEX_POINT('',#800);
#800 = CARTESIAN_POINT('',(4.,27.25,13.8));
#801 = LINE('',#802,#803);
#802 = CARTESIAN_POINT('',(-11.625,27.25,13.8));
#803 = VECTOR('',#804,1.);
#804 = DIRECTION('',(1.,0.,-0.));
#805 = ORIENTED_EDGE('',*,*,#806,.T.);
#806 = EDGE_CURVE('',#799,#807,#809,.T.);
#807 = VERTEX_POINT('',#808);
#808 = CARTESIAN_POINT('',(4.,27.25,8.));
#809 = LINE('',#810,#811);
#810 = CARTESIAN_POINT('',(4.,27.25,5.725));
#811 = VECTOR('',#812,1.);
#812 = DIRECTION('',(0.,0.,-1.));
#813 = ORIENTED_EDGE('',*,*,#814,.F.);
#814 = EDGE_CURVE('',#815,#807,#817,.T.);
#815 = VERTEX_POINT('',#816);
#816 = CARTESIAN_POINT('',(-4.,27.25,8.));
#817 = LINE('',#818,#819);
#818 = CARTESIAN_POINT('',(-4.,27.25,8.));
#819 = VECTOR('',#820,1.);
#820 = DIRECTION('',(1.,0.,0.));
#821 = ORIENTED_EDGE('',*,*,#822,.F.);
#822 = EDGE_CURVE('',#823,#815,#825,.T.);
#823 = VERTEX_POINT('',#824);
#824 = CARTESIAN_POINT('',(-4.,27.25,13.8));
#825 = LINE('',#826,#827);
#826 = CARTESIAN_POINT('',(-4.,27.25,5.725));
#827 = VECTOR('',#828,1.);
#828 = DIRECTION('',(0.,0.,-1.));
#829 = ORIENTED_EDGE('',*,*,#830,.F.);
#830 = EDGE_CURVE('',#749,#823,#831,.T.);
#831 = LINE('',#832,#833);
#832 = CARTESIAN_POINT('',(-16.025,27.25,13.8));
#833 = VECTOR('',#834,1.);
#834 = DIRECTION('',(1.,0.,-0.));
#835 = ORIENTED_EDGE('',*,*,#756,.T.);
#836 = ORIENTED_EDGE('',*,*,#245,.T.);
#837 = ORIENTED_EDGE('',*,*,#838,.T.);
#838 = EDGE_CURVE('',#237,#839,#841,.T.);
#839 = VERTEX_POINT('',#840);
#840 = CARTESIAN_POINT('',(-25.,27.25,14.2));
#841 = LINE('',#842,#843);
#842 = CARTESIAN_POINT('',(-25.,27.25,5.7));
#843 = VECTOR('',#844,1.);
#844 = DIRECTION('',(0.,0.,1.));
#845 = ORIENTED_EDGE('',*,*,#846,.T.);
#846 = EDGE_CURVE('',#839,#775,#847,.T.);
#847 = LINE('',#848,#849);
#848 = CARTESIAN_POINT('',(-27.25,27.25,14.2));
#849 = VECTOR('',#850,1.);
#850 = DIRECTION('',(1.,0.,-0.));
#851 = PLANE('',#852);
#852 = AXIS2_PLACEMENT_3D('',#853,#854,#855);
#853 = CARTESIAN_POINT('',(-27.25,27.25,5.7));
#854 = DIRECTION('',(-0.,1.,0.));
#855 = DIRECTION('',(0.,0.,1.));
#856 = ADVANCED_FACE('',(#857),#876,.F.);
#857 = FACE_BOUND('',#858,.T.);
#858 = EDGE_LOOP('',(#859,#867,#868,#869));
#859 = ORIENTED_EDGE('',*,*,#860,.F.);
#860 = EDGE_CURVE('',#229,#861,#863,.T.);
#861 = VERTEX_POINT('',#862);
#862 = CARTESIAN_POINT('',(-27.25,25.,14.2));
#863 = LINE('',#864,#865);
#864 = CARTESIAN_POINT('',(-27.25,25.,5.7));
#865 = VECTOR('',#866,1.);
#866 = DIRECTION('',(0.,0.,1.));
#867 = ORIENTED_EDGE('',*,*,#236,.F.);
#868 = ORIENTED_EDGE('',*,*,#838,.T.);
#869 = ORIENTED_EDGE('',*,*,#870,.F.);
#870 = EDGE_CURVE('',#861,#839,#871,.T.);
#871 = CIRCLE('',#872,2.25);
#872 = AXIS2_PLACEMENT_3D('',#873,#874,#875);
#873 = CARTESIAN_POINT('',(-25.,25.,14.2));
#874 = DIRECTION('',(-0.,-0.,-1.));
#875 = DIRECTION('',(0.,-1.,0.));
#876 = CYLINDRICAL_SURFACE('',#877,2.25);
#877 = AXIS2_PLACEMENT_3D('',#878,#879,#880);
#878 = CARTESIAN_POINT('',(-25.,25.,5.7));
#879 = DIRECTION('',(0.,0.,1.));
#880 = DIRECTION('',(-1.,-0.,0.));
#881 = ADVANCED_FACE('',(#882),#927,.T.);
#882 = FACE_BOUND('',#883,.T.);
#883 = EDGE_LOOP('',(#884,#892,#898,#899,#900,#901,#909,#917,#923,#924,
    #925,#926));
#884 = ORIENTED_EDGE('',*,*,#885,.F.);
#885 = EDGE_CURVE('',#886,#861,#888,.T.);
#886 = VERTEX_POINT('',#887);
#887 = CARTESIAN_POINT('',(-27.25,-25.,14.2));
#888 = LINE('',#889,#890);
#889 = CARTESIAN_POINT('',(-27.25,-27.25,14.2));
#890 = VECTOR('',#891,1.);
#891 = DIRECTION('',(-0.,1.,0.));
#892 = ORIENTED_EDGE('',*,*,#893,.F.);
#893 = EDGE_CURVE('',#415,#886,#894,.T.);
#894 = LINE('',#895,#896);
#895 = CARTESIAN_POINT('',(-27.25,-25.,5.7));
#896 = VECTOR('',#897,1.);
#897 = DIRECTION('',(0.,0.,1.));
#898 = ORIENTED_EDGE('',*,*,#423,.T.);
#899 = ORIENTED_EDGE('',*,*,#357,.T.);
#900 = ORIENTED_EDGE('',*,*,#334,.F.);
#901 = ORIENTED_EDGE('',*,*,#902,.F.);
#902 = EDGE_CURVE('',#903,#327,#905,.T.);
#903 = VERTEX_POINT('',#904);
#904 = CARTESIAN_POINT('',(-27.25,-4.,8.));
#905 = LINE('',#906,#907);
#906 = CARTESIAN_POINT('',(-27.25,-4.,5.725));
#907 = VECTOR('',#908,1.);
#908 = DIRECTION('',(0.,-0.,1.));
#909 = ORIENTED_EDGE('',*,*,#910,.T.);
#910 = EDGE_CURVE('',#903,#911,#913,.T.);
#911 = VERTEX_POINT('',#912);
#912 = CARTESIAN_POINT('',(-27.25,4.,8.));
#913 = LINE('',#914,#915);
#914 = CARTESIAN_POINT('',(-27.25,-4.,8.));
#915 = VECTOR('',#916,1.);
#916 = DIRECTION('',(1.110223024625E-16,1.,0.));
#917 = ORIENTED_EDGE('',*,*,#918,.T.);
#918 = EDGE_CURVE('',#911,#303,#919,.T.);
#919 = LINE('',#920,#921);
#920 = CARTESIAN_POINT('',(-27.25,4.,5.725));
#921 = VECTOR('',#922,1.);
#922 = DIRECTION('',(0.,-0.,1.));
#923 = ORIENTED_EDGE('',*,*,#302,.F.);
#924 = ORIENTED_EDGE('',*,*,#284,.F.);
#925 = ORIENTED_EDGE('',*,*,#228,.T.);
#926 = ORIENTED_EDGE('',*,*,#860,.T.);
#927 = PLANE('',#928);
#928 = AXIS2_PLACEMENT_3D('',#929,#930,#931);
#929 = CARTESIAN_POINT('',(-27.25,-27.25,5.7));
#930 = DIRECTION('',(1.,0.,-0.));
#931 = DIRECTION('',(0.,0.,1.));
#932 = ADVANCED_FACE('',(#933),#958,.T.);
#933 = FACE_BOUND('',#934,.T.);
#934 = EDGE_LOOP('',(#935,#945,#951,#952));
#935 = ORIENTED_EDGE('',*,*,#936,.F.);
#936 = EDGE_CURVE('',#937,#939,#941,.T.);
#937 = VERTEX_POINT('',#938);
#938 = CARTESIAN_POINT('',(-28.25,-4.,6.4));
#939 = VERTEX_POINT('',#940);
#940 = CARTESIAN_POINT('',(-28.25,4.,6.4));
#941 = LINE('',#942,#943);
#942 = CARTESIAN_POINT('',(-28.25,-4.,6.4));
#943 = VECTOR('',#944,1.);
#944 = DIRECTION('',(1.110223024625E-16,1.,0.));
#945 = ORIENTED_EDGE('',*,*,#946,.T.);
#946 = EDGE_CURVE('',#937,#319,#947,.T.);
#947 = LINE('',#948,#949);
#948 = CARTESIAN_POINT('',(-28.25,-4.,6.4));
#949 = VECTOR('',#950,1.);
#950 = DIRECTION('',(0.,0.,1.));
#951 = ORIENTED_EDGE('',*,*,#318,.T.);
#952 = ORIENTED_EDGE('',*,*,#953,.F.);
#953 = EDGE_CURVE('',#939,#311,#954,.T.);
#954 = LINE('',#955,#956);
#955 = CARTESIAN_POINT('',(-28.25,4.,6.4));
#956 = VECTOR('',#957,1.);
#957 = DIRECTION('',(0.,0.,1.));
#958 = PLANE('',#959);
#959 = AXIS2_PLACEMENT_3D('',#960,#961,#962);
#960 = CARTESIAN_POINT('',(-28.25,-4.,6.4));
#961 = DIRECTION('',(-1.,1.110223024625E-16,0.));
#962 = DIRECTION('',(0.,0.,1.));
#963 = ADVANCED_FACE('',(#964),#983,.F.);
#964 = FACE_BOUND('',#965,.F.);
#965 = EDGE_LOOP('',(#966,#967,#968,#976));
#966 = ORIENTED_EDGE('',*,*,#893,.F.);
#967 = ORIENTED_EDGE('',*,*,#414,.T.);
#968 = ORIENTED_EDGE('',*,*,#969,.T.);
#969 = EDGE_CURVE('',#407,#970,#972,.T.);
#970 = VERTEX_POINT('',#971);
#971 = CARTESIAN_POINT('',(-25.,-27.25,14.2));
#972 = LINE('',#973,#974);
#973 = CARTESIAN_POINT('',(-25.,-27.25,5.7));
#974 = VECTOR('',#975,1.);
#975 = DIRECTION('',(0.,0.,1.));
#976 = ORIENTED_EDGE('',*,*,#977,.F.);
#977 = EDGE_CURVE('',#886,#970,#978,.T.);
#978 = CIRCLE('',#979,2.25);
#979 = AXIS2_PLACEMENT_3D('',#980,#981,#982);
#980 = CARTESIAN_POINT('',(-25.,-25.,14.2));
#981 = DIRECTION('',(0.,0.,1.));
#982 = DIRECTION('',(0.,-1.,0.));
#983 = CYLINDRICAL_SURFACE('',#984,2.25);
#984 = AXIS2_PLACEMENT_3D('',#985,#986,#987);
#985 = CARTESIAN_POINT('',(-25.,-25.,5.7));
#986 = DIRECTION('',(0.,0.,1.));
#987 = DIRECTION('',(-1.,-0.,0.));
#988 = ADVANCED_FACE('',(#989),#1071,.T.);
#989 = FACE_BOUND('',#990,.T.);
#990 = EDGE_LOOP('',(#991,#1001,#1009,#1017,#1025,#1033,#1041,#1049,
    #1057,#1063,#1064,#1065));
#991 = ORIENTED_EDGE('',*,*,#992,.F.);
#992 = EDGE_CURVE('',#993,#995,#997,.T.);
#993 = VERTEX_POINT('',#994);
#994 = CARTESIAN_POINT('',(25.,-27.25,5.8));
#995 = VERTEX_POINT('',#996);
#996 = CARTESIAN_POINT('',(25.,-27.25,14.2));
#997 = LINE('',#998,#999);
#998 = CARTESIAN_POINT('',(25.,-27.25,5.7));
#999 = VECTOR('',#1000,1.);
#1000 = DIRECTION('',(0.,0.,1.));
#1001 = ORIENTED_EDGE('',*,*,#1002,.T.);
#1002 = EDGE_CURVE('',#993,#1003,#1005,.T.);
#1003 = VERTEX_POINT('',#1004);
#1004 = CARTESIAN_POINT('',(4.8,-27.25,5.8));
#1005 = LINE('',#1006,#1007);
#1006 = CARTESIAN_POINT('',(-28.125,-27.25,5.8));
#1007 = VECTOR('',#1008,1.);
#1008 = DIRECTION('',(-1.,-0.,0.));
#1009 = ORIENTED_EDGE('',*,*,#1010,.T.);
#1010 = EDGE_CURVE('',#1003,#1011,#1013,.T.);
#1011 = VERTEX_POINT('',#1012);
#1012 = CARTESIAN_POINT('',(4.8,-27.25,13.8));
#1013 = LINE('',#1014,#1015);
#1014 = CARTESIAN_POINT('',(4.8,-27.25,5.725));
#1015 = VECTOR('',#1016,1.);
#1016 = DIRECTION('',(0.,0.,1.));
#1017 = ORIENTED_EDGE('',*,*,#1018,.F.);
#1018 = EDGE_CURVE('',#1019,#1011,#1021,.T.);
#1019 = VERTEX_POINT('',#1020);
#1020 = CARTESIAN_POINT('',(4.,-27.25,13.8));
#1021 = LINE('',#1022,#1023);
#1022 = CARTESIAN_POINT('',(-11.225,-27.25,13.8));
#1023 = VECTOR('',#1024,1.);
#1024 = DIRECTION('',(1.,0.,-0.));
#1025 = ORIENTED_EDGE('',*,*,#1026,.F.);
#1026 = EDGE_CURVE('',#1027,#1019,#1029,.T.);
#1027 = VERTEX_POINT('',#1028);
#1028 = CARTESIAN_POINT('',(4.,-27.25,8.));
#1029 = LINE('',#1030,#1031);
#1030 = CARTESIAN_POINT('',(4.,-27.25,5.725));
#1031 = VECTOR('',#1032,1.);
#1032 = DIRECTION('',(0.,0.,1.));
#1033 = ORIENTED_EDGE('',*,*,#1034,.T.);
#1034 = EDGE_CURVE('',#1027,#1035,#1037,.T.);
#1035 = VERTEX_POINT('',#1036);
#1036 = CARTESIAN_POINT('',(-4.,-27.25,8.));
#1037 = LINE('',#1038,#1039);
#1038 = CARTESIAN_POINT('',(4.,-27.25,8.));
#1039 = VECTOR('',#1040,1.);
#1040 = DIRECTION('',(-1.,1.224646799147E-16,0.));
#1041 = ORIENTED_EDGE('',*,*,#1042,.T.);
#1042 = EDGE_CURVE('',#1035,#1043,#1045,.T.);
#1043 = VERTEX_POINT('',#1044);
#1044 = CARTESIAN_POINT('',(-4.,-27.25,13.8));
#1045 = LINE('',#1046,#1047);
#1046 = CARTESIAN_POINT('',(-4.,-27.25,5.725));
#1047 = VECTOR('',#1048,1.);
#1048 = DIRECTION('',(0.,0.,1.));
#1049 = ORIENTED_EDGE('',*,*,#1050,.F.);
#1050 = EDGE_CURVE('',#1051,#1043,#1053,.T.);
#1051 = VERTEX_POINT('',#1052);
#1052 = CARTESIAN_POINT('',(-4.8,-27.25,13.8));
#1053 = LINE('',#1054,#1055);
#1054 = CARTESIAN_POINT('',(-15.625,-27.25,13.8));
#1055 = VECTOR('',#1056,1.);
#1056 = DIRECTION('',(1.,0.,-0.));
#1057 = ORIENTED_EDGE('',*,*,#1058,.F.);
#1058 = EDGE_CURVE('',#399,#1051,#1059,.T.);
#1059 = LINE('',#1060,#1061);
#1060 = CARTESIAN_POINT('',(-4.8,-27.25,5.725));
#1061 = VECTOR('',#1062,1.);
#1062 = DIRECTION('',(0.,0.,1.));
#1063 = ORIENTED_EDGE('',*,*,#406,.T.);
#1064 = ORIENTED_EDGE('',*,*,#969,.T.);
#1065 = ORIENTED_EDGE('',*,*,#1066,.T.);
#1066 = EDGE_CURVE('',#970,#995,#1067,.T.);
#1067 = LINE('',#1068,#1069);
#1068 = CARTESIAN_POINT('',(-27.25,-27.25,14.2));
#1069 = VECTOR('',#1070,1.);
#1070 = DIRECTION('',(1.,0.,-0.));
#1071 = PLANE('',#1072);
#1072 = AXIS2_PLACEMENT_3D('',#1073,#1074,#1075);
#1073 = CARTESIAN_POINT('',(-27.25,-27.25,5.7));
#1074 = DIRECTION('',(-0.,1.,0.));
#1075 = DIRECTION('',(0.,0.,1.));
#1076 = ADVANCED_FACE('',(#1077),#1088,.F.);
#1077 = FACE_BOUND('',#1078,.F.);
#1078 = EDGE_LOOP('',(#1079,#1085,#1086,#1087));
#1079 = ORIENTED_EDGE('',*,*,#1080,.F.);
#1080 = EDGE_CURVE('',#1051,#483,#1081,.T.);
#1081 = LINE('',#1082,#1083);
#1082 = CARTESIAN_POINT('',(-4.8,-27.15,13.8));
#1083 = VECTOR('',#1084,1.);
#1084 = DIRECTION('',(-1.224646799147E-16,-1.,0.));
#1085 = ORIENTED_EDGE('',*,*,#1058,.F.);
#1086 = ORIENTED_EDGE('',*,*,#398,.T.);
#1087 = ORIENTED_EDGE('',*,*,#490,.T.);
#1088 = PLANE('',#1089);
#1089 = AXIS2_PLACEMENT_3D('',#1090,#1091,#1092);
#1090 = CARTESIAN_POINT('',(-4.8,-27.15,5.75));
#1091 = DIRECTION('',(-1.,1.224646799147E-16,0.));
#1092 = DIRECTION('',(0.,0.,1.));
#1093 = ADVANCED_FACE('',(#1094),#1128,.T.);
#1094 = FACE_BOUND('',#1095,.T.);
#1095 = EDGE_LOOP('',(#1096,#1097,#1098,#1099,#1107,#1115,#1121,#1122));
#1096 = ORIENTED_EDGE('',*,*,#482,.F.);
#1097 = ORIENTED_EDGE('',*,*,#1080,.F.);
#1098 = ORIENTED_EDGE('',*,*,#1050,.T.);
#1099 = ORIENTED_EDGE('',*,*,#1100,.T.);
#1100 = EDGE_CURVE('',#1043,#1101,#1103,.T.);
#1101 = VERTEX_POINT('',#1102);
#1102 = CARTESIAN_POINT('',(-4.,-28.25,13.8));
#1103 = LINE('',#1104,#1105);
#1104 = CARTESIAN_POINT('',(-4.,-27.15,13.8));
#1105 = VECTOR('',#1106,1.);
#1106 = DIRECTION('',(-1.224646799147E-16,-1.,0.));
#1107 = ORIENTED_EDGE('',*,*,#1108,.F.);
#1108 = EDGE_CURVE('',#1109,#1101,#1111,.T.);
#1109 = VERTEX_POINT('',#1110);
#1110 = CARTESIAN_POINT('',(4.,-28.25,13.8));
#1111 = LINE('',#1112,#1113);
#1112 = CARTESIAN_POINT('',(4.,-28.25,13.8));
#1113 = VECTOR('',#1114,1.);
#1114 = DIRECTION('',(-1.,1.224646799147E-16,0.));
#1115 = ORIENTED_EDGE('',*,*,#1116,.F.);
#1116 = EDGE_CURVE('',#1019,#1109,#1117,.T.);
#1117 = LINE('',#1118,#1119);
#1118 = CARTESIAN_POINT('',(4.,-27.15,13.8));
#1119 = VECTOR('',#1120,1.);
#1120 = DIRECTION('',(-1.224646799147E-16,-1.,0.));
#1121 = ORIENTED_EDGE('',*,*,#1018,.T.);
#1122 = ORIENTED_EDGE('',*,*,#1123,.T.);
#1123 = EDGE_CURVE('',#1011,#475,#1124,.T.);
#1124 = LINE('',#1125,#1126);
#1125 = CARTESIAN_POINT('',(4.8,-27.15,13.8));
#1126 = VECTOR('',#1127,1.);
#1127 = DIRECTION('',(-1.224646799147E-16,-1.,0.));
#1128 = PLANE('',#1129);
#1129 = AXIS2_PLACEMENT_3D('',#1130,#1131,#1132);
#1130 = CARTESIAN_POINT('',(-2.589022114106E-15,-28.4185222672,13.8));
#1131 = DIRECTION('',(-0.,-0.,-1.));
#1132 = DIRECTION('',(-1.,0.,0.));
#1133 = ADVANCED_FACE('',(#1134),#1145,.T.);
#1134 = FACE_BOUND('',#1135,.T.);
#1135 = EDGE_LOOP('',(#1136,#1137,#1138,#1144));
#1136 = ORIENTED_EDGE('',*,*,#1123,.F.);
#1137 = ORIENTED_EDGE('',*,*,#1010,.F.);
#1138 = ORIENTED_EDGE('',*,*,#1139,.T.);
#1139 = EDGE_CURVE('',#1003,#467,#1140,.T.);
#1140 = LINE('',#1141,#1142);
#1141 = CARTESIAN_POINT('',(4.8,-28.075,5.8));
#1142 = VECTOR('',#1143,1.);
#1143 = DIRECTION('',(-1.224646799147E-16,-1.,0.));
#1144 = ORIENTED_EDGE('',*,*,#474,.T.);
#1145 = PLANE('',#1146);
#1146 = AXIS2_PLACEMENT_3D('',#1147,#1148,#1149);
#1147 = CARTESIAN_POINT('',(4.8,-27.15,5.75));
#1148 = DIRECTION('',(-1.,1.224646799147E-16,0.));
#1149 = DIRECTION('',(0.,0.,1.));
#1150 = ADVANCED_FACE('',(#1151),#1181,.F.);
#1151 = FACE_BOUND('',#1152,.F.);
#1152 = EDGE_LOOP('',(#1153,#1154,#1155,#1156,#1157,#1165,#1173,#1180));
#1153 = ORIENTED_EDGE('',*,*,#1139,.T.);
#1154 = ORIENTED_EDGE('',*,*,#466,.T.);
#1155 = ORIENTED_EDGE('',*,*,#553,.F.);
#1156 = ORIENTED_EDGE('',*,*,#605,.T.);
#1157 = ORIENTED_EDGE('',*,*,#1158,.F.);
#1158 = EDGE_CURVE('',#1159,#606,#1161,.T.);
#1159 = VERTEX_POINT('',#1160);
#1160 = CARTESIAN_POINT('',(27.25,-4.8,5.8));
#1161 = LINE('',#1162,#1163);
#1162 = CARTESIAN_POINT('',(-0.925,-4.8,5.8));
#1163 = VECTOR('',#1164,1.);
#1164 = DIRECTION('',(1.,-2.22044604925E-16,0.));
#1165 = ORIENTED_EDGE('',*,*,#1166,.F.);
#1166 = EDGE_CURVE('',#1167,#1159,#1169,.T.);
#1167 = VERTEX_POINT('',#1168);
#1168 = CARTESIAN_POINT('',(27.25,-25.,5.8));
#1169 = LINE('',#1170,#1171);
#1170 = CARTESIAN_POINT('',(27.25,-28.125,5.8));
#1171 = VECTOR('',#1172,1.);
#1172 = DIRECTION('',(-0.,1.,0.));
#1173 = ORIENTED_EDGE('',*,*,#1174,.F.);
#1174 = EDGE_CURVE('',#993,#1167,#1175,.T.);
#1175 = CIRCLE('',#1176,2.25);
#1176 = AXIS2_PLACEMENT_3D('',#1177,#1178,#1179);
#1177 = CARTESIAN_POINT('',(25.,-25.,5.8));
#1178 = DIRECTION('',(0.,0.,1.));
#1179 = DIRECTION('',(1.,0.,-0.));
#1180 = ORIENTED_EDGE('',*,*,#1002,.T.);
#1181 = PLANE('',#1182);
#1182 = AXIS2_PLACEMENT_3D('',#1183,#1184,#1185);
#1183 = CARTESIAN_POINT('',(-29.,-29.,5.8));
#1184 = DIRECTION('',(0.,0.,1.));
#1185 = DIRECTION('',(1.,0.,-0.));
#1186 = ADVANCED_FACE('',(#1187),#1221,.T.);
#1187 = FACE_BOUND('',#1188,.T.);
#1188 = EDGE_LOOP('',(#1189,#1190,#1191,#1197,#1198,#1206,#1214,#1220));
#1189 = ORIENTED_EDGE('',*,*,#748,.T.);
#1190 = ORIENTED_EDGE('',*,*,#531,.T.);
#1191 = ORIENTED_EDGE('',*,*,#1192,.F.);
#1192 = EDGE_CURVE('',#791,#524,#1193,.T.);
#1193 = LINE('',#1194,#1195);
#1194 = CARTESIAN_POINT('',(4.8,27.15,13.8));
#1195 = VECTOR('',#1196,1.);
#1196 = DIRECTION('',(0.,1.,0.));
#1197 = ORIENTED_EDGE('',*,*,#798,.F.);
#1198 = ORIENTED_EDGE('',*,*,#1199,.T.);
#1199 = EDGE_CURVE('',#799,#1200,#1202,.T.);
#1200 = VERTEX_POINT('',#1201);
#1201 = CARTESIAN_POINT('',(4.,28.25,13.8));
#1202 = LINE('',#1203,#1204);
#1203 = CARTESIAN_POINT('',(4.,27.15,13.8));
#1204 = VECTOR('',#1205,1.);
#1205 = DIRECTION('',(0.,1.,0.));
#1206 = ORIENTED_EDGE('',*,*,#1207,.F.);
#1207 = EDGE_CURVE('',#1208,#1200,#1210,.T.);
#1208 = VERTEX_POINT('',#1209);
#1209 = CARTESIAN_POINT('',(-4.,28.25,13.8));
#1210 = LINE('',#1211,#1212);
#1211 = CARTESIAN_POINT('',(-4.,28.25,13.8));
#1212 = VECTOR('',#1213,1.);
#1213 = DIRECTION('',(1.,0.,0.));
#1214 = ORIENTED_EDGE('',*,*,#1215,.F.);
#1215 = EDGE_CURVE('',#823,#1208,#1216,.T.);
#1216 = LINE('',#1217,#1218);
#1217 = CARTESIAN_POINT('',(-4.,27.15,13.8));
#1218 = VECTOR('',#1219,1.);
#1219 = DIRECTION('',(0.,1.,0.));
#1220 = ORIENTED_EDGE('',*,*,#830,.F.);
#1221 = PLANE('',#1222);
#1222 = AXIS2_PLACEMENT_3D('',#1223,#1224,#1225);
#1223 = CARTESIAN_POINT('',(6.292762082896E-17,28.418522267206,13.8));
#1224 = DIRECTION('',(-0.,-0.,-1.));
#1225 = DIRECTION('',(-1.,0.,0.));
#1226 = ADVANCED_FACE('',(#1227),#1238,.F.);
#1227 = FACE_BOUND('',#1228,.F.);
#1228 = EDGE_LOOP('',(#1229,#1230,#1231,#1237));
#1229 = ORIENTED_EDGE('',*,*,#1192,.F.);
#1230 = ORIENTED_EDGE('',*,*,#790,.T.);
#1231 = ORIENTED_EDGE('',*,*,#1232,.T.);
#1232 = EDGE_CURVE('',#783,#516,#1233,.T.);
#1233 = LINE('',#1234,#1235);
#1234 = CARTESIAN_POINT('',(4.8,-0.925,5.8));
#1235 = VECTOR('',#1236,1.);
#1236 = DIRECTION('',(0.,1.,0.));
#1237 = ORIENTED_EDGE('',*,*,#523,.F.);
#1238 = PLANE('',#1239);
#1239 = AXIS2_PLACEMENT_3D('',#1240,#1241,#1242);
#1240 = CARTESIAN_POINT('',(4.8,27.15,5.75));
#1241 = DIRECTION('',(1.,0.,0.));
#1242 = DIRECTION('',(0.,0.,1.));
#1243 = ADVANCED_FACE('',(#1244),#1274,.F.);
#1244 = FACE_BOUND('',#1245,.F.);
#1245 = EDGE_LOOP('',(#1246,#1247,#1248,#1249,#1258,#1266,#1272,#1273));
#1246 = ORIENTED_EDGE('',*,*,#515,.F.);
#1247 = ORIENTED_EDGE('',*,*,#1232,.F.);
#1248 = ORIENTED_EDGE('',*,*,#782,.F.);
#1249 = ORIENTED_EDGE('',*,*,#1250,.F.);
#1250 = EDGE_CURVE('',#1251,#773,#1253,.T.);
#1251 = VERTEX_POINT('',#1252);
#1252 = CARTESIAN_POINT('',(27.25,25.,5.8));
#1253 = CIRCLE('',#1254,2.25);
#1254 = AXIS2_PLACEMENT_3D('',#1255,#1256,#1257);
#1255 = CARTESIAN_POINT('',(25.,25.,5.8));
#1256 = DIRECTION('',(0.,0.,1.));
#1257 = DIRECTION('',(1.,0.,-0.));
#1258 = ORIENTED_EDGE('',*,*,#1259,.F.);
#1259 = EDGE_CURVE('',#1260,#1251,#1262,.T.);
#1260 = VERTEX_POINT('',#1261);
#1261 = CARTESIAN_POINT('',(27.25,4.8,5.8));
#1262 = LINE('',#1263,#1264);
#1263 = CARTESIAN_POINT('',(27.25,-28.125,5.8));
#1264 = VECTOR('',#1265,1.);
#1265 = DIRECTION('',(-0.,1.,0.));
#1266 = ORIENTED_EDGE('',*,*,#1267,.T.);
#1267 = EDGE_CURVE('',#1260,#630,#1268,.T.);
#1268 = LINE('',#1269,#1270);
#1269 = CARTESIAN_POINT('',(-0.925,4.8,5.8));
#1270 = VECTOR('',#1271,1.);
#1271 = DIRECTION('',(1.,-2.22044604925E-16,0.));
#1272 = ORIENTED_EDGE('',*,*,#637,.T.);
#1273 = ORIENTED_EDGE('',*,*,#578,.T.);
#1274 = PLANE('',#1275);
#1275 = AXIS2_PLACEMENT_3D('',#1276,#1277,#1278);
#1276 = CARTESIAN_POINT('',(-29.,-29.,5.8));
#1277 = DIRECTION('',(0.,0.,1.));
#1278 = DIRECTION('',(1.,0.,-0.));
#1279 = ADVANCED_FACE('',(#1280),#1298,.T.);
#1280 = FACE_BOUND('',#1281,.T.);
#1281 = EDGE_LOOP('',(#1282,#1290,#1296,#1297));
#1282 = ORIENTED_EDGE('',*,*,#1283,.F.);
#1283 = EDGE_CURVE('',#1284,#622,#1286,.T.);
#1284 = VERTEX_POINT('',#1285);
#1285 = CARTESIAN_POINT('',(27.25,4.8,13.8));
#1286 = LINE('',#1287,#1288);
#1287 = CARTESIAN_POINT('',(27.15,4.8,13.8));
#1288 = VECTOR('',#1289,1.);
#1289 = DIRECTION('',(1.,-2.22044604925E-16,0.));
#1290 = ORIENTED_EDGE('',*,*,#1291,.T.);
#1291 = EDGE_CURVE('',#1284,#1260,#1292,.T.);
#1292 = LINE('',#1293,#1294);
#1293 = CARTESIAN_POINT('',(27.25,4.8,5.725));
#1294 = VECTOR('',#1295,1.);
#1295 = DIRECTION('',(0.,0.,-1.));
#1296 = ORIENTED_EDGE('',*,*,#1267,.T.);
#1297 = ORIENTED_EDGE('',*,*,#629,.F.);
#1298 = PLANE('',#1299);
#1299 = AXIS2_PLACEMENT_3D('',#1300,#1301,#1302);
#1300 = CARTESIAN_POINT('',(27.15,4.8,5.75));
#1301 = DIRECTION('',(-2.22044604925E-16,-1.,0.));
#1302 = DIRECTION('',(0.,0.,1.));
#1303 = ADVANCED_FACE('',(#1304),#1354,.T.);
#1304 = FACE_BOUND('',#1305,.T.);
#1305 = EDGE_LOOP('',(#1306,#1307,#1308,#1316,#1324,#1332,#1340,#1348));
#1306 = ORIENTED_EDGE('',*,*,#1283,.T.);
#1307 = ORIENTED_EDGE('',*,*,#621,.T.);
#1308 = ORIENTED_EDGE('',*,*,#1309,.F.);
#1309 = EDGE_CURVE('',#1310,#614,#1312,.T.);
#1310 = VERTEX_POINT('',#1311);
#1311 = CARTESIAN_POINT('',(27.25,-4.8,13.8));
#1312 = LINE('',#1313,#1314);
#1313 = CARTESIAN_POINT('',(27.15,-4.8,13.8));
#1314 = VECTOR('',#1315,1.);
#1315 = DIRECTION('',(1.,-2.22044604925E-16,0.));
#1316 = ORIENTED_EDGE('',*,*,#1317,.F.);
#1317 = EDGE_CURVE('',#1318,#1310,#1320,.T.);
#1318 = VERTEX_POINT('',#1319);
#1319 = CARTESIAN_POINT('',(27.25,-4.,13.8));
#1320 = LINE('',#1321,#1322);
#1321 = CARTESIAN_POINT('',(27.25,-15.625,13.8));
#1322 = VECTOR('',#1323,1.);
#1323 = DIRECTION('',(0.,-1.,0.));
#1324 = ORIENTED_EDGE('',*,*,#1325,.T.);
#1325 = EDGE_CURVE('',#1318,#1326,#1328,.T.);
#1326 = VERTEX_POINT('',#1327);
#1327 = CARTESIAN_POINT('',(28.25,-4.,13.8));
#1328 = LINE('',#1329,#1330);
#1329 = CARTESIAN_POINT('',(27.15,-4.,13.8));
#1330 = VECTOR('',#1331,1.);
#1331 = DIRECTION('',(1.,-2.22044604925E-16,0.));
#1332 = ORIENTED_EDGE('',*,*,#1333,.F.);
#1333 = EDGE_CURVE('',#1334,#1326,#1336,.T.);
#1334 = VERTEX_POINT('',#1335);
#1335 = CARTESIAN_POINT('',(28.25,4.,13.8));
#1336 = LINE('',#1337,#1338);
#1337 = CARTESIAN_POINT('',(28.25,4.,13.8));
#1338 = VECTOR('',#1339,1.);
#1339 = DIRECTION('',(-2.22044604925E-16,-1.,0.));
#1340 = ORIENTED_EDGE('',*,*,#1341,.F.);
#1341 = EDGE_CURVE('',#1342,#1334,#1344,.T.);
#1342 = VERTEX_POINT('',#1343);
#1343 = CARTESIAN_POINT('',(27.25,4.,13.8));
#1344 = LINE('',#1345,#1346);
#1345 = CARTESIAN_POINT('',(27.15,4.,13.8));
#1346 = VECTOR('',#1347,1.);
#1347 = DIRECTION('',(1.,-2.22044604925E-16,0.));
#1348 = ORIENTED_EDGE('',*,*,#1349,.F.);
#1349 = EDGE_CURVE('',#1284,#1342,#1350,.T.);
#1350 = LINE('',#1351,#1352);
#1351 = CARTESIAN_POINT('',(27.25,-11.225,13.8));
#1352 = VECTOR('',#1353,1.);
#1353 = DIRECTION('',(0.,-1.,0.));
#1354 = PLANE('',#1355);
#1355 = AXIS2_PLACEMENT_3D('',#1356,#1357,#1358);
#1356 = CARTESIAN_POINT('',(28.418522267206,-6.616389847159E-15,13.8));
#1357 = DIRECTION('',(-0.,-0.,-1.));
#1358 = DIRECTION('',(-1.,0.,0.));
#1359 = ADVANCED_FACE('',(#1360),#1371,.F.);
#1360 = FACE_BOUND('',#1361,.F.);
#1361 = EDGE_LOOP('',(#1362,#1363,#1369,#1370));
#1362 = ORIENTED_EDGE('',*,*,#1309,.F.);
#1363 = ORIENTED_EDGE('',*,*,#1364,.T.);
#1364 = EDGE_CURVE('',#1310,#1159,#1365,.T.);
#1365 = LINE('',#1366,#1367);
#1366 = CARTESIAN_POINT('',(27.25,-4.8,5.725));
#1367 = VECTOR('',#1368,1.);
#1368 = DIRECTION('',(0.,0.,-1.));
#1369 = ORIENTED_EDGE('',*,*,#1158,.T.);
#1370 = ORIENTED_EDGE('',*,*,#613,.F.);
#1371 = PLANE('',#1372);
#1372 = AXIS2_PLACEMENT_3D('',#1373,#1374,#1375);
#1373 = CARTESIAN_POINT('',(27.15,-4.8,5.75));
#1374 = DIRECTION('',(-2.22044604925E-16,-1.,0.));
#1375 = DIRECTION('',(0.,0.,1.));
#1376 = ADVANCED_FACE('',(#1377,#1408),#1414,.F.);
#1377 = FACE_BOUND('',#1378,.F.);
#1378 = EDGE_LOOP('',(#1379,#1380,#1381,#1382,#1391,#1399,#1406,#1407));
#1379 = ORIENTED_EDGE('',*,*,#885,.F.);
#1380 = ORIENTED_EDGE('',*,*,#977,.T.);
#1381 = ORIENTED_EDGE('',*,*,#1066,.T.);
#1382 = ORIENTED_EDGE('',*,*,#1383,.F.);
#1383 = EDGE_CURVE('',#1384,#995,#1386,.T.);
#1384 = VERTEX_POINT('',#1385);
#1385 = CARTESIAN_POINT('',(27.25,-25.,14.2));
#1386 = CIRCLE('',#1387,2.25);
#1387 = AXIS2_PLACEMENT_3D('',#1388,#1389,#1390);
#1388 = CARTESIAN_POINT('',(25.,-25.,14.2));
#1389 = DIRECTION('',(-0.,-0.,-1.));
#1390 = DIRECTION('',(0.,-1.,0.));
#1391 = ORIENTED_EDGE('',*,*,#1392,.T.);
#1392 = EDGE_CURVE('',#1384,#1393,#1395,.T.);
#1393 = VERTEX_POINT('',#1394);
#1394 = CARTESIAN_POINT('',(27.25,25.,14.2));
#1395 = LINE('',#1396,#1397);
#1396 = CARTESIAN_POINT('',(27.25,-27.25,14.2));
#1397 = VECTOR('',#1398,1.);
#1398 = DIRECTION('',(-0.,1.,0.));
#1399 = ORIENTED_EDGE('',*,*,#1400,.T.);
#1400 = EDGE_CURVE('',#1393,#775,#1401,.T.);
#1401 = CIRCLE('',#1402,2.25);
#1402 = AXIS2_PLACEMENT_3D('',#1403,#1404,#1405);
#1403 = CARTESIAN_POINT('',(25.,25.,14.2));
#1404 = DIRECTION('',(0.,0.,1.));
#1405 = DIRECTION('',(0.,-1.,0.));
#1406 = ORIENTED_EDGE('',*,*,#846,.F.);
#1407 = ORIENTED_EDGE('',*,*,#870,.F.);
#1408 = FACE_BOUND('',#1409,.F.);
#1409 = EDGE_LOOP('',(#1410,#1411,#1412,#1413));
#1410 = ORIENTED_EDGE('',*,*,#660,.T.);
#1411 = ORIENTED_EDGE('',*,*,#732,.T.);
#1412 = ORIENTED_EDGE('',*,*,#708,.F.);
#1413 = ORIENTED_EDGE('',*,*,#684,.F.);
#1414 = PLANE('',#1415);
#1415 = AXIS2_PLACEMENT_3D('',#1416,#1417,#1418);
#1416 = CARTESIAN_POINT('',(-27.25,-27.25,14.2));
#1417 = DIRECTION('',(0.,0.,1.));
#1418 = DIRECTION('',(1.,0.,-0.));
#1419 = ADVANCED_FACE('',(#1420),#1431,.F.);
#1420 = FACE_BOUND('',#1421,.F.);
#1421 = EDGE_LOOP('',(#1422,#1428,#1429,#1430));
#1422 = ORIENTED_EDGE('',*,*,#1423,.F.);
#1423 = EDGE_CURVE('',#1251,#1393,#1424,.T.);
#1424 = LINE('',#1425,#1426);
#1425 = CARTESIAN_POINT('',(27.25,25.,5.7));
#1426 = VECTOR('',#1427,1.);
#1427 = DIRECTION('',(0.,0.,1.));
#1428 = ORIENTED_EDGE('',*,*,#1250,.T.);
#1429 = ORIENTED_EDGE('',*,*,#772,.T.);
#1430 = ORIENTED_EDGE('',*,*,#1400,.F.);
#1431 = CYLINDRICAL_SURFACE('',#1432,2.25);
#1432 = AXIS2_PLACEMENT_3D('',#1433,#1434,#1435);
#1433 = CARTESIAN_POINT('',(25.,25.,5.7));
#1434 = DIRECTION('',(0.,0.,1.));
#1435 = DIRECTION('',(1.,0.,-0.));
#1436 = ADVANCED_FACE('',(#1437),#1462,.T.);
#1437 = FACE_BOUND('',#1438,.T.);
#1438 = EDGE_LOOP('',(#1439,#1449,#1455,#1456));
#1439 = ORIENTED_EDGE('',*,*,#1440,.T.);
#1440 = EDGE_CURVE('',#1441,#1443,#1445,.T.);
#1441 = VERTEX_POINT('',#1442);
#1442 = CARTESIAN_POINT('',(-4.,26.65,7.4));
#1443 = VERTEX_POINT('',#1444);
#1444 = CARTESIAN_POINT('',(4.,26.65,7.4));
#1445 = LINE('',#1446,#1447);
#1446 = CARTESIAN_POINT('',(-4.,26.65,7.4));
#1447 = VECTOR('',#1448,1.);
#1448 = DIRECTION('',(1.,0.,0.));
#1449 = ORIENTED_EDGE('',*,*,#1450,.T.);
#1450 = EDGE_CURVE('',#1443,#807,#1451,.T.);
#1451 = LINE('',#1452,#1453);
#1452 = CARTESIAN_POINT('',(4.,26.65,7.4));
#1453 = VECTOR('',#1454,1.);
#1454 = DIRECTION('',(0.,0.707106781187,0.707106781187));
#1455 = ORIENTED_EDGE('',*,*,#814,.F.);
#1456 = ORIENTED_EDGE('',*,*,#1457,.F.);
#1457 = EDGE_CURVE('',#1441,#815,#1458,.T.);
#1458 = LINE('',#1459,#1460);
#1459 = CARTESIAN_POINT('',(-4.,26.65,7.4));
#1460 = VECTOR('',#1461,1.);
#1461 = DIRECTION('',(0.,0.707106781187,0.707106781187));
#1462 = PLANE('',#1463);
#1463 = AXIS2_PLACEMENT_3D('',#1464,#1465,#1466);
#1464 = CARTESIAN_POINT('',(-4.,26.65,7.4));
#1465 = DIRECTION('',(0.,-0.707106781187,0.707106781187));
#1466 = DIRECTION('',(0.,0.707106781187,0.707106781187));
#1467 = ADVANCED_FACE('',(#1468),#1493,.T.);
#1468 = FACE_BOUND('',#1469,.T.);
#1469 = EDGE_LOOP('',(#1470,#1480,#1486,#1487));
#1470 = ORIENTED_EDGE('',*,*,#1471,.T.);
#1471 = EDGE_CURVE('',#1472,#1474,#1476,.T.);
#1472 = VERTEX_POINT('',#1473);
#1473 = CARTESIAN_POINT('',(-26.65,-4.,7.4));
#1474 = VERTEX_POINT('',#1475);
#1475 = CARTESIAN_POINT('',(-26.65,4.,7.4));
#1476 = LINE('',#1477,#1478);
#1477 = CARTESIAN_POINT('',(-26.65,-4.,7.4));
#1478 = VECTOR('',#1479,1.);
#1479 = DIRECTION('',(1.110223024625E-16,1.,0.));
#1480 = ORIENTED_EDGE('',*,*,#1481,.T.);
#1481 = EDGE_CURVE('',#1474,#911,#1482,.T.);
#1482 = LINE('',#1483,#1484);
#1483 = CARTESIAN_POINT('',(-26.65,4.,7.4));
#1484 = VECTOR('',#1485,1.);
#1485 = DIRECTION('',(-0.707106781187,7.850462293419E-17,0.707106781187)
  );
#1486 = ORIENTED_EDGE('',*,*,#910,.F.);
#1487 = ORIENTED_EDGE('',*,*,#1488,.F.);
#1488 = EDGE_CURVE('',#1472,#903,#1489,.T.);
#1489 = LINE('',#1490,#1491);
#1490 = CARTESIAN_POINT('',(-26.65,-4.,7.4));
#1491 = VECTOR('',#1492,1.);
#1492 = DIRECTION('',(-0.707106781187,7.850462293419E-17,0.707106781187)
  );
#1493 = PLANE('',#1494);
#1494 = AXIS2_PLACEMENT_3D('',#1495,#1496,#1497);
#1495 = CARTESIAN_POINT('',(-26.65,-4.,7.4));
#1496 = DIRECTION('',(0.707106781187,-7.850462293419E-17,0.707106781187)
  );
#1497 = DIRECTION('',(-0.707106781187,7.850462293419E-17,0.707106781187)
  );
#1498 = ADVANCED_FACE('',(#1499),#1524,.F.);
#1499 = FACE_BOUND('',#1500,.F.);
#1500 = EDGE_LOOP('',(#1501,#1502,#1510,#1518));
#1501 = ORIENTED_EDGE('',*,*,#936,.F.);
#1502 = ORIENTED_EDGE('',*,*,#1503,.F.);
#1503 = EDGE_CURVE('',#1504,#937,#1506,.T.);
#1504 = VERTEX_POINT('',#1505);
#1505 = CARTESIAN_POINT('',(-27.25,-4.,6.4));
#1506 = LINE('',#1507,#1508);
#1507 = CARTESIAN_POINT('',(-27.15,-4.,6.4));
#1508 = VECTOR('',#1509,1.);
#1509 = DIRECTION('',(-1.,1.110223024625E-16,0.));
#1510 = ORIENTED_EDGE('',*,*,#1511,.F.);
#1511 = EDGE_CURVE('',#1512,#1504,#1514,.T.);
#1512 = VERTEX_POINT('',#1513);
#1513 = CARTESIAN_POINT('',(-27.25,4.,6.4));
#1514 = LINE('',#1515,#1516);
#1515 = CARTESIAN_POINT('',(-27.25,-15.625,6.4));
#1516 = VECTOR('',#1517,1.);
#1517 = DIRECTION('',(0.,-1.,0.));
#1518 = ORIENTED_EDGE('',*,*,#1519,.T.);
#1519 = EDGE_CURVE('',#1512,#939,#1520,.T.);
#1520 = LINE('',#1521,#1522);
#1521 = CARTESIAN_POINT('',(-27.15,4.,6.4));
#1522 = VECTOR('',#1523,1.);
#1523 = DIRECTION('',(-1.,1.110223024625E-16,0.));
#1524 = PLANE('',#1525);
#1525 = AXIS2_PLACEMENT_3D('',#1526,#1527,#1528);
#1526 = CARTESIAN_POINT('',(-27.15,-4.,6.4));
#1527 = DIRECTION('',(0.,0.,1.));
#1528 = DIRECTION('',(1.110223024625E-16,1.,0.));
#1529 = ADVANCED_FACE('',(#1530),#1555,.T.);
#1530 = FACE_BOUND('',#1531,.T.);
#1531 = EDGE_LOOP('',(#1532,#1542,#1548,#1549));
#1532 = ORIENTED_EDGE('',*,*,#1533,.F.);
#1533 = EDGE_CURVE('',#1534,#1536,#1538,.T.);
#1534 = VERTEX_POINT('',#1535);
#1535 = CARTESIAN_POINT('',(-27.25,-4.,6.5));
#1536 = VERTEX_POINT('',#1537);
#1537 = CARTESIAN_POINT('',(-27.25,4.,6.5));
#1538 = LINE('',#1539,#1540);
#1539 = CARTESIAN_POINT('',(-27.25,-4.,6.5));
#1540 = VECTOR('',#1541,1.);
#1541 = DIRECTION('',(1.110223024625E-16,1.,0.));
#1542 = ORIENTED_EDGE('',*,*,#1543,.F.);
#1543 = EDGE_CURVE('',#1504,#1534,#1544,.T.);
#1544 = LINE('',#1545,#1546);
#1545 = CARTESIAN_POINT('',(-27.25,-4.,5.725));
#1546 = VECTOR('',#1547,1.);
#1547 = DIRECTION('',(0.,-0.,1.));
#1548 = ORIENTED_EDGE('',*,*,#1511,.F.);
#1549 = ORIENTED_EDGE('',*,*,#1550,.T.);
#1550 = EDGE_CURVE('',#1512,#1536,#1551,.T.);
#1551 = LINE('',#1552,#1553);
#1552 = CARTESIAN_POINT('',(-27.25,4.,5.725));
#1553 = VECTOR('',#1554,1.);
#1554 = DIRECTION('',(0.,-0.,1.));
#1555 = PLANE('',#1556);
#1556 = AXIS2_PLACEMENT_3D('',#1557,#1558,#1559);
#1557 = CARTESIAN_POINT('',(-27.25,-27.25,5.7));
#1558 = DIRECTION('',(1.,0.,-0.));
#1559 = DIRECTION('',(0.,0.,1.));
#1560 = ADVANCED_FACE('',(#1561),#1572,.F.);
#1561 = FACE_BOUND('',#1562,.T.);
#1562 = EDGE_LOOP('',(#1563,#1569,#1570,#1571));
#1563 = ORIENTED_EDGE('',*,*,#1564,.F.);
#1564 = EDGE_CURVE('',#1167,#1384,#1565,.T.);
#1565 = LINE('',#1566,#1567);
#1566 = CARTESIAN_POINT('',(27.25,-25.,5.7));
#1567 = VECTOR('',#1568,1.);
#1568 = DIRECTION('',(0.,0.,1.));
#1569 = ORIENTED_EDGE('',*,*,#1174,.F.);
#1570 = ORIENTED_EDGE('',*,*,#992,.T.);
#1571 = ORIENTED_EDGE('',*,*,#1383,.F.);
#1572 = CYLINDRICAL_SURFACE('',#1573,2.25);
#1573 = AXIS2_PLACEMENT_3D('',#1574,#1575,#1576);
#1574 = CARTESIAN_POINT('',(25.,-25.,5.7));
#1575 = DIRECTION('',(0.,0.,1.));
#1576 = DIRECTION('',(1.,0.,-0.));
#1577 = ADVANCED_FACE('',(#1578),#1603,.T.);
#1578 = FACE_BOUND('',#1579,.T.);
#1579 = EDGE_LOOP('',(#1580,#1590,#1596,#1597));
#1580 = ORIENTED_EDGE('',*,*,#1581,.T.);
#1581 = EDGE_CURVE('',#1582,#1584,#1586,.T.);
#1582 = VERTEX_POINT('',#1583);
#1583 = CARTESIAN_POINT('',(4.,-26.65,7.4));
#1584 = VERTEX_POINT('',#1585);
#1585 = CARTESIAN_POINT('',(-4.,-26.65,7.4));
#1586 = LINE('',#1587,#1588);
#1587 = CARTESIAN_POINT('',(4.,-26.65,7.4));
#1588 = VECTOR('',#1589,1.);
#1589 = DIRECTION('',(-1.,1.224646799147E-16,0.));
#1590 = ORIENTED_EDGE('',*,*,#1591,.T.);
#1591 = EDGE_CURVE('',#1584,#1035,#1592,.T.);
#1592 = LINE('',#1593,#1594);
#1593 = CARTESIAN_POINT('',(-4.,-26.65,7.4));
#1594 = VECTOR('',#1595,1.);
#1595 = DIRECTION('',(-8.659560562355E-17,-0.707106781187,0.707106781187
    ));
#1596 = ORIENTED_EDGE('',*,*,#1034,.F.);
#1597 = ORIENTED_EDGE('',*,*,#1598,.F.);
#1598 = EDGE_CURVE('',#1582,#1027,#1599,.T.);
#1599 = LINE('',#1600,#1601);
#1600 = CARTESIAN_POINT('',(4.,-26.65,7.4));
#1601 = VECTOR('',#1602,1.);
#1602 = DIRECTION('',(-8.659560562355E-17,-0.707106781187,0.707106781187
    ));
#1603 = PLANE('',#1604);
#1604 = AXIS2_PLACEMENT_3D('',#1605,#1606,#1607);
#1605 = CARTESIAN_POINT('',(4.,-26.65,7.4));
#1606 = DIRECTION('',(8.659560562355E-17,0.707106781187,0.707106781187)
  );
#1607 = DIRECTION('',(-8.659560562355E-17,-0.707106781187,0.707106781187
    ));
#1608 = ADVANCED_FACE('',(#1609),#1634,.T.);
#1609 = FACE_BOUND('',#1610,.T.);
#1610 = EDGE_LOOP('',(#1611,#1621,#1627,#1628));
#1611 = ORIENTED_EDGE('',*,*,#1612,.F.);
#1612 = EDGE_CURVE('',#1613,#1615,#1617,.T.);
#1613 = VERTEX_POINT('',#1614);
#1614 = CARTESIAN_POINT('',(4.,-28.25,6.4));
#1615 = VERTEX_POINT('',#1616);
#1616 = CARTESIAN_POINT('',(-4.,-28.25,6.4));
#1617 = LINE('',#1618,#1619);
#1618 = CARTESIAN_POINT('',(4.,-28.25,6.4));
#1619 = VECTOR('',#1620,1.);
#1620 = DIRECTION('',(-1.,1.224646799147E-16,0.));
#1621 = ORIENTED_EDGE('',*,*,#1622,.T.);
#1622 = EDGE_CURVE('',#1613,#1109,#1623,.T.);
#1623 = LINE('',#1624,#1625);
#1624 = CARTESIAN_POINT('',(4.,-28.25,6.4));
#1625 = VECTOR('',#1626,1.);
#1626 = DIRECTION('',(0.,0.,1.));
#1627 = ORIENTED_EDGE('',*,*,#1108,.T.);
#1628 = ORIENTED_EDGE('',*,*,#1629,.F.);
#1629 = EDGE_CURVE('',#1615,#1101,#1630,.T.);
#1630 = LINE('',#1631,#1632);
#1631 = CARTESIAN_POINT('',(-4.,-28.25,6.4));
#1632 = VECTOR('',#1633,1.);
#1633 = DIRECTION('',(0.,0.,1.));
#1634 = PLANE('',#1635);
#1635 = AXIS2_PLACEMENT_3D('',#1636,#1637,#1638);
#1636 = CARTESIAN_POINT('',(4.,-28.25,6.4));
#1637 = DIRECTION('',(-1.224646799147E-16,-1.,0.));
#1638 = DIRECTION('',(0.,0.,1.));
#1639 = ADVANCED_FACE('',(#1640),#1673,.F.);
#1640 = FACE_BOUND('',#1641,.F.);
#1641 = EDGE_LOOP('',(#1642,#1643,#1644,#1645,#1646,#1647,#1655,#1663,
    #1669,#1670,#1671,#1672));
#1642 = ORIENTED_EDGE('',*,*,#1392,.F.);
#1643 = ORIENTED_EDGE('',*,*,#1564,.F.);
#1644 = ORIENTED_EDGE('',*,*,#1166,.T.);
#1645 = ORIENTED_EDGE('',*,*,#1364,.F.);
#1646 = ORIENTED_EDGE('',*,*,#1317,.F.);
#1647 = ORIENTED_EDGE('',*,*,#1648,.T.);
#1648 = EDGE_CURVE('',#1318,#1649,#1651,.T.);
#1649 = VERTEX_POINT('',#1650);
#1650 = CARTESIAN_POINT('',(27.25,-4.,8.));
#1651 = LINE('',#1652,#1653);
#1652 = CARTESIAN_POINT('',(27.25,-4.,5.725));
#1653 = VECTOR('',#1654,1.);
#1654 = DIRECTION('',(0.,0.,-1.));
#1655 = ORIENTED_EDGE('',*,*,#1656,.F.);
#1656 = EDGE_CURVE('',#1657,#1649,#1659,.T.);
#1657 = VERTEX_POINT('',#1658);
#1658 = CARTESIAN_POINT('',(27.25,4.,8.));
#1659 = LINE('',#1660,#1661);
#1660 = CARTESIAN_POINT('',(27.25,4.,8.));
#1661 = VECTOR('',#1662,1.);
#1662 = DIRECTION('',(-2.22044604925E-16,-1.,0.));
#1663 = ORIENTED_EDGE('',*,*,#1664,.F.);
#1664 = EDGE_CURVE('',#1342,#1657,#1665,.T.);
#1665 = LINE('',#1666,#1667);
#1666 = CARTESIAN_POINT('',(27.25,4.,5.725));
#1667 = VECTOR('',#1668,1.);
#1668 = DIRECTION('',(0.,0.,-1.));
#1669 = ORIENTED_EDGE('',*,*,#1349,.F.);
#1670 = ORIENTED_EDGE('',*,*,#1291,.T.);
#1671 = ORIENTED_EDGE('',*,*,#1259,.T.);
#1672 = ORIENTED_EDGE('',*,*,#1423,.T.);
#1673 = PLANE('',#1674);
#1674 = AXIS2_PLACEMENT_3D('',#1675,#1676,#1677);
#1675 = CARTESIAN_POINT('',(27.25,-27.25,5.7));
#1676 = DIRECTION('',(1.,0.,-0.));
#1677 = DIRECTION('',(0.,0.,1.));
#1678 = ADVANCED_FACE('',(#1679),#1704,.T.);
#1679 = FACE_BOUND('',#1680,.T.);
#1680 = EDGE_LOOP('',(#1681,#1691,#1697,#1698));
#1681 = ORIENTED_EDGE('',*,*,#1682,.F.);
#1682 = EDGE_CURVE('',#1683,#1685,#1687,.T.);
#1683 = VERTEX_POINT('',#1684);
#1684 = CARTESIAN_POINT('',(-4.,28.25,6.4));
#1685 = VERTEX_POINT('',#1686);
#1686 = CARTESIAN_POINT('',(4.,28.25,6.4));
#1687 = LINE('',#1688,#1689);
#1688 = CARTESIAN_POINT('',(-4.,28.25,6.4));
#1689 = VECTOR('',#1690,1.);
#1690 = DIRECTION('',(1.,0.,0.));
#1691 = ORIENTED_EDGE('',*,*,#1692,.T.);
#1692 = EDGE_CURVE('',#1683,#1208,#1693,.T.);
#1693 = LINE('',#1694,#1695);
#1694 = CARTESIAN_POINT('',(-4.,28.25,6.4));
#1695 = VECTOR('',#1696,1.);
#1696 = DIRECTION('',(0.,0.,1.));
#1697 = ORIENTED_EDGE('',*,*,#1207,.T.);
#1698 = ORIENTED_EDGE('',*,*,#1699,.F.);
#1699 = EDGE_CURVE('',#1685,#1200,#1700,.T.);
#1700 = LINE('',#1701,#1702);
#1701 = CARTESIAN_POINT('',(4.,28.25,6.4));
#1702 = VECTOR('',#1703,1.);
#1703 = DIRECTION('',(0.,0.,1.));
#1704 = PLANE('',#1705);
#1705 = AXIS2_PLACEMENT_3D('',#1706,#1707,#1708);
#1706 = CARTESIAN_POINT('',(-4.,28.25,6.4));
#1707 = DIRECTION('',(0.,1.,0.));
#1708 = DIRECTION('',(0.,0.,1.));
#1709 = ADVANCED_FACE('',(#1710),#1735,.T.);
#1710 = FACE_BOUND('',#1711,.T.);
#1711 = EDGE_LOOP('',(#1712,#1722,#1728,#1729));
#1712 = ORIENTED_EDGE('',*,*,#1713,.F.);
#1713 = EDGE_CURVE('',#1714,#1716,#1718,.T.);
#1714 = VERTEX_POINT('',#1715);
#1715 = CARTESIAN_POINT('',(28.25,4.,6.4));
#1716 = VERTEX_POINT('',#1717);
#1717 = CARTESIAN_POINT('',(28.25,-4.,6.4));
#1718 = LINE('',#1719,#1720);
#1719 = CARTESIAN_POINT('',(28.25,4.,6.4));
#1720 = VECTOR('',#1721,1.);
#1721 = DIRECTION('',(-2.22044604925E-16,-1.,0.));
#1722 = ORIENTED_EDGE('',*,*,#1723,.T.);
#1723 = EDGE_CURVE('',#1714,#1334,#1724,.T.);
#1724 = LINE('',#1725,#1726);
#1725 = CARTESIAN_POINT('',(28.25,4.,6.4));
#1726 = VECTOR('',#1727,1.);
#1727 = DIRECTION('',(0.,0.,1.));
#1728 = ORIENTED_EDGE('',*,*,#1333,.T.);
#1729 = ORIENTED_EDGE('',*,*,#1730,.F.);
#1730 = EDGE_CURVE('',#1716,#1326,#1731,.T.);
#1731 = LINE('',#1732,#1733);
#1732 = CARTESIAN_POINT('',(28.25,-4.,6.4));
#1733 = VECTOR('',#1734,1.);
#1734 = DIRECTION('',(0.,0.,1.));
#1735 = PLANE('',#1736);
#1736 = AXIS2_PLACEMENT_3D('',#1737,#1738,#1739);
#1737 = CARTESIAN_POINT('',(28.25,4.,6.4));
#1738 = DIRECTION('',(1.,-2.22044604925E-16,0.));
#1739 = DIRECTION('',(0.,0.,1.));
#1740 = ADVANCED_FACE('',(#1741),#1766,.F.);
#1741 = FACE_BOUND('',#1742,.F.);
#1742 = EDGE_LOOP('',(#1743,#1744,#1752,#1760));
#1743 = ORIENTED_EDGE('',*,*,#1682,.F.);
#1744 = ORIENTED_EDGE('',*,*,#1745,.F.);
#1745 = EDGE_CURVE('',#1746,#1683,#1748,.T.);
#1746 = VERTEX_POINT('',#1747);
#1747 = CARTESIAN_POINT('',(-4.,27.25,6.4));
#1748 = LINE('',#1749,#1750);
#1749 = CARTESIAN_POINT('',(-4.,27.15,6.4));
#1750 = VECTOR('',#1751,1.);
#1751 = DIRECTION('',(0.,1.,0.));
#1752 = ORIENTED_EDGE('',*,*,#1753,.T.);
#1753 = EDGE_CURVE('',#1746,#1754,#1756,.T.);
#1754 = VERTEX_POINT('',#1755);
#1755 = CARTESIAN_POINT('',(4.,27.25,6.4));
#1756 = LINE('',#1757,#1758);
#1757 = CARTESIAN_POINT('',(-15.625,27.25,6.4));
#1758 = VECTOR('',#1759,1.);
#1759 = DIRECTION('',(1.,0.,-0.));
#1760 = ORIENTED_EDGE('',*,*,#1761,.T.);
#1761 = EDGE_CURVE('',#1754,#1685,#1762,.T.);
#1762 = LINE('',#1763,#1764);
#1763 = CARTESIAN_POINT('',(4.,27.15,6.4));
#1764 = VECTOR('',#1765,1.);
#1765 = DIRECTION('',(0.,1.,0.));
#1766 = PLANE('',#1767);
#1767 = AXIS2_PLACEMENT_3D('',#1768,#1769,#1770);
#1768 = CARTESIAN_POINT('',(-4.,27.15,6.4));
#1769 = DIRECTION('',(0.,0.,1.));
#1770 = DIRECTION('',(1.,0.,0.));
#1771 = ADVANCED_FACE('',(#1772),#1797,.F.);
#1772 = FACE_BOUND('',#1773,.F.);
#1773 = EDGE_LOOP('',(#1774,#1784,#1790,#1791));
#1774 = ORIENTED_EDGE('',*,*,#1775,.T.);
#1775 = EDGE_CURVE('',#1776,#1778,#1780,.T.);
#1776 = VERTEX_POINT('',#1777);
#1777 = CARTESIAN_POINT('',(-4.,27.25,6.5));
#1778 = VERTEX_POINT('',#1779);
#1779 = CARTESIAN_POINT('',(4.,27.25,6.5));
#1780 = LINE('',#1781,#1782);
#1781 = CARTESIAN_POINT('',(-4.,27.25,6.5));
#1782 = VECTOR('',#1783,1.);
#1783 = DIRECTION('',(1.,0.,0.));
#1784 = ORIENTED_EDGE('',*,*,#1785,.T.);
#1785 = EDGE_CURVE('',#1778,#1754,#1786,.T.);
#1786 = LINE('',#1787,#1788);
#1787 = CARTESIAN_POINT('',(4.,27.25,5.725));
#1788 = VECTOR('',#1789,1.);
#1789 = DIRECTION('',(0.,0.,-1.));
#1790 = ORIENTED_EDGE('',*,*,#1753,.F.);
#1791 = ORIENTED_EDGE('',*,*,#1792,.F.);
#1792 = EDGE_CURVE('',#1776,#1746,#1793,.T.);
#1793 = LINE('',#1794,#1795);
#1794 = CARTESIAN_POINT('',(-4.,27.25,5.725));
#1795 = VECTOR('',#1796,1.);
#1796 = DIRECTION('',(0.,0.,-1.));
#1797 = PLANE('',#1798);
#1798 = AXIS2_PLACEMENT_3D('',#1799,#1800,#1801);
#1799 = CARTESIAN_POINT('',(-27.25,27.25,5.7));
#1800 = DIRECTION('',(-0.,1.,0.));
#1801 = DIRECTION('',(0.,0.,1.));
#1802 = ADVANCED_FACE('',(#1803),#1828,.T.);
#1803 = FACE_BOUND('',#1804,.T.);
#1804 = EDGE_LOOP('',(#1805,#1815,#1821,#1822));
#1805 = ORIENTED_EDGE('',*,*,#1806,.T.);
#1806 = EDGE_CURVE('',#1807,#1809,#1811,.T.);
#1807 = VERTEX_POINT('',#1808);
#1808 = CARTESIAN_POINT('',(-4.,26.65,7.1));
#1809 = VERTEX_POINT('',#1810);
#1810 = CARTESIAN_POINT('',(4.,26.65,7.1));
#1811 = LINE('',#1812,#1813);
#1812 = CARTESIAN_POINT('',(-4.,26.65,7.1));
#1813 = VECTOR('',#1814,1.);
#1814 = DIRECTION('',(1.,0.,0.));
#1815 = ORIENTED_EDGE('',*,*,#1816,.T.);
#1816 = EDGE_CURVE('',#1809,#1443,#1817,.T.);
#1817 = LINE('',#1818,#1819);
#1818 = CARTESIAN_POINT('',(4.,26.65,7.1));
#1819 = VECTOR('',#1820,1.);
#1820 = DIRECTION('',(0.,0.,1.));
#1821 = ORIENTED_EDGE('',*,*,#1440,.F.);
#1822 = ORIENTED_EDGE('',*,*,#1823,.F.);
#1823 = EDGE_CURVE('',#1807,#1441,#1824,.T.);
#1824 = LINE('',#1825,#1826);
#1825 = CARTESIAN_POINT('',(-4.,26.65,7.1));
#1826 = VECTOR('',#1827,1.);
#1827 = DIRECTION('',(0.,0.,1.));
#1828 = PLANE('',#1829);
#1829 = AXIS2_PLACEMENT_3D('',#1830,#1831,#1832);
#1830 = CARTESIAN_POINT('',(-4.,26.65,7.1));
#1831 = DIRECTION('',(0.,-1.,0.));
#1832 = DIRECTION('',(0.,0.,1.));
#1833 = ADVANCED_FACE('',(#1834),#1859,.T.);
#1834 = FACE_BOUND('',#1835,.T.);
#1835 = EDGE_LOOP('',(#1836,#1846,#1852,#1853));
#1836 = ORIENTED_EDGE('',*,*,#1837,.T.);
#1837 = EDGE_CURVE('',#1838,#1840,#1842,.T.);
#1838 = VERTEX_POINT('',#1839);
#1839 = CARTESIAN_POINT('',(-26.65,-4.,7.1));
#1840 = VERTEX_POINT('',#1841);
#1841 = CARTESIAN_POINT('',(-26.65,4.,7.1));
#1842 = LINE('',#1843,#1844);
#1843 = CARTESIAN_POINT('',(-26.65,-4.,7.1));
#1844 = VECTOR('',#1845,1.);
#1845 = DIRECTION('',(1.110223024625E-16,1.,0.));
#1846 = ORIENTED_EDGE('',*,*,#1847,.T.);
#1847 = EDGE_CURVE('',#1840,#1474,#1848,.T.);
#1848 = LINE('',#1849,#1850);
#1849 = CARTESIAN_POINT('',(-26.65,4.,7.1));
#1850 = VECTOR('',#1851,1.);
#1851 = DIRECTION('',(0.,0.,1.));
#1852 = ORIENTED_EDGE('',*,*,#1471,.F.);
#1853 = ORIENTED_EDGE('',*,*,#1854,.F.);
#1854 = EDGE_CURVE('',#1838,#1472,#1855,.T.);
#1855 = LINE('',#1856,#1857);
#1856 = CARTESIAN_POINT('',(-26.65,-4.,7.1));
#1857 = VECTOR('',#1858,1.);
#1858 = DIRECTION('',(0.,0.,1.));
#1859 = PLANE('',#1860);
#1860 = AXIS2_PLACEMENT_3D('',#1861,#1862,#1863);
#1861 = CARTESIAN_POINT('',(-26.65,-4.,7.1));
#1862 = DIRECTION('',(1.,-1.110223024625E-16,0.));
#1863 = DIRECTION('',(0.,0.,1.));
#1864 = ADVANCED_FACE('',(#1865),#1881,.T.);
#1865 = FACE_BOUND('',#1866,.T.);
#1866 = EDGE_LOOP('',(#1867,#1868,#1874,#1875));
#1867 = ORIENTED_EDGE('',*,*,#1533,.T.);
#1868 = ORIENTED_EDGE('',*,*,#1869,.T.);
#1869 = EDGE_CURVE('',#1536,#1840,#1870,.T.);
#1870 = LINE('',#1871,#1872);
#1871 = CARTESIAN_POINT('',(-27.25,4.,6.5));
#1872 = VECTOR('',#1873,1.);
#1873 = DIRECTION('',(0.707106781187,-7.850462293419E-17,0.707106781187)
  );
#1874 = ORIENTED_EDGE('',*,*,#1837,.F.);
#1875 = ORIENTED_EDGE('',*,*,#1876,.F.);
#1876 = EDGE_CURVE('',#1534,#1838,#1877,.T.);
#1877 = LINE('',#1878,#1879);
#1878 = CARTESIAN_POINT('',(-27.25,-4.,6.5));
#1879 = VECTOR('',#1880,1.);
#1880 = DIRECTION('',(0.707106781187,-7.850462293419E-17,0.707106781187)
  );
#1881 = PLANE('',#1882);
#1882 = AXIS2_PLACEMENT_3D('',#1883,#1884,#1885);
#1883 = CARTESIAN_POINT('',(-27.25,-4.,6.5));
#1884 = DIRECTION('',(0.707106781187,-7.850462293419E-17,-0.707106781187
    ));
#1885 = DIRECTION('',(0.707106781187,-7.850462293419E-17,0.707106781187)
  );
#1886 = ADVANCED_FACE('',(#1887),#1912,.F.);
#1887 = FACE_BOUND('',#1888,.F.);
#1888 = EDGE_LOOP('',(#1889,#1890,#1898,#1906));
#1889 = ORIENTED_EDGE('',*,*,#1612,.F.);
#1890 = ORIENTED_EDGE('',*,*,#1891,.F.);
#1891 = EDGE_CURVE('',#1892,#1613,#1894,.T.);
#1892 = VERTEX_POINT('',#1893);
#1893 = CARTESIAN_POINT('',(4.,-27.25,6.4));
#1894 = LINE('',#1895,#1896);
#1895 = CARTESIAN_POINT('',(4.,-27.15,6.4));
#1896 = VECTOR('',#1897,1.);
#1897 = DIRECTION('',(-1.224646799147E-16,-1.,0.));
#1898 = ORIENTED_EDGE('',*,*,#1899,.F.);
#1899 = EDGE_CURVE('',#1900,#1892,#1902,.T.);
#1900 = VERTEX_POINT('',#1901);
#1901 = CARTESIAN_POINT('',(-4.,-27.25,6.4));
#1902 = LINE('',#1903,#1904);
#1903 = CARTESIAN_POINT('',(-11.625,-27.25,6.4));
#1904 = VECTOR('',#1905,1.);
#1905 = DIRECTION('',(1.,0.,-0.));
#1906 = ORIENTED_EDGE('',*,*,#1907,.T.);
#1907 = EDGE_CURVE('',#1900,#1615,#1908,.T.);
#1908 = LINE('',#1909,#1910);
#1909 = CARTESIAN_POINT('',(-4.,-27.15,6.4));
#1910 = VECTOR('',#1911,1.);
#1911 = DIRECTION('',(-1.224646799147E-16,-1.,0.));
#1912 = PLANE('',#1913);
#1913 = AXIS2_PLACEMENT_3D('',#1914,#1915,#1916);
#1914 = CARTESIAN_POINT('',(4.,-27.15,6.4));
#1915 = DIRECTION('',(0.,0.,1.));
#1916 = DIRECTION('',(-1.,1.224646799147E-16,0.));
#1917 = ADVANCED_FACE('',(#1918),#1943,.T.);
#1918 = FACE_BOUND('',#1919,.T.);
#1919 = EDGE_LOOP('',(#1920,#1930,#1936,#1937));
#1920 = ORIENTED_EDGE('',*,*,#1921,.F.);
#1921 = EDGE_CURVE('',#1922,#1924,#1926,.T.);
#1922 = VERTEX_POINT('',#1923);
#1923 = CARTESIAN_POINT('',(4.,-27.25,6.5));
#1924 = VERTEX_POINT('',#1925);
#1925 = CARTESIAN_POINT('',(-4.,-27.25,6.5));
#1926 = LINE('',#1927,#1928);
#1927 = CARTESIAN_POINT('',(4.,-27.25,6.5));
#1928 = VECTOR('',#1929,1.);
#1929 = DIRECTION('',(-1.,1.224646799147E-16,0.));
#1930 = ORIENTED_EDGE('',*,*,#1931,.F.);
#1931 = EDGE_CURVE('',#1892,#1922,#1932,.T.);
#1932 = LINE('',#1933,#1934);
#1933 = CARTESIAN_POINT('',(4.,-27.25,5.725));
#1934 = VECTOR('',#1935,1.);
#1935 = DIRECTION('',(0.,0.,1.));
#1936 = ORIENTED_EDGE('',*,*,#1899,.F.);
#1937 = ORIENTED_EDGE('',*,*,#1938,.T.);
#1938 = EDGE_CURVE('',#1900,#1924,#1939,.T.);
#1939 = LINE('',#1940,#1941);
#1940 = CARTESIAN_POINT('',(-4.,-27.25,5.725));
#1941 = VECTOR('',#1942,1.);
#1942 = DIRECTION('',(0.,0.,1.));
#1943 = PLANE('',#1944);
#1944 = AXIS2_PLACEMENT_3D('',#1945,#1946,#1947);
#1945 = CARTESIAN_POINT('',(-27.25,-27.25,5.7));
#1946 = DIRECTION('',(-0.,1.,0.));
#1947 = DIRECTION('',(0.,0.,1.));
#1948 = ADVANCED_FACE('',(#1949),#1974,.T.);
#1949 = FACE_BOUND('',#1950,.T.);
#1950 = EDGE_LOOP('',(#1951,#1961,#1967,#1968));
#1951 = ORIENTED_EDGE('',*,*,#1952,.T.);
#1952 = EDGE_CURVE('',#1953,#1955,#1957,.T.);
#1953 = VERTEX_POINT('',#1954);
#1954 = CARTESIAN_POINT('',(4.,-26.65,7.1));
#1955 = VERTEX_POINT('',#1956);
#1956 = CARTESIAN_POINT('',(-4.,-26.65,7.1));
#1957 = LINE('',#1958,#1959);
#1958 = CARTESIAN_POINT('',(4.,-26.65,7.1));
#1959 = VECTOR('',#1960,1.);
#1960 = DIRECTION('',(-1.,1.224646799147E-16,0.));
#1961 = ORIENTED_EDGE('',*,*,#1962,.T.);
#1962 = EDGE_CURVE('',#1955,#1584,#1963,.T.);
#1963 = LINE('',#1964,#1965);
#1964 = CARTESIAN_POINT('',(-4.,-26.65,7.1));
#1965 = VECTOR('',#1966,1.);
#1966 = DIRECTION('',(0.,0.,1.));
#1967 = ORIENTED_EDGE('',*,*,#1581,.F.);
#1968 = ORIENTED_EDGE('',*,*,#1969,.F.);
#1969 = EDGE_CURVE('',#1953,#1582,#1970,.T.);
#1970 = LINE('',#1971,#1972);
#1971 = CARTESIAN_POINT('',(4.,-26.65,7.1));
#1972 = VECTOR('',#1973,1.);
#1973 = DIRECTION('',(0.,0.,1.));
#1974 = PLANE('',#1975);
#1975 = AXIS2_PLACEMENT_3D('',#1976,#1977,#1978);
#1976 = CARTESIAN_POINT('',(4.,-26.65,7.1));
#1977 = DIRECTION('',(1.224646799147E-16,1.,0.));
#1978 = DIRECTION('',(0.,0.,1.));
#1979 = ADVANCED_FACE('',(#1980),#2005,.T.);
#1980 = FACE_BOUND('',#1981,.T.);
#1981 = EDGE_LOOP('',(#1982,#1992,#1998,#1999));
#1982 = ORIENTED_EDGE('',*,*,#1983,.T.);
#1983 = EDGE_CURVE('',#1984,#1986,#1988,.T.);
#1984 = VERTEX_POINT('',#1985);
#1985 = CARTESIAN_POINT('',(26.65,4.,7.4));
#1986 = VERTEX_POINT('',#1987);
#1987 = CARTESIAN_POINT('',(26.65,-4.,7.4));
#1988 = LINE('',#1989,#1990);
#1989 = CARTESIAN_POINT('',(26.65,4.,7.4));
#1990 = VECTOR('',#1991,1.);
#1991 = DIRECTION('',(-2.22044604925E-16,-1.,0.));
#1992 = ORIENTED_EDGE('',*,*,#1993,.T.);
#1993 = EDGE_CURVE('',#1986,#1649,#1994,.T.);
#1994 = LINE('',#1995,#1996);
#1995 = CARTESIAN_POINT('',(26.65,-4.,7.4));
#1996 = VECTOR('',#1997,1.);
#1997 = DIRECTION('',(0.707106781187,-1.570092458684E-16,0.707106781187)
  );
#1998 = ORIENTED_EDGE('',*,*,#1656,.F.);
#1999 = ORIENTED_EDGE('',*,*,#2000,.F.);
#2000 = EDGE_CURVE('',#1984,#1657,#2001,.T.);
#2001 = LINE('',#2002,#2003);
#2002 = CARTESIAN_POINT('',(26.65,4.,7.4));
#2003 = VECTOR('',#2004,1.);
#2004 = DIRECTION('',(0.707106781187,-1.570092458684E-16,0.707106781187)
  );
#2005 = PLANE('',#2006);
#2006 = AXIS2_PLACEMENT_3D('',#2007,#2008,#2009);
#2007 = CARTESIAN_POINT('',(26.65,4.,7.4));
#2008 = DIRECTION('',(-0.707106781187,1.570092458684E-16,0.707106781187)
  );
#2009 = DIRECTION('',(0.707106781187,-1.570092458684E-16,0.707106781187)
  );
#2010 = ADVANCED_FACE('',(#2011),#2036,.F.);
#2011 = FACE_BOUND('',#2012,.F.);
#2012 = EDGE_LOOP('',(#2013,#2014,#2022,#2030));
#2013 = ORIENTED_EDGE('',*,*,#1713,.F.);
#2014 = ORIENTED_EDGE('',*,*,#2015,.F.);
#2015 = EDGE_CURVE('',#2016,#1714,#2018,.T.);
#2016 = VERTEX_POINT('',#2017);
#2017 = CARTESIAN_POINT('',(27.25,4.,6.4));
#2018 = LINE('',#2019,#2020);
#2019 = CARTESIAN_POINT('',(27.15,4.,6.4));
#2020 = VECTOR('',#2021,1.);
#2021 = DIRECTION('',(1.,-2.22044604925E-16,0.));
#2022 = ORIENTED_EDGE('',*,*,#2023,.T.);
#2023 = EDGE_CURVE('',#2016,#2024,#2026,.T.);
#2024 = VERTEX_POINT('',#2025);
#2025 = CARTESIAN_POINT('',(27.25,-4.,6.4));
#2026 = LINE('',#2027,#2028);
#2027 = CARTESIAN_POINT('',(27.25,-11.625,6.4));
#2028 = VECTOR('',#2029,1.);
#2029 = DIRECTION('',(0.,-1.,0.));
#2030 = ORIENTED_EDGE('',*,*,#2031,.T.);
#2031 = EDGE_CURVE('',#2024,#1716,#2032,.T.);
#2032 = LINE('',#2033,#2034);
#2033 = CARTESIAN_POINT('',(27.15,-4.,6.4));
#2034 = VECTOR('',#2035,1.);
#2035 = DIRECTION('',(1.,-2.22044604925E-16,0.));
#2036 = PLANE('',#2037);
#2037 = AXIS2_PLACEMENT_3D('',#2038,#2039,#2040);
#2038 = CARTESIAN_POINT('',(27.15,4.,6.4));
#2039 = DIRECTION('',(0.,0.,1.));
#2040 = DIRECTION('',(-2.22044604925E-16,-1.,0.));
#2041 = ADVANCED_FACE('',(#2042),#2067,.F.);
#2042 = FACE_BOUND('',#2043,.F.);
#2043 = EDGE_LOOP('',(#2044,#2054,#2060,#2061));
#2044 = ORIENTED_EDGE('',*,*,#2045,.T.);
#2045 = EDGE_CURVE('',#2046,#2048,#2050,.T.);
#2046 = VERTEX_POINT('',#2047);
#2047 = CARTESIAN_POINT('',(27.25,4.,6.5));
#2048 = VERTEX_POINT('',#2049);
#2049 = CARTESIAN_POINT('',(27.25,-4.,6.5));
#2050 = LINE('',#2051,#2052);
#2051 = CARTESIAN_POINT('',(27.25,4.,6.5));
#2052 = VECTOR('',#2053,1.);
#2053 = DIRECTION('',(-2.22044604925E-16,-1.,0.));
#2054 = ORIENTED_EDGE('',*,*,#2055,.T.);
#2055 = EDGE_CURVE('',#2048,#2024,#2056,.T.);
#2056 = LINE('',#2057,#2058);
#2057 = CARTESIAN_POINT('',(27.25,-4.,5.725));
#2058 = VECTOR('',#2059,1.);
#2059 = DIRECTION('',(0.,0.,-1.));
#2060 = ORIENTED_EDGE('',*,*,#2023,.F.);
#2061 = ORIENTED_EDGE('',*,*,#2062,.F.);
#2062 = EDGE_CURVE('',#2046,#2016,#2063,.T.);
#2063 = LINE('',#2064,#2065);
#2064 = CARTESIAN_POINT('',(27.25,4.,5.725));
#2065 = VECTOR('',#2066,1.);
#2066 = DIRECTION('',(0.,0.,-1.));
#2067 = PLANE('',#2068);
#2068 = AXIS2_PLACEMENT_3D('',#2069,#2070,#2071);
#2069 = CARTESIAN_POINT('',(27.25,-27.25,5.7));
#2070 = DIRECTION('',(1.,0.,-0.));
#2071 = DIRECTION('',(0.,0.,1.));
#2072 = ADVANCED_FACE('',(#2073),#2089,.T.);
#2073 = FACE_BOUND('',#2074,.T.);
#2074 = EDGE_LOOP('',(#2075,#2076,#2082,#2083));
#2075 = ORIENTED_EDGE('',*,*,#1775,.T.);
#2076 = ORIENTED_EDGE('',*,*,#2077,.T.);
#2077 = EDGE_CURVE('',#1778,#1809,#2078,.T.);
#2078 = LINE('',#2079,#2080);
#2079 = CARTESIAN_POINT('',(4.,27.25,6.5));
#2080 = VECTOR('',#2081,1.);
#2081 = DIRECTION('',(0.,-0.707106781187,0.707106781187));
#2082 = ORIENTED_EDGE('',*,*,#1806,.F.);
#2083 = ORIENTED_EDGE('',*,*,#2084,.F.);
#2084 = EDGE_CURVE('',#1776,#1807,#2085,.T.);
#2085 = LINE('',#2086,#2087);
#2086 = CARTESIAN_POINT('',(-4.,27.25,6.5));
#2087 = VECTOR('',#2088,1.);
#2088 = DIRECTION('',(0.,-0.707106781187,0.707106781187));
#2089 = PLANE('',#2090);
#2090 = AXIS2_PLACEMENT_3D('',#2091,#2092,#2093);
#2091 = CARTESIAN_POINT('',(-4.,27.25,6.5));
#2092 = DIRECTION('',(0.,-0.707106781187,-0.707106781187));
#2093 = DIRECTION('',(0.,-0.707106781187,0.707106781187));
#2094 = ADVANCED_FACE('',(#2095),#2111,.T.);
#2095 = FACE_BOUND('',#2096,.T.);
#2096 = EDGE_LOOP('',(#2097,#2098,#2104,#2105));
#2097 = ORIENTED_EDGE('',*,*,#1921,.T.);
#2098 = ORIENTED_EDGE('',*,*,#2099,.T.);
#2099 = EDGE_CURVE('',#1924,#1955,#2100,.T.);
#2100 = LINE('',#2101,#2102);
#2101 = CARTESIAN_POINT('',(-4.,-27.25,6.5));
#2102 = VECTOR('',#2103,1.);
#2103 = DIRECTION('',(8.659560562355E-17,0.707106781187,0.707106781187)
  );
#2104 = ORIENTED_EDGE('',*,*,#1952,.F.);
#2105 = ORIENTED_EDGE('',*,*,#2106,.F.);
#2106 = EDGE_CURVE('',#1922,#1953,#2107,.T.);
#2107 = LINE('',#2108,#2109);
#2108 = CARTESIAN_POINT('',(4.,-27.25,6.5));
#2109 = VECTOR('',#2110,1.);
#2110 = DIRECTION('',(8.659560562355E-17,0.707106781187,0.707106781187)
  );
#2111 = PLANE('',#2112);
#2112 = AXIS2_PLACEMENT_3D('',#2113,#2114,#2115);
#2113 = CARTESIAN_POINT('',(4.,-27.25,6.5));
#2114 = DIRECTION('',(8.659560562355E-17,0.707106781187,-0.707106781187)
  );
#2115 = DIRECTION('',(8.659560562355E-17,0.707106781187,0.707106781187)
  );
#2116 = ADVANCED_FACE('',(#2117),#2142,.T.);
#2117 = FACE_BOUND('',#2118,.T.);
#2118 = EDGE_LOOP('',(#2119,#2129,#2135,#2136));
#2119 = ORIENTED_EDGE('',*,*,#2120,.T.);
#2120 = EDGE_CURVE('',#2121,#2123,#2125,.T.);
#2121 = VERTEX_POINT('',#2122);
#2122 = CARTESIAN_POINT('',(26.65,4.,7.1));
#2123 = VERTEX_POINT('',#2124);
#2124 = CARTESIAN_POINT('',(26.65,-4.,7.1));
#2125 = LINE('',#2126,#2127);
#2126 = CARTESIAN_POINT('',(26.65,4.,7.1));
#2127 = VECTOR('',#2128,1.);
#2128 = DIRECTION('',(-2.22044604925E-16,-1.,0.));
#2129 = ORIENTED_EDGE('',*,*,#2130,.T.);
#2130 = EDGE_CURVE('',#2123,#1986,#2131,.T.);
#2131 = LINE('',#2132,#2133);
#2132 = CARTESIAN_POINT('',(26.65,-4.,7.1));
#2133 = VECTOR('',#2134,1.);
#2134 = DIRECTION('',(0.,0.,1.));
#2135 = ORIENTED_EDGE('',*,*,#1983,.F.);
#2136 = ORIENTED_EDGE('',*,*,#2137,.F.);
#2137 = EDGE_CURVE('',#2121,#1984,#2138,.T.);
#2138 = LINE('',#2139,#2140);
#2139 = CARTESIAN_POINT('',(26.65,4.,7.1));
#2140 = VECTOR('',#2141,1.);
#2141 = DIRECTION('',(0.,0.,1.));
#2142 = PLANE('',#2143);
#2143 = AXIS2_PLACEMENT_3D('',#2144,#2145,#2146);
#2144 = CARTESIAN_POINT('',(26.65,4.,7.1));
#2145 = DIRECTION('',(-1.,2.22044604925E-16,0.));
#2146 = DIRECTION('',(0.,0.,1.));
#2147 = ADVANCED_FACE('',(#2148),#2164,.T.);
#2148 = FACE_BOUND('',#2149,.T.);
#2149 = EDGE_LOOP('',(#2150,#2151,#2157,#2158));
#2150 = ORIENTED_EDGE('',*,*,#2045,.T.);
#2151 = ORIENTED_EDGE('',*,*,#2152,.T.);
#2152 = EDGE_CURVE('',#2048,#2123,#2153,.T.);
#2153 = LINE('',#2154,#2155);
#2154 = CARTESIAN_POINT('',(27.25,-4.,6.5));
#2155 = VECTOR('',#2156,1.);
#2156 = DIRECTION('',(-0.707106781187,1.570092458684E-16,0.707106781187)
  );
#2157 = ORIENTED_EDGE('',*,*,#2120,.F.);
#2158 = ORIENTED_EDGE('',*,*,#2159,.F.);
#2159 = EDGE_CURVE('',#2046,#2121,#2160,.T.);
#2160 = LINE('',#2161,#2162);
#2161 = CARTESIAN_POINT('',(27.25,4.,6.5));
#2162 = VECTOR('',#2163,1.);
#2163 = DIRECTION('',(-0.707106781187,1.570092458684E-16,0.707106781187)
  );
#2164 = PLANE('',#2165);
#2165 = AXIS2_PLACEMENT_3D('',#2166,#2167,#2168);
#2166 = CARTESIAN_POINT('',(27.25,4.,6.5));
#2167 = DIRECTION('',(-0.707106781187,1.570092458684E-16,-0.707106781187
    ));
#2168 = DIRECTION('',(-0.707106781187,1.570092458684E-16,0.707106781187)
  );
#2169 = ADVANCED_FACE('',(#2170),#2180,.T.);
#2170 = FACE_BOUND('',#2171,.T.);
#2171 = EDGE_LOOP('',(#2172,#2173,#2174,#2175,#2176,#2177,#2178,#2179));
#2172 = ORIENTED_EDGE('',*,*,#1550,.F.);
#2173 = ORIENTED_EDGE('',*,*,#1519,.T.);
#2174 = ORIENTED_EDGE('',*,*,#953,.T.);
#2175 = ORIENTED_EDGE('',*,*,#310,.F.);
#2176 = ORIENTED_EDGE('',*,*,#918,.F.);
#2177 = ORIENTED_EDGE('',*,*,#1481,.F.);
#2178 = ORIENTED_EDGE('',*,*,#1847,.F.);
#2179 = ORIENTED_EDGE('',*,*,#1869,.F.);
#2180 = PLANE('',#2181);
#2181 = AXIS2_PLACEMENT_3D('',#2182,#2183,#2184);
#2182 = CARTESIAN_POINT('',(-27.69579164194,4.,10.018101071026));
#2183 = DIRECTION('',(0.,1.,0.));
#2184 = DIRECTION('',(0.,-0.,1.));
#2185 = ADVANCED_FACE('',(#2186),#2196,.T.);
#2186 = FACE_BOUND('',#2187,.T.);
#2187 = EDGE_LOOP('',(#2188,#2189,#2190,#2191,#2192,#2193,#2194,#2195));
#2188 = ORIENTED_EDGE('',*,*,#1341,.T.);
#2189 = ORIENTED_EDGE('',*,*,#1723,.F.);
#2190 = ORIENTED_EDGE('',*,*,#2015,.F.);
#2191 = ORIENTED_EDGE('',*,*,#2062,.F.);
#2192 = ORIENTED_EDGE('',*,*,#2159,.T.);
#2193 = ORIENTED_EDGE('',*,*,#2137,.T.);
#2194 = ORIENTED_EDGE('',*,*,#2000,.T.);
#2195 = ORIENTED_EDGE('',*,*,#1664,.F.);
#2196 = PLANE('',#2197);
#2197 = AXIS2_PLACEMENT_3D('',#2198,#2199,#2200);
#2198 = CARTESIAN_POINT('',(27.695791641943,4.,10.018101071026));
#2199 = DIRECTION('',(0.,1.,0.));
#2200 = DIRECTION('',(0.,-0.,1.));
#2201 = ADVANCED_FACE('',(#2202),#2212,.T.);
#2202 = FACE_BOUND('',#2203,.T.);
#2203 = EDGE_LOOP('',(#2204,#2205,#2206,#2207,#2208,#2209,#2210,#2211));
#2204 = ORIENTED_EDGE('',*,*,#1543,.T.);
#2205 = ORIENTED_EDGE('',*,*,#1876,.T.);
#2206 = ORIENTED_EDGE('',*,*,#1854,.T.);
#2207 = ORIENTED_EDGE('',*,*,#1488,.T.);
#2208 = ORIENTED_EDGE('',*,*,#902,.T.);
#2209 = ORIENTED_EDGE('',*,*,#326,.T.);
#2210 = ORIENTED_EDGE('',*,*,#946,.F.);
#2211 = ORIENTED_EDGE('',*,*,#1503,.F.);
#2212 = PLANE('',#2213);
#2213 = AXIS2_PLACEMENT_3D('',#2214,#2215,#2216);
#2214 = CARTESIAN_POINT('',(-27.69579164194,-4.,10.018101071026));
#2215 = DIRECTION('',(2.237985266171E-16,-1.,-0.));
#2216 = DIRECTION('',(-1.,-2.237985266171E-16,0.));
#2217 = ADVANCED_FACE('',(#2218),#2228,.T.);
#2218 = FACE_BOUND('',#2219,.T.);
#2219 = EDGE_LOOP('',(#2220,#2221,#2222,#2223,#2224,#2225,#2226,#2227));
#2220 = ORIENTED_EDGE('',*,*,#1325,.F.);
#2221 = ORIENTED_EDGE('',*,*,#1648,.T.);
#2222 = ORIENTED_EDGE('',*,*,#1993,.F.);
#2223 = ORIENTED_EDGE('',*,*,#2130,.F.);
#2224 = ORIENTED_EDGE('',*,*,#2152,.F.);
#2225 = ORIENTED_EDGE('',*,*,#2055,.T.);
#2226 = ORIENTED_EDGE('',*,*,#2031,.T.);
#2227 = ORIENTED_EDGE('',*,*,#1730,.T.);
#2228 = PLANE('',#2229);
#2229 = AXIS2_PLACEMENT_3D('',#2230,#2231,#2232);
#2230 = CARTESIAN_POINT('',(27.695791641943,-4.,10.018101071026));
#2231 = DIRECTION('',(2.547918065222E-16,-1.,-0.));
#2232 = DIRECTION('',(-1.,-2.547918065222E-16,0.));
#2233 = ADVANCED_FACE('',(#2234),#2244,.T.);
#2234 = FACE_BOUND('',#2235,.T.);
#2235 = EDGE_LOOP('',(#2236,#2237,#2238,#2239,#2240,#2241,#2242,#2243));
#2236 = ORIENTED_EDGE('',*,*,#1215,.T.);
#2237 = ORIENTED_EDGE('',*,*,#1692,.F.);
#2238 = ORIENTED_EDGE('',*,*,#1745,.F.);
#2239 = ORIENTED_EDGE('',*,*,#1792,.F.);
#2240 = ORIENTED_EDGE('',*,*,#2084,.T.);
#2241 = ORIENTED_EDGE('',*,*,#1823,.T.);
#2242 = ORIENTED_EDGE('',*,*,#1457,.T.);
#2243 = ORIENTED_EDGE('',*,*,#822,.F.);
#2244 = PLANE('',#2245);
#2245 = AXIS2_PLACEMENT_3D('',#2246,#2247,#2248);
#2246 = CARTESIAN_POINT('',(-4.,27.695791641943,10.018101071026));
#2247 = DIRECTION('',(-1.,-0.,-0.));
#2248 = DIRECTION('',(0.,0.,-1.));
#2249 = ADVANCED_FACE('',(#2250),#2260,.T.);
#2250 = FACE_BOUND('',#2251,.T.);
#2251 = EDGE_LOOP('',(#2252,#2253,#2254,#2255,#2256,#2257,#2258,#2259));
#2252 = ORIENTED_EDGE('',*,*,#1938,.F.);
#2253 = ORIENTED_EDGE('',*,*,#1907,.T.);
#2254 = ORIENTED_EDGE('',*,*,#1629,.T.);
#2255 = ORIENTED_EDGE('',*,*,#1100,.F.);
#2256 = ORIENTED_EDGE('',*,*,#1042,.F.);
#2257 = ORIENTED_EDGE('',*,*,#1591,.F.);
#2258 = ORIENTED_EDGE('',*,*,#1962,.F.);
#2259 = ORIENTED_EDGE('',*,*,#2099,.F.);
#2260 = PLANE('',#2261);
#2261 = AXIS2_PLACEMENT_3D('',#2262,#2263,#2264);
#2262 = CARTESIAN_POINT('',(-4.,-27.69579164194,10.018101071026));
#2263 = DIRECTION('',(-1.,-0.,-0.));
#2264 = DIRECTION('',(0.,0.,-1.));
#2265 = ADVANCED_FACE('',(#2266),#2276,.T.);
#2266 = FACE_BOUND('',#2267,.T.);
#2267 = EDGE_LOOP('',(#2268,#2269,#2270,#2271,#2272,#2273,#2274,#2275));
#2268 = ORIENTED_EDGE('',*,*,#1199,.F.);
#2269 = ORIENTED_EDGE('',*,*,#806,.T.);
#2270 = ORIENTED_EDGE('',*,*,#1450,.F.);
#2271 = ORIENTED_EDGE('',*,*,#1816,.F.);
#2272 = ORIENTED_EDGE('',*,*,#2077,.F.);
#2273 = ORIENTED_EDGE('',*,*,#1785,.T.);
#2274 = ORIENTED_EDGE('',*,*,#1761,.T.);
#2275 = ORIENTED_EDGE('',*,*,#1699,.T.);
#2276 = PLANE('',#2277);
#2277 = AXIS2_PLACEMENT_3D('',#2278,#2279,#2280);
#2278 = CARTESIAN_POINT('',(4.,27.695791641943,10.018101071026));
#2279 = DIRECTION('',(1.,0.,0.));
#2280 = DIRECTION('',(-0.,0.,1.));
#2281 = ADVANCED_FACE('',(#2282),#2292,.T.);
#2282 = FACE_BOUND('',#2283,.T.);
#2283 = EDGE_LOOP('',(#2284,#2285,#2286,#2287,#2288,#2289,#2290,#2291));
#2284 = ORIENTED_EDGE('',*,*,#1931,.T.);
#2285 = ORIENTED_EDGE('',*,*,#2106,.T.);
#2286 = ORIENTED_EDGE('',*,*,#1969,.T.);
#2287 = ORIENTED_EDGE('',*,*,#1598,.T.);
#2288 = ORIENTED_EDGE('',*,*,#1026,.T.);
#2289 = ORIENTED_EDGE('',*,*,#1116,.T.);
#2290 = ORIENTED_EDGE('',*,*,#1622,.F.);
#2291 = ORIENTED_EDGE('',*,*,#1891,.F.);
#2292 = PLANE('',#2293);
#2293 = AXIS2_PLACEMENT_3D('',#2294,#2295,#2296);
#2294 = CARTESIAN_POINT('',(4.,-27.69579164194,10.018101071026));
#2295 = DIRECTION('',(1.,0.,0.));
#2296 = DIRECTION('',(-0.,0.,1.));
#2297 = ( GEOMETRIC_REPRESENTATION_CONTEXT(3) 
GLOBAL_UNCERTAINTY_ASSIGNED_CONTEXT((#2301)) 
GLOBAL_UNIT_ASSIGNED_CONTEXT((#2298,#2299,#2300)) REPRESENTATION_CONTEXT
('Context #1','3D Context with UNIT and UNCERTAINTY') );
#2298 = ( LENGTH_UNIT() NAMED_UNIT(*) SI_UNIT(.MILLI.,.METRE.) );
#2299 = ( NAMED_UNIT(*) PLANE_ANGLE_UNIT() SI_UNIT($,.RADIAN.) );
#2300 = ( NAMED_UNIT(*) SI_UNIT($,.STERADIAN.) SOLID_ANGLE_UNIT() );
#2301 = UNCERTAINTY_MEASURE_WITH_UNIT(LENGTH_MEASURE(2.E-07),#2298,
  'distance_accuracy_value','confusion accuracy');
#2302 = PRODUCT_RELATED_PRODUCT_CATEGORY('part',$,(#7));
ENDSEC;
END-ISO-10303-21;
